{"asset":{"version":"2.0","generator":"Baltor mesh_algorithms meshkit 1.0.0"},"scene":0,"scenes":[{"name":"scene","nodes":[0]}],"nodes":[{"name":"ribbon","mesh":0}],"meshes":[{"name":"ribbon","primitives":[{"attributes":{"POSITION":0,"NORMAL":1},"indices":2,"material":0,"mode":4}]}],"materials":[{"name":"ribbon","pbrMetallicRoughness":{"baseColorFactor":[0.4,0.78,0.7,1.0],"metallicFactor":0.0,"roughnessFactor":0.6},"doubleSided":true}],"buffers":[{"byteLength":18000,"uri":"data:application/octet-stream;base64,"}],"bufferViews":[{"buffer":0,"byteOffset":0,"byteLength":7200,"target":34962},{"buffer":0,"byteOffset":7200,"byteLength":7200,"target":34962},{"buffer":0,"byteOffset":14400,"byteLength":3600,"target":34963}],"accessors":[{"bufferView":0,"componentType":5126,"count":600,"type":"VEC3","min":[-2.855288028717041,-1.0556776523590088,-3.125],"max":[2.855288028717041,1.0556776523590088,2.173900604248047]},{"bufferView":1,"componentType":5126,"count":600,"type":"VEC3"},{"bufferView":2,"componentType":5123,"count":1800,"type":"SCALAR"}]}
