{"asset":{"version":"2.0","generator":"Baltor mesh_algorithms meshkit 1.0.0"},"scene":0,"scenes":[{"name":"scene","nodes":[0]}],"nodes":[{"name":"icosphere","mesh":0}],"meshes":[{"name":"icosphere","primitives":[{"attributes":{"POSITION":0,"NORMAL":1},"indices":2,"material":0,"mode":4}]}],"materials":[{"name":"icosphere","pbrMetallicRoughness":{"baseColorFactor":[0.7,0.8,0.66,1.0],"metallicFactor":0.0,"roughnessFactor":0.6}}],"buffers":[{"byteLength":23088,"uri":"data:application/octet-stream;base64,"}],"bufferViews":[{"buffer":0,"byteOffset":0,"byteLength":7704,"target":34962},{"buffer":0,"byteOffset":7704,"byteLength":7704,"target":34962},{"buffer":0,"byteOffset":15408,"byteLength":7680,"target":34963}],"accessors":[{"bufferView":0,"componentType":5126,"count":642,"type":"VEC3","min":[-1.0,-1.0,-1.0],"max":[1.0,1.0,1.0]},{"bufferView":1,"componentType":5126,"count":642,"type":"VEC3"},{"bufferView":2,"componentType":5123,"count":3840,"type":"SCALAR"}]}
