{"asset":{"version":"2.0","generator":"Baltor mesh_algorithms meshkit 1.0.0"},"scene":0,"scenes":[{"name":"scene","nodes":[0]}],"nodes":[{"name":"chain","children":[1,2,3,4,5,6,7]},{"name":"link_0","mesh":0,"translation":[-2.46,0.0,0.0]},{"name":"link_1","mesh":0,"translation":[-1.64,0.0,0.0],"rotation":[0.7071067811865475,0.0,0.0,0.7071067811865476]},{"name":"link_2","mesh":0,"translation":[-0.82,0.0,0.0]},{"name":"link_3","mesh":0,"translation":[0.0,0.0,0.0],"rotation":[0.7071067811865475,0.0,0.0,0.7071067811865476]},{"name":"link_4","mesh":0,"translation":[0.82,0.0,0.0]},{"name":"link_5","mesh":0,"translation":[1.64,0.0,0.0],"rotation":[0.7071067811865475,0.0,0.0,0.7071067811865476]},{"name":"link_6","mesh":0,"translation":[2.46,0.0,0.0]}],"meshes":[{"name":"chain_link","primitives":[{"attributes":{"POSITION":0,"NORMAL":1},"indices":2,"material":0,"mode":4}]}],"materials":[{"name":"steel","pbrMetallicRoughness":{"baseColorFactor":[0.62,0.64,0.68,1.0],"metallicFactor":0.85,"roughnessFactor":0.3}}],"buffers":[{"byteLength":27648,"uri":"data:application/octet-stream;base64,"}],"bufferViews":[{"buffer":0,"byteOffset":0,"byteLength":9216,"target":34962},{"buffer":0,"byteOffset":9216,"byteLength":9216,"target":34962},{"buffer":0,"byteOffset":18432,"byteLength":9216,"target":34963}],"accessors":[{"bufferView":0,"componentType":5126,"count":768,"type":"VEC3","min":[-0.5799999833106995,-0.07999999821186066,-0.3799999952316284],"max":[0.5799999833106995,0.07999999821186066,0.3799999952316284]},{"bufferView":1,"componentType":5126,"count":768,"type":"VEC3"},{"bufferView":2,"componentType":5123,"count":4608,"type":"SCALAR"}]}
