{
 "asset": {
  "version": "2.0",
  "generator": "tesseract.py"
 },
 "scene": 0,
 "scenes": [
  {
   "nodes": [
    0
   ]
  }
 ],
 "nodes": [
  {
   "name": "tesseract",
   "mesh": 0
  }
 ],
 "meshes": [
  {
   "name": "tesseract",
   "primitives": [
    {
     "attributes": {
      "POSITION": 0,
      "NORMAL": 1,
      "COLOR_0": 2
     },
     "mode": 4,
     "material": 0,
     "indices": 3
    }
   ]
  }
 ],
 "materials": [
  {
   "name": "tesseract_material",
   "pbrMetallicRoughness": {
    "baseColorFactor": [
     0.82,
     0.84,
     0.9,
     1.0
    ],
    "metallicFactor": 0.0,
    "roughnessFactor": 0.55
   },
   "doubleSided": true
  }
 ],
 "accessors": [
  {
   "bufferView": 0,
   "componentType": 5126,
   "count": 704,
   "type": "VEC3",
   "min": [
    -1.5795725584030151,
    -1.8456145524978638,
    -1.8456145524978638
   ],
   "max": [
    1.434234380722046,
    1.8456145524978638,
    1.8456145524978638
   ]
  },
  {
   "bufferView": 1,
   "componentType": 5126,
   "count": 704,
   "type": "VEC3"
  },
  {
   "bufferView": 2,
   "componentType": 5121,
   "normalized": true,
   "count": 704,
   "type": "VEC4"
  },
  {
   "bufferView": 3,
   "componentType": 5123,
   "count": 2496,
   "type": "SCALAR"
  }
 ],
 "bufferViews": [
  {
   "buffer": 0,
   "byteOffset": 0,
   "byteLength": 8448,
   "target": 34962
  },
  {
   "buffer": 0,
   "byteOffset": 8448,
   "byteLength": 8448,
   "target": 34962
  },
  {
   "buffer": 0,
   "byteOffset": 16896,
   "byteLength": 2816,
   "target": 34962
  },
  {
   "buffer": 0,
   "byteOffset": 19712,
   "byteLength": 4992,
   "target": 34963
  }
 ],
 "buffers": [
  {
   "byteLength": 24704,
   "uri": "data:application/octet-stream;base64,"
  }
 ]
}
