{"asset":{"version":"2.0","generator":"Baltor mesh_algorithms meshkit 1.0.0"},"scene":0,"scenes":[{"name":"scene","nodes":[0]}],"nodes":[{"name":"mobius_strip","mesh":0}],"meshes":[{"name":"mobius_strip","primitives":[{"attributes":{"POSITION":0,"NORMAL":1},"indices":2,"material":0,"mode":4}]}],"materials":[{"name":"mobius","pbrMetallicRoughness":{"baseColorFactor":[0.93,0.7,0.36,1.0],"metallicFactor":0.0,"roughnessFactor":0.6},"doubleSided":true}],"buffers":[{"byteLength":28800,"uri":"data:application/octet-stream;base64,"}],"bufferViews":[{"buffer":0,"byteOffset":0,"byteLength":10080,"target":34962},{"buffer":0,"byteOffset":10080,"byteLength":10080,"target":34962},{"buffer":0,"byteOffset":20160,"byteLength":8640,"target":34963}],"accessors":[{"bufferView":0,"componentType":5126,"count":840,"type":"VEC3","min":[-1.0075342655181885,-0.25,-1.1797245740890503],"max":[1.25,0.25,1.1797245740890503]},{"bufferView":1,"componentType":5126,"count":840,"type":"VEC3"},{"bufferView":2,"componentType":5123,"count":4320,"type":"SCALAR"}]}
