{"asset":{"version":"2.0","generator":"Baltor mesh_algorithms meshkit 1.0.0"},"scene":0,"scenes":[{"name":"scene","nodes":[0]}],"nodes":[{"name":"klein_bottle","mesh":0}],"meshes":[{"name":"klein_bottle","primitives":[{"attributes":{"POSITION":0,"NORMAL":1},"indices":2,"material":0,"mode":4}]}],"materials":[{"name":"klein","pbrMetallicRoughness":{"baseColorFactor":[0.56,0.74,0.88,1.0],"metallicFactor":0.0,"roughnessFactor":0.6},"doubleSided":true}],"buffers":[{"byteLength":69120,"uri":"data:application/octet-stream;base64,"}],"bufferViews":[{"buffer":0,"byteOffset":0,"byteLength":23040,"target":34962},{"buffer":0,"byteOffset":23040,"byteLength":23040,"target":34962},{"buffer":0,"byteOffset":46080,"byteLength":23040,"target":34963}],"accessors":[{"bufferView":0,"componentType":5126,"count":1920,"type":"VEC3","min":[-1.5088293552398682,-0.6123724579811096,-1.6123723983764648],"max":[1.5,0.6123724579811096,1.6123723983764648]},{"bufferView":1,"componentType":5126,"count":1920,"type":"VEC3"},{"bufferView":2,"componentType":5123,"count":11520,"type":"SCALAR"}]}
