{
 "accessors": [
  {
   "bufferView": 0,
   "componentType": 5126,
   "count": 96,
   "max": [
    0.25,
    0.25,
    0.15000000596046448
   ],
   "min": [
    -0.25,
    0.0,
    -0.15000000596046448
   ],
   "type": "VEC3"
  },
  {
   "bufferView": 1,
   "componentType": 5126,
   "count": 96,
   "type": "VEC3"
  },
  {
   "bufferView": 2,
   "componentType": 5126,
   "count": 96,
   "type": "VEC2"
  },
  {
   "bufferView": 3,
   "componentType": 5123,
   "count": 144,
   "type": "SCALAR"
  },
  {
   "bufferView": 4,
   "componentType": 5126,
   "count": 24,
   "max": [
    0.25,
    0.009999999776482582,
    0.15000000596046448
   ],
   "min": [
    -0.25,
    -0.009999999776482582,
    -0.15000000596046448
   ],
   "type": "VEC3"
  },
  {
   "bufferView": 5,
   "componentType": 5126,
   "count": 24,
   "type": "VEC3"
  },
  {
   "bufferView": 6,
   "componentType": 5126,
   "count": 24,
   "type": "VEC2"
  },
  {
   "bufferView": 7,
   "componentType": 5123,
   "count": 36,
   "type": "SCALAR"
  },
  {
   "bufferView": 8,
   "componentType": 5126,
   "count": 24,
   "max": [
    0.20000000298023224,
    0.03999999910593033,
    0.12999999523162842
   ],
   "min": [
    -0.20000000298023224,
    -0.03999999910593033,
    -0.11999999731779099
   ],
   "type": "VEC3"
  },
  {
   "bufferView": 9,
   "componentType": 5126,
   "count": 24,
   "type": "VEC3"
  },
  {
   "bufferView": 10,
   "componentType": 5126,
   "count": 24,
   "type": "VEC2"
  },
  {
   "bufferView": 11,
   "componentType": 5123,
   "count": 36,
   "type": "SCALAR"
  }
 ],
 "asset": {
  "generator": "asset_contracts fixture builder for articulation_manifest_godot_builder",
  "version": "2.0"
 },
 "bufferViews": [
  {
   "buffer": 0,
   "byteLength": 1152,
   "byteOffset": 0,
   "target": 34962
  },
  {
   "buffer": 0,
   "byteLength": 1152,
   "byteOffset": 1152,
   "target": 34962
  },
  {
   "buffer": 0,
   "byteLength": 768,
   "byteOffset": 2304,
   "target": 34962
  },
  {
   "buffer": 0,
   "byteLength": 288,
   "byteOffset": 3072,
   "target": 34963
  },
  {
   "buffer": 0,
   "byteLength": 288,
   "byteOffset": 3360,
   "target": 34962
  },
  {
   "buffer": 0,
   "byteLength": 288,
   "byteOffset": 3648,
   "target": 34962
  },
  {
   "buffer": 0,
   "byteLength": 192,
   "byteOffset": 3936,
   "target": 34962
  },
  {
   "buffer": 0,
   "byteLength": 72,
   "byteOffset": 4128,
   "target": 34963
  },
  {
   "buffer": 0,
   "byteLength": 288,
   "byteOffset": 4200,
   "target": 34962
  },
  {
   "buffer": 0,
   "byteLength": 288,
   "byteOffset": 4488,
   "target": 34962
  },
  {
   "buffer": 0,
   "byteLength": 192,
   "byteOffset": 4776,
   "target": 34962
  },
  {
   "buffer": 0,
   "byteLength": 72,
   "byteOffset": 4968,
   "target": 34963
  }
 ],
 "buffers": [
  {
   "byteLength": 5040,
   "uri": "data:application/octet-stream;base64,"
  }
 ],
 "materials": [
  {
   "name": "PaintedSteel",
   "pbrMetallicRoughness": {
    "baseColorFactor": [
     0.75,
     0.10000000149011612,
     0.10000000149011612,
     1.0
    ],
    "metallicFactor": 0.6,
    "roughnessFactor": 0.5
   }
  },
  {
   "name": "Plastic",
   "pbrMetallicRoughness": {
    "baseColorFactor": [
     0.15000000596046448,
     0.15000000596046448,
     0.15000000596046448,
     1.0
    ],
    "metallicFactor": 0.0,
    "roughnessFactor": 0.6
   }
  }
 ],
 "meshes": [
  {
   "name": "BoxMesh",
   "primitives": [
    {
     "attributes": {
      "NORMAL": 1,
      "POSITION": 0,
      "TEXCOORD_0": 2
     },
     "indices": 3,
     "material": 0
    }
   ]
  },
  {
   "name": "LidMesh",
   "primitives": [
    {
     "attributes": {
      "NORMAL": 5,
      "POSITION": 4,
      "TEXCOORD_0": 6
     },
     "indices": 7,
     "material": 0
    }
   ]
  },
  {
   "name": "TrayMesh",
   "primitives": [
    {
     "attributes": {
      "NORMAL": 9,
      "POSITION": 8,
      "TEXCOORD_0": 10
     },
     "indices": 11,
     "material": 1
    }
   ]
  }
 ],
 "nodes": [
  {
   "children": [
    1,
    2
   ],
   "mesh": 0,
   "name": "Box"
  },
  {
   "mesh": 1,
   "name": "Lid",
   "translation": [
    0.0,
    0.25999999046325684,
    0.0
   ]
  },
  {
   "mesh": 2,
   "name": "Tray",
   "translation": [
    0.0,
    0.07000000029802322,
    0.019999999552965164
   ]
  }
 ],
 "scene": 0,
 "scenes": [
  {
   "name": "Toolbox",
   "nodes": [
    0
   ]
  }
 ]
}
