{"asset":{"version":"2.0","generator":"Baltor mesh_algorithms meshkit 1.0.0"},"scene":0,"scenes":[{"name":"scene","nodes":[0,1]}],"nodes":[{"name":"catmull_rom","mesh":0},{"name":"controls","mesh":1}],"meshes":[{"name":"catmull_rom","primitives":[{"attributes":{"POSITION":0,"NORMAL":1},"indices":2,"material":0,"mode":4}]},{"name":"controls","primitives":[{"attributes":{"POSITION":3,"NORMAL":4},"indices":5,"material":1,"mode":4}]}],"materials":[{"name":"curve","pbrMetallicRoughness":{"baseColorFactor":[0.85,0.45,0.65,1.0],"metallicFactor":0.0,"roughnessFactor":0.6}},{"name":"control","pbrMetallicRoughness":{"baseColorFactor":[0.95,0.9,0.8,1.0],"metallicFactor":0.0,"roughnessFactor":0.6}}],"buffers":[{"byteLength":48192,"uri":"data:application/octet-stream;base64,"}],"bufferViews":[{"buffer":0,"byteOffset":0,"byteLength":15360,"target":34962},{"buffer":0,"byteOffset":15360,"byteLength":15360,"target":34962},{"buffer":0,"byteOffset":30720,"byteLength":15360,"target":34963},{"buffer":0,"byteOffset":46080,"byteLength":768,"target":34962},{"buffer":0,"byteOffset":46848,"byteLength":768,"target":34962},{"buffer":0,"byteOffset":47616,"byteLength":576,"target":34963}],"accessors":[{"bufferView":0,"componentType":5126,"count":1280,"type":"VEC3","min":[-1.7447140216827393,-0.5544131994247437,-1.3428657054901123],"max":[1.642798662185669,0.6521017551422119,1.4439753293991089]},{"bufferView":1,"componentType":5126,"count":1280,"type":"VEC3"},{"bufferView":2,"componentType":5123,"count":7680,"type":"SCALAR"},{"bufferView":3,"componentType":5126,"count":64,"type":"VEC3","min":[-1.7599999904632568,-0.5600000023841858,-1.3600000143051147],"max":[1.659999966621399,0.6600000262260437,1.4600000381469727]},{"bufferView":4,"componentType":5126,"count":64,"type":"VEC3"},{"bufferView":5,"componentType":5123,"count":288,"type":"SCALAR"}]}
