{"asset":{"version":"2.0","generator":"Baltor mesh_algorithms meshkit 1.0.0"},"scene":0,"scenes":[{"name":"scene","nodes":[0]}],"nodes":[{"name":"terrain","mesh":0}],"meshes":[{"name":"terrain","primitives":[{"attributes":{"POSITION":0,"NORMAL":1,"TEXCOORD_0":2,"COLOR_0":3},"indices":4,"material":0,"mode":4}]}],"materials":[{"name":"terrain","pbrMetallicRoughness":{"baseColorFactor":[1.0,1.0,1.0,1.0],"metallicFactor":0.0,"roughnessFactor":0.9},"doubleSided":true}],"buffers":[{"byteLength":79716,"uri":"data:application/octet-stream;base64,"}],"bufferViews":[{"buffer":0,"byteOffset":0,"byteLength":20172,"target":34962},{"buffer":0,"byteOffset":20172,"byteLength":20172,"target":34962},{"buffer":0,"byteOffset":40344,"byteLength":13448,"target":34962},{"buffer":0,"byteOffset":53792,"byteLength":6724,"target":34962},{"buffer":0,"byteOffset":60516,"byteLength":19200,"target":34963}],"accessors":[{"bufferView":0,"componentType":5126,"count":1681,"type":"VEC3","min":[-20.0,-3.312838554382324,-20.0],"max":[20.0,3.5059309005737305,20.0]},{"bufferView":1,"componentType":5126,"count":1681,"type":"VEC3"},{"bufferView":2,"componentType":5126,"count":1681,"type":"VEC2"},{"bufferView":3,"componentType":5121,"count":1681,"type":"VEC4","normalized":true},{"bufferView":4,"componentType":5123,"count":9600,"type":"SCALAR"}]}
