{"asset":{"version":"2.0","generator":"Baltor mesh_algorithms meshkit 1.0.0"},"scene":0,"scenes":[{"name":"scene","nodes":[0]}],"nodes":[{"name":"capsule","mesh":0}],"meshes":[{"name":"capsule","primitives":[{"attributes":{"POSITION":0,"NORMAL":1,"TEXCOORD_0":2},"indices":3,"material":0,"mode":4}]}],"materials":[{"name":"capsule","pbrMetallicRoughness":{"baseColorFactor":[0.66,0.74,0.9,1.0],"metallicFactor":0.0,"roughnessFactor":0.6},"doubleSided":true}],"buffers":[{"byteLength":25088,"uri":"data:application/octet-stream;base64,"}],"bufferViews":[{"buffer":0,"byteOffset":0,"byteLength":7104,"target":34962},{"buffer":0,"byteOffset":7104,"byteLength":7104,"target":34962},{"buffer":0,"byteOffset":14208,"byteLength":4736,"target":34962},{"buffer":0,"byteOffset":18944,"byteLength":6144,"target":34963}],"accessors":[{"bufferView":0,"componentType":5126,"count":592,"type":"VEC3","min":[-0.5,-1.0,-0.5],"max":[0.5,1.0,0.5]},{"bufferView":1,"componentType":5126,"count":592,"type":"VEC3"},{"bufferView":2,"componentType":5126,"count":592,"type":"VEC2"},{"bufferView":3,"componentType":5123,"count":3072,"type":"SCALAR"}]}
