{
 "asset": {
  "version": "2.0",
  "generator": "simplex_5cell.py"
 },
 "scene": 0,
 "scenes": [
  {
   "nodes": [
    0
   ]
  }
 ],
 "nodes": [
  {
   "name": "5cell",
   "mesh": 0
  }
 ],
 "meshes": [
  {
   "name": "5cell",
   "primitives": [
    {
     "attributes": {
      "POSITION": 0,
      "NORMAL": 1,
      "COLOR_0": 2
     },
     "mode": 4,
     "material": 0,
     "indices": 3
    }
   ]
  }
 ],
 "materials": [
  {
   "name": "5cell_material",
   "pbrMetallicRoughness": {
    "baseColorFactor": [
     0.82,
     0.84,
     0.9,
     1.0
    ],
    "metallicFactor": 0.0,
    "roughnessFactor": 0.55
   },
   "doubleSided": true
  }
 ],
 "accessors": [
  {
   "bufferView": 0,
   "componentType": 5126,
   "count": 48,
   "type": "VEC3",
   "min": [
    -0.3451044261455536,
    -0.37099024653434753,
    -0.35028979182243347
   ],
   "max": [
    0.31058046221733093,
    0.1902659684419632,
    0.2277519702911377
   ]
  },
  {
   "bufferView": 1,
   "componentType": 5126,
   "count": 48,
   "type": "VEC3"
  },
  {
   "bufferView": 2,
   "componentType": 5121,
   "normalized": true,
   "count": 48,
   "type": "VEC4"
  },
  {
   "bufferView": 3,
   "componentType": 5123,
   "count": 48,
   "type": "SCALAR"
  }
 ],
 "bufferViews": [
  {
   "buffer": 0,
   "byteOffset": 0,
   "byteLength": 576,
   "target": 34962
  },
  {
   "buffer": 0,
   "byteOffset": 576,
   "byteLength": 576,
   "target": 34962
  },
  {
   "buffer": 0,
   "byteOffset": 1152,
   "byteLength": 192,
   "target": 34962
  },
  {
   "buffer": 0,
   "byteOffset": 1344,
   "byteLength": 96,
   "target": 34963
  }
 ],
 "buffers": [
  {
   "byteLength": 1440,
   "uri": "data:application/octet-stream;base64,"
  }
 ]
}
