{"asset":{"version":"2.0","generator":"Baltor mesh_algorithms meshkit 1.0.0"},"scene":0,"scenes":[{"name":"scene","nodes":[0]}],"nodes":[{"name":"uv_sphere","mesh":0}],"meshes":[{"name":"uv_sphere","primitives":[{"attributes":{"POSITION":0,"NORMAL":1,"TEXCOORD_0":2},"indices":3,"material":0,"mode":4}]}],"materials":[{"name":"uv_sphere","pbrMetallicRoughness":{"baseColorFactor":[0.62,0.72,0.86,1.0],"metallicFactor":0.0,"roughnessFactor":0.6},"doubleSided":true}],"buffers":[{"byteLength":23648,"uri":"data:application/octet-stream;base64,"}],"bufferViews":[{"buffer":0,"byteOffset":0,"byteLength":6708,"target":34962},{"buffer":0,"byteOffset":6708,"byteLength":6708,"target":34962},{"buffer":0,"byteOffset":13416,"byteLength":4472,"target":34962},{"buffer":0,"byteOffset":17888,"byteLength":5760,"target":34963}],"accessors":[{"bufferView":0,"componentType":5126,"count":559,"type":"VEC3","min":[-1.0,-1.0,-1.0],"max":[1.0,1.0,1.0]},{"bufferView":1,"componentType":5126,"count":559,"type":"VEC3"},{"bufferView":2,"componentType":5126,"count":559,"type":"VEC2"},{"bufferView":3,"componentType":5123,"count":2880,"type":"SCALAR"}]}
