{"asset":{"version":"2.0","generator":"Baltor mesh_algorithms meshkit 1.0.0"},"scene":0,"scenes":[{"name":"scene","nodes":[0]}],"nodes":[{"name":"torus_cage","mesh":0}],"meshes":[{"name":"torus_cage","primitives":[{"attributes":{"POSITION":0,"NORMAL":1},"indices":2,"material":0,"mode":4}]}],"materials":[{"name":"catmull_clark","pbrMetallicRoughness":{"baseColorFactor":[0.85,0.62,0.42,1.0],"metallicFactor":0.0,"roughnessFactor":0.6}}],"buffers":[{"byteLength":36864,"uri":"data:application/octet-stream;base64,"}],"bufferViews":[{"buffer":0,"byteOffset":0,"byteLength":12288,"target":34962},{"buffer":0,"byteOffset":12288,"byteLength":12288,"target":34962},{"buffer":0,"byteOffset":24576,"byteLength":12288,"target":34963}],"accessors":[{"bufferView":0,"componentType":5126,"count":1024,"type":"VEC3","min":[-0.8689620494842529,-0.2933388352394104,-0.8689620494842529],"max":[0.8689620494842529,0.2933388352394104,0.8689620494842529]},{"bufferView":1,"componentType":5126,"count":1024,"type":"VEC3"},{"bufferView":2,"componentType":5123,"count":6144,"type":"SCALAR"}]}
