{"asset":{"version":"2.0","generator":"Baltor mesh_algorithms meshkit 1.0.0"},"scene":0,"scenes":[{"name":"scene","nodes":[0]}],"nodes":[{"name":"cube_sphere","mesh":0}],"meshes":[{"name":"cube_sphere","primitives":[{"attributes":{"POSITION":0,"NORMAL":1},"indices":2,"material":0,"mode":4}]}],"materials":[{"name":"cube_sphere","pbrMetallicRoughness":{"baseColorFactor":[0.86,0.78,0.55,1.0],"metallicFactor":0.0,"roughnessFactor":0.6}}],"buffers":[{"byteLength":31152,"uri":"data:application/octet-stream;base64,"}],"bufferViews":[{"buffer":0,"byteOffset":0,"byteLength":10392,"target":34962},{"buffer":0,"byteOffset":10392,"byteLength":10392,"target":34962},{"buffer":0,"byteOffset":20784,"byteLength":10368,"target":34963}],"accessors":[{"bufferView":0,"componentType":5126,"count":866,"type":"VEC3","min":[-1.0,-1.0,-1.0],"max":[1.0,1.0,1.0]},{"bufferView":1,"componentType":5126,"count":866,"type":"VEC3"},{"bufferView":2,"componentType":5123,"count":5184,"type":"SCALAR"}]}
