{
 "asset": {
  "version": "2.0",
  "generator": "rotor_bivector_algebra.py"
 },
 "scene": 0,
 "scenes": [
  {
   "nodes": [
    0,
    1
   ]
  }
 ],
 "nodes": [
  {
   "name": "torus_knot",
   "mesh": 0
  },
  {
   "name": "clifford_torus",
   "mesh": 1
  }
 ],
 "meshes": [
  {
   "name": "torus_knot",
   "primitives": [
    {
     "attributes": {
      "POSITION": 0,
      "NORMAL": 1,
      "COLOR_0": 2
     },
     "mode": 4,
     "material": 0,
     "indices": 3
    }
   ]
  },
  {
   "name": "clifford_torus",
   "primitives": [
    {
     "attributes": {
      "POSITION": 4,
      "NORMAL": 5
     },
     "mode": 4,
     "material": 1,
     "indices": 6
    }
   ]
  }
 ],
 "materials": [
  {
   "name": "torus_knot_material",
   "pbrMetallicRoughness": {
    "baseColorFactor": [
     0.82,
     0.84,
     0.9,
     1.0
    ],
    "metallicFactor": 0.0,
    "roughnessFactor": 0.55
   },
   "doubleSided": true
  },
  {
   "name": "clifford_torus_material",
   "pbrMetallicRoughness": {
    "baseColorFactor": [
     0.55,
     0.62,
     0.8,
     0.22
    ],
    "metallicFactor": 0.0,
    "roughnessFactor": 0.55
   },
   "doubleSided": true,
   "alphaMode": "BLEND"
  }
 ],
 "accessors": [
  {
   "bufferView": 0,
   "componentType": 5126,
   "count": 2160,
   "type": "VEC3",
   "min": [
    -2.465776205062866,
    -2.201422929763794,
    -1.0573986768722534
   ],
   "max": [
    1.4966539144515991,
    2.201422929763794,
    1.0573986768722534
   ]
  },
  {
   "bufferView": 1,
   "componentType": 5126,
   "count": 2160,
   "type": "VEC3"
  },
  {
   "bufferView": 2,
   "componentType": 5121,
   "normalized": true,
   "count": 2160,
   "type": "VEC4"
  },
  {
   "bufferView": 3,
   "componentType": 5123,
   "count": 6480,
   "type": "SCALAR"
  },
  {
   "bufferView": 4,
   "componentType": 5126,
   "count": 720,
   "type": "VEC3",
   "min": [
    -2.3287994861602783,
    -2.3287994861602783,
    -0.9930239319801331
   ],
   "max": [
    2.3287994861602783,
    2.3287994861602783,
    0.9930239319801331
   ]
  },
  {
   "bufferView": 5,
   "componentType": 5126,
   "count": 720,
   "type": "VEC3"
  },
  {
   "bufferView": 6,
   "componentType": 5123,
   "count": 4320,
   "type": "SCALAR"
  }
 ],
 "bufferViews": [
  {
   "buffer": 0,
   "byteOffset": 0,
   "byteLength": 25920,
   "target": 34962
  },
  {
   "buffer": 0,
   "byteOffset": 25920,
   "byteLength": 25920,
   "target": 34962
  },
  {
   "buffer": 0,
   "byteOffset": 51840,
   "byteLength": 8640,
   "target": 34962
  },
  {
   "buffer": 0,
   "byteOffset": 60480,
   "byteLength": 12960,
   "target": 34963
  },
  {
   "buffer": 0,
   "byteOffset": 73440,
   "byteLength": 8640,
   "target": 34962
  },
  {
   "buffer": 0,
   "byteOffset": 82080,
   "byteLength": 8640,
   "target": 34962
  },
  {
   "buffer": 0,
   "byteOffset": 90720,
   "byteLength": 8640,
   "target": 34963
  }
 ],
 "buffers": [
  {
   "byteLength": 99360,
   "uri": "data:application/octet-stream;base64,"
  }
 ]
}
