{
 "asset": {
  "version": "2.0",
  "generator": "hecatonicosachoron_120cell.py"
 },
 "scene": 0,
 "scenes": [
  {
   "nodes": [
    0,
    1
   ]
  }
 ],
 "nodes": [
  {
   "name": "cell_ring",
   "mesh": 0
  },
  {
   "name": "edges",
   "mesh": 1
  }
 ],
 "meshes": [
  {
   "name": "cell_ring",
   "primitives": [
    {
     "attributes": {
      "POSITION": 0,
      "NORMAL": 1,
      "COLOR_0": 2
     },
     "mode": 4,
     "material": 0,
     "indices": 3
    }
   ]
  },
  {
   "name": "edges",
   "primitives": [
    {
     "attributes": {
      "POSITION": 4,
      "COLOR_0": 5
     },
     "mode": 1,
     "material": 1,
     "indices": 6
    }
   ]
  }
 ],
 "materials": [
  {
   "name": "cell_ring_material",
   "pbrMetallicRoughness": {
    "baseColorFactor": [
     0.82,
     0.84,
     0.9,
     1.0
    ],
    "metallicFactor": 0.0,
    "roughnessFactor": 0.55
   },
   "doubleSided": true
  },
  {
   "name": "edges_material",
   "pbrMetallicRoughness": {
    "baseColorFactor": [
     0.82,
     0.84,
     0.9,
     1.0
    ],
    "metallicFactor": 0.0,
    "roughnessFactor": 0.55
   },
   "doubleSided": true,
   "extensions": {
    "KHR_materials_unlit": {}
   }
  }
 ],
 "extensionsUsed": [
  "KHR_materials_unlit"
 ],
 "accessors": [
  {
   "bufferView": 0,
   "componentType": 5126,
   "count": 1200,
   "type": "VEC3",
   "min": [
    -1.1087244749069214,
    -1.0678787231445312,
    -1.0940684080123901
   ],
   "max": [
    1.0636566877365112,
    0.9982591271400452,
    1.0940684080123901
   ]
  },
  {
   "bufferView": 1,
   "componentType": 5126,
   "count": 1200,
   "type": "VEC3"
  },
  {
   "bufferView": 2,
   "componentType": 5121,
   "normalized": true,
   "count": 1200,
   "type": "VEC4"
  },
  {
   "bufferView": 3,
   "componentType": 5123,
   "count": 2160,
   "type": "SCALAR"
  },
  {
   "bufferView": 4,
   "componentType": 5126,
   "count": 600,
   "type": "VEC3",
   "min": [
    -1.1225522756576538,
    -1.1050602197647095,
    -1.104897379875183
   ],
   "max": [
    1.079839825630188,
    1.1050602197647095,
    1.104897379875183
   ]
  },
  {
   "bufferView": 5,
   "componentType": 5121,
   "normalized": true,
   "count": 600,
   "type": "VEC4"
  },
  {
   "bufferView": 6,
   "componentType": 5123,
   "count": 2400,
   "type": "SCALAR"
  }
 ],
 "bufferViews": [
  {
   "buffer": 0,
   "byteOffset": 0,
   "byteLength": 14400,
   "target": 34962
  },
  {
   "buffer": 0,
   "byteOffset": 14400,
   "byteLength": 14400,
   "target": 34962
  },
  {
   "buffer": 0,
   "byteOffset": 28800,
   "byteLength": 4800,
   "target": 34962
  },
  {
   "buffer": 0,
   "byteOffset": 33600,
   "byteLength": 4320,
   "target": 34963
  },
  {
   "buffer": 0,
   "byteOffset": 37920,
   "byteLength": 7200,
   "target": 34962
  },
  {
   "buffer": 0,
   "byteOffset": 45120,
   "byteLength": 2400,
   "target": 34962
  },
  {
   "buffer": 0,
   "byteOffset": 47520,
   "byteLength": 4800,
   "target": 34963
  }
 ],
 "buffers": [
  {
   "byteLength": 52320,
   "uri": "data:application/octet-stream;base64,"
  }
 ]
}
