{"asset":{"version":"2.0","generator":"Baltor mesh_algorithms meshkit 1.0.0"},"scene":0,"scenes":[{"name":"scene","nodes":[0]}],"nodes":[{"name":"delaunay","mesh":0}],"meshes":[{"name":"delaunay","primitives":[{"attributes":{"POSITION":0,"NORMAL":1,"COLOR_0":2},"indices":3,"material":0,"mode":4}]}],"materials":[{"name":"delaunay","pbrMetallicRoughness":{"baseColorFactor":[1.0,1.0,1.0,1.0],"metallicFactor":0.0,"roughnessFactor":0.6},"doubleSided":true}],"buffers":[{"byteLength":27360,"uri":"data:application/octet-stream;base64,"}],"bufferViews":[{"buffer":0,"byteOffset":0,"byteLength":10944,"target":34962},{"buffer":0,"byteOffset":10944,"byteLength":10944,"target":34962},{"buffer":0,"byteOffset":21888,"byteLength":3648,"target":34962},{"buffer":0,"byteOffset":25536,"byteLength":1824,"target":34963}],"accessors":[{"bufferView":0,"componentType":5126,"count":912,"type":"VEC3","min":[0.0005449370364658535,0.0,-0.9993576407432556],"max":[0.9976562261581421,0.0,-0.011307205073535442]},{"bufferView":1,"componentType":5126,"count":912,"type":"VEC3"},{"bufferView":2,"componentType":5121,"count":912,"type":"VEC4","normalized":true},{"bufferView":3,"componentType":5123,"count":912,"type":"SCALAR"}]}
