{"asset":{"version":"2.0","generator":"Baltor mesh_algorithms meshkit 1.0.0"},"scene":0,"scenes":[{"name":"scene","nodes":[0]}],"nodes":[{"name":"screw_thread","mesh":0}],"meshes":[{"name":"screw_thread","primitives":[{"attributes":{"POSITION":0,"NORMAL":1},"indices":2,"material":0,"mode":4}]}],"materials":[{"name":"screw","pbrMetallicRoughness":{"baseColorFactor":[0.74,0.74,0.76,1.0],"metallicFactor":0.8,"roughnessFactor":0.35}}],"buffers":[{"byteLength":74856,"uri":"data:application/octet-stream;base64,"}],"bufferViews":[{"buffer":0,"byteOffset":0,"byteLength":24960,"target":34962},{"buffer":0,"byteOffset":24960,"byteLength":24960,"target":34962},{"buffer":0,"byteOffset":49920,"byteLength":24936,"target":34963}],"accessors":[{"bufferView":0,"componentType":5126,"count":2080,"type":"VEC3","min":[-0.20000000298023224,-0.4000000059604645,-0.20000000298023224],"max":[0.20000000298023224,0.4000000059604645,0.20000000298023224]},{"bufferView":1,"componentType":5126,"count":2080,"type":"VEC3"},{"bufferView":2,"componentType":5123,"count":12468,"type":"SCALAR"}]}
