{"asset":{"version":"2.0","generator":"Baltor mesh_algorithms meshkit 1.0.0"},"scene":0,"scenes":[{"name":"scene","nodes":[0]}],"nodes":[{"name":"torus","mesh":0}],"meshes":[{"name":"torus","primitives":[{"attributes":{"POSITION":0,"NORMAL":1,"TEXCOORD_0":2},"indices":3,"material":0,"mode":4}]}],"materials":[{"name":"torus","pbrMetallicRoughness":{"baseColorFactor":[0.84,0.56,0.48,1.0],"metallicFactor":0.0,"roughnessFactor":0.6},"doubleSided":true}],"buffers":[{"byteLength":53024,"uri":"data:application/octet-stream;base64,"}],"bufferViews":[{"buffer":0,"byteOffset":0,"byteLength":14700,"target":34962},{"buffer":0,"byteOffset":14700,"byteLength":14700,"target":34962},{"buffer":0,"byteOffset":29400,"byteLength":9800,"target":34962},{"buffer":0,"byteOffset":39200,"byteLength":13824,"target":34963}],"accessors":[{"bufferView":0,"componentType":5126,"count":1225,"type":"VEC3","min":[-1.350000023841858,-0.3499999940395355,-1.350000023841858],"max":[1.350000023841858,0.3499999940395355,1.350000023841858]},{"bufferView":1,"componentType":5126,"count":1225,"type":"VEC3"},{"bufferView":2,"componentType":5126,"count":1225,"type":"VEC2"},{"bufferView":3,"componentType":5123,"count":6912,"type":"SCALAR"}]}
