{"asset":{"version":"2.0","generator":"Baltor mesh_algorithms meshkit 1.0.0"},"scene":0,"scenes":[{"name":"scene","nodes":[0]}],"nodes":[{"name":"lathe","mesh":0}],"meshes":[{"name":"lathe","primitives":[{"attributes":{"POSITION":0,"NORMAL":1},"indices":2,"material":0,"mode":4}]}],"materials":[{"name":"lathe","pbrMetallicRoughness":{"baseColorFactor":[0.86,0.7,0.52,1.0],"metallicFactor":0.0,"roughnessFactor":0.6},"doubleSided":true}],"buffers":[{"byteLength":42936,"uri":"data:application/octet-stream;base64,"}],"bufferViews":[{"buffer":0,"byteOffset":0,"byteLength":14412,"target":34962},{"buffer":0,"byteOffset":14412,"byteLength":14412,"target":34962},{"buffer":0,"byteOffset":28824,"byteLength":14112,"target":34963}],"accessors":[{"bufferView":0,"componentType":5126,"count":1201,"type":"VEC3","min":[-0.5502713918685913,0.0,-0.5502713918685913],"max":[0.5502713918685913,1.600000023841858,0.5502713918685913]},{"bufferView":1,"componentType":5126,"count":1201,"type":"VEC3"},{"bufferView":2,"componentType":5123,"count":7056,"type":"SCALAR"}]}
