{"asset":{"version":"2.0","generator":"Baltor mesh_algorithms meshkit 1.0.0"},"scene":0,"scenes":[{"name":"scene","nodes":[0,1,2,3]}],"nodes":[{"name":"nurbs_circle","mesh":0},{"name":"conic_0_5","mesh":1},{"name":"conic_1","mesh":2},{"name":"conic_2","mesh":3}],"meshes":[{"name":"nurbs_circle","primitives":[{"attributes":{"POSITION":0,"NORMAL":1},"indices":2,"material":0,"mode":4}]},{"name":"conic_0_5","primitives":[{"attributes":{"POSITION":3,"NORMAL":4},"indices":5,"material":1,"mode":4}]},{"name":"conic_1","primitives":[{"attributes":{"POSITION":6,"NORMAL":7},"indices":8,"material":2,"mode":4}]},{"name":"conic_2","primitives":[{"attributes":{"POSITION":9,"NORMAL":10},"indices":11,"material":3,"mode":4}]}],"materials":[{"name":"circle","pbrMetallicRoughness":{"baseColorFactor":[0.4,0.75,0.55,1.0],"metallicFactor":0.0,"roughnessFactor":0.6}},{"name":"conic_0","pbrMetallicRoughness":{"baseColorFactor":[0.95,0.55,0.35,1.0],"metallicFactor":0.0,"roughnessFactor":0.6}},{"name":"conic_1","pbrMetallicRoughness":{"baseColorFactor":[0.95,0.85,0.4,1.0],"metallicFactor":0.0,"roughnessFactor":0.6}},{"name":"conic_2","pbrMetallicRoughness":{"baseColorFactor":[0.55,0.6,0.95,1.0],"metallicFactor":0.0,"roughnessFactor":0.6}}],"buffers":[{"byteLength":58680,"uri":"data:application/octet-stream;base64,"}],"bufferViews":[{"buffer":0,"byteOffset":0,"byteLength":5760,"target":34962},{"buffer":0,"byteOffset":5760,"byteLength":5760,"target":34962},{"buffer":0,"byteOffset":11520,"byteLength":5760,"target":34963},{"buffer":0,"byteOffset":17280,"byteLength":4608,"target":34962},{"buffer":0,"byteOffset":21888,"byteLength":4608,"target":34962},{"buffer":0,"byteOffset":26496,"byteLength":4584,"target":34963},{"buffer":0,"byteOffset":31080,"byteLength":4608,"target":34962},{"buffer":0,"byteOffset":35688,"byteLength":4608,"target":34962},{"buffer":0,"byteOffset":40296,"byteLength":4584,"target":34963},{"buffer":0,"byteOffset":44880,"byteLength":4608,"target":34962},{"buffer":0,"byteOffset":49488,"byteLength":4608,"target":34962},{"buffer":0,"byteOffset":54096,"byteLength":4584,"target":34963}],"accessors":[{"bufferView":0,"componentType":5126,"count":480,"type":"VEC3","min":[-1.0380423069000244,-0.03999999910593033,-1.0380423069000244],"max":[1.0380423069000244,0.03999999910593033,1.0380423069000244]},{"bufferView":1,"componentType":5126,"count":480,"type":"VEC3"},{"bufferView":2,"componentType":5123,"count":2880,"type":"SCALAR"},{"bufferView":3,"componentType":5126,"count":384,"type":"VEC3","min":[1.576191782951355,-0.029999999329447746,-1.018252968788147],"max":[1.8965038061141968,0.029999999329447746,1.018252968788147]},{"bufferView":4,"componentType":5126,"count":384,"type":"VEC3"},{"bufferView":5,"componentType":5123,"count":2292,"type":"SCALAR"},{"bufferView":6,"componentType":5126,"count":384,"type":"VEC3","min":[2.476379156112671,-0.029999999329447746,-1.018494725227356],"max":[2.929814577102661,0.029999999329447746,1.018494725227356]},{"bufferView":7,"componentType":5126,"count":384,"type":"VEC3"},{"bufferView":8,"componentType":5123,"count":2292,"type":"SCALAR"},{"bufferView":9,"componentType":5126,"count":384,"type":"VEC3","min":[3.3764755725860596,-0.029999999329447746,-1.0186171531677246],"max":[3.9631645679473877,0.029999999329447746,1.0186171531677246]},{"bufferView":10,"componentType":5126,"count":384,"type":"VEC3"},{"bufferView":11,"componentType":5123,"count":2292,"type":"SCALAR"}]}
