{"asset":{"version":"2.0","generator":"Baltor mesh_algorithms meshkit 1.0.0"},"scene":0,"scenes":[{"name":"scene","nodes":[0]}],"nodes":[{"name":"loft","mesh":0}],"meshes":[{"name":"loft","primitives":[{"attributes":{"POSITION":0,"NORMAL":1},"indices":2,"material":0,"mode":4}]}],"materials":[{"name":"loft","pbrMetallicRoughness":{"baseColorFactor":[0.5,0.72,0.62,1.0],"metallicFactor":0.0,"roughnessFactor":0.6}}],"buffers":[{"byteLength":12072,"uri":"data:application/octet-stream;base64,"}],"bufferViews":[{"buffer":0,"byteOffset":0,"byteLength":4032,"target":34962},{"buffer":0,"byteOffset":4032,"byteLength":4032,"target":34962},{"buffer":0,"byteOffset":8064,"byteLength":4008,"target":34963}],"accessors":[{"bufferView":0,"componentType":5126,"count":336,"type":"VEC3","min":[-0.44999998807907104,0.0,-0.44999998807907104],"max":[0.44999998807907104,1.649999976158142,0.44999998807907104]},{"bufferView":1,"componentType":5126,"count":336,"type":"VEC3"},{"bufferView":2,"componentType":5123,"count":2004,"type":"SCALAR"}]}
