{"asset":{"version":"2.0","generator":"Baltor mesh_algorithms meshkit 1.0.0"},"scene":0,"scenes":[{"name":"scene","nodes":[0]}],"nodes":[{"name":"coons_patch","mesh":0}],"meshes":[{"name":"coons_patch","primitives":[{"attributes":{"POSITION":0,"NORMAL":1,"COLOR_0":2},"indices":3,"material":0,"mode":4}]}],"materials":[{"name":"coons","pbrMetallicRoughness":{"baseColorFactor":[0.95,0.75,0.45,1.0],"metallicFactor":0.0,"roughnessFactor":0.6},"doubleSided":true}],"buffers":[{"byteLength":24412,"uri":"data:application/octet-stream;base64,"}],"bufferViews":[{"buffer":0,"byteOffset":0,"byteLength":7500,"target":34962},{"buffer":0,"byteOffset":7500,"byteLength":7500,"target":34962},{"buffer":0,"byteOffset":15000,"byteLength":2500,"target":34962},{"buffer":0,"byteOffset":17500,"byteLength":6912,"target":34963}],"accessors":[{"bufferView":0,"componentType":5126,"count":625,"type":"VEC3","min":[-1.0,-0.5,-1.0],"max":[1.0,0.5,1.0]},{"bufferView":1,"componentType":5126,"count":625,"type":"VEC3"},{"bufferView":2,"componentType":5121,"count":625,"type":"VEC4","normalized":true},{"bufferView":3,"componentType":5123,"count":3456,"type":"SCALAR"}]}
