{
 "asset": {
  "version": "2.0",
  "generator": "icositetrachoron_24cell.py"
 },
 "scene": 0,
 "scenes": [
  {
   "nodes": [
    0
   ]
  }
 ],
 "nodes": [
  {
   "name": "24cell",
   "mesh": 0
  }
 ],
 "meshes": [
  {
   "name": "24cell",
   "primitives": [
    {
     "attributes": {
      "POSITION": 0,
      "NORMAL": 1,
      "COLOR_0": 2
     },
     "mode": 4,
     "material": 0,
     "indices": 3
    }
   ]
  }
 ],
 "materials": [
  {
   "name": "24cell_material",
   "pbrMetallicRoughness": {
    "baseColorFactor": [
     0.82,
     0.84,
     0.9,
     1.0
    ],
    "metallicFactor": 0.0,
    "roughnessFactor": 0.55
   },
   "doubleSided": true
  }
 ],
 "accessors": [
  {
   "bufferView": 0,
   "componentType": 5126,
   "count": 1824,
   "type": "VEC3",
   "min": [
    -0.8366356492042542,
    -1.004469633102417,
    -1.004469633102417
   ],
   "max": [
    1.1188732385635376,
    1.004469633102417,
    1.004469633102417
   ]
  },
  {
   "bufferView": 1,
   "componentType": 5126,
   "count": 1824,
   "type": "VEC3"
  },
  {
   "bufferView": 2,
   "componentType": 5121,
   "normalized": true,
   "count": 1824,
   "type": "VEC4"
  },
  {
   "bufferView": 3,
   "componentType": 5123,
   "count": 6048,
   "type": "SCALAR"
  }
 ],
 "bufferViews": [
  {
   "buffer": 0,
   "byteOffset": 0,
   "byteLength": 21888,
   "target": 34962
  },
  {
   "buffer": 0,
   "byteOffset": 21888,
   "byteLength": 21888,
   "target": 34962
  },
  {
   "buffer": 0,
   "byteOffset": 43776,
   "byteLength": 7296,
   "target": 34962
  },
  {
   "buffer": 0,
   "byteOffset": 51072,
   "byteLength": 12096,
   "target": 34963
  }
 ],
 "buffers": [
  {
   "byteLength": 63168,
   "uri": "data:application/octet-stream;base64,"
  }
 ]
}
