{
 "asset": {
  "version": "2.0",
  "generator": "hopf_fibration.py"
 },
 "scene": 0,
 "scenes": [
  {
   "nodes": [
    0,
    1,
    2
   ]
  }
 ],
 "nodes": [
  {
   "name": "hopf_fibres",
   "mesh": 0
  },
  {
   "name": "base_sphere",
   "mesh": 1,
   "translation": [
    3.2767603807643386,
    0.0,
    0.0
   ]
  },
  {
   "name": "base_points",
   "mesh": 2,
   "translation": [
    3.2767603807643386,
    0.0,
    0.0
   ]
  }
 ],
 "meshes": [
  {
   "name": "hopf_fibres",
   "primitives": [
    {
     "attributes": {
      "POSITION": 0,
      "NORMAL": 1,
      "COLOR_0": 2
     },
     "mode": 4,
     "material": 0,
     "indices": 3
    }
   ]
  },
  {
   "name": "base_sphere",
   "primitives": [
    {
     "attributes": {
      "POSITION": 4,
      "NORMAL": 5
     },
     "mode": 4,
     "material": 1,
     "indices": 6
    }
   ]
  },
  {
   "name": "base_points",
   "primitives": [
    {
     "attributes": {
      "POSITION": 7,
      "NORMAL": 8,
      "COLOR_0": 9
     },
     "mode": 4,
     "material": 2,
     "indices": 10
    }
   ]
  }
 ],
 "materials": [
  {
   "name": "hopf_fibres_material",
   "pbrMetallicRoughness": {
    "baseColorFactor": [
     0.82,
     0.84,
     0.9,
     1.0
    ],
    "metallicFactor": 0.0,
    "roughnessFactor": 0.55
   },
   "doubleSided": true
  },
  {
   "name": "base_sphere_material",
   "pbrMetallicRoughness": {
    "baseColorFactor": [
     0.7,
     0.72,
     0.78,
     0.35
    ],
    "metallicFactor": 0.0,
    "roughnessFactor": 0.55
   },
   "doubleSided": true,
   "alphaMode": "BLEND"
  },
  {
   "name": "base_points_material",
   "pbrMetallicRoughness": {
    "baseColorFactor": [
     0.82,
     0.84,
     0.9,
     1.0
    ],
    "metallicFactor": 0.0,
    "roughnessFactor": 0.55
   },
   "doubleSided": true
  }
 ],
 "accessors": [
  {
   "bufferView": 0,
   "componentType": 5126,
   "count": 2880,
   "type": "VEC3",
   "min": [
    -0.8688444495201111,
    -2.184506893157959,
    -2.184506893157959
   ],
   "max": [
    0.8688444495201111,
    2.184506893157959,
    2.184506893157959
   ]
  },
  {
   "bufferView": 1,
   "componentType": 5126,
   "count": 2880,
   "type": "VEC3"
  },
  {
   "bufferView": 2,
   "componentType": 5121,
   "normalized": true,
   "count": 2880,
   "type": "VEC4"
  },
  {
   "bufferView": 3,
   "componentType": 5123,
   "count": 17280,
   "type": "SCALAR"
  },
  {
   "bufferView": 4,
   "componentType": 5126,
   "count": 162,
   "type": "VEC3",
   "min": [
    -0.8738027811050415,
    -0.8738027811050415,
    -0.8738027811050415
   ],
   "max": [
    0.8738027811050415,
    0.8738027811050415,
    0.8738027811050415
   ]
  },
  {
   "bufferView": 5,
   "componentType": 5126,
   "count": 162,
   "type": "VEC3"
  },
  {
   "bufferView": 6,
   "componentType": 5123,
   "count": 960,
   "type": "SCALAR"
  },
  {
   "bufferView": 7,
   "componentType": 5126,
   "count": 288,
   "type": "VEC3",
   "min": [
    -0.8905087113380432,
    -0.9618459343910217,
    -0.9618459343910217
   ],
   "max": [
    -0.0909065380692482,
    0.9618459343910217,
    0.9618459343910217
   ]
  },
  {
   "bufferView": 8,
   "componentType": 5126,
   "count": 288,
   "type": "VEC3"
  },
  {
   "bufferView": 9,
   "componentType": 5121,
   "normalized": true,
   "count": 288,
   "type": "VEC4"
  },
  {
   "bufferView": 10,
   "componentType": 5123,
   "count": 1440,
   "type": "SCALAR"
  }
 ],
 "bufferViews": [
  {
   "buffer": 0,
   "byteOffset": 0,
   "byteLength": 34560,
   "target": 34962
  },
  {
   "buffer": 0,
   "byteOffset": 34560,
   "byteLength": 34560,
   "target": 34962
  },
  {
   "buffer": 0,
   "byteOffset": 69120,
   "byteLength": 11520,
   "target": 34962
  },
  {
   "buffer": 0,
   "byteOffset": 80640,
   "byteLength": 34560,
   "target": 34963
  },
  {
   "buffer": 0,
   "byteOffset": 115200,
   "byteLength": 1944,
   "target": 34962
  },
  {
   "buffer": 0,
   "byteOffset": 117144,
   "byteLength": 1944,
   "target": 34962
  },
  {
   "buffer": 0,
   "byteOffset": 119088,
   "byteLength": 1920,
   "target": 34963
  },
  {
   "buffer": 0,
   "byteOffset": 121008,
   "byteLength": 3456,
   "target": 34962
  },
  {
   "buffer": 0,
   "byteOffset": 124464,
   "byteLength": 3456,
   "target": 34962
  },
  {
   "buffer": 0,
   "byteOffset": 127920,
   "byteLength": 1152,
   "target": 34962
  },
  {
   "buffer": 0,
   "byteOffset": 129072,
   "byteLength": 2880,
   "target": 34963
  }
 ],
 "buffers": [
  {
   "byteLength": 131952,
   "uri": "data:application/octet-stream;base64,"
  }
 ]
}
