{"asset":{"version":"2.0","generator":"Baltor mesh_algorithms meshkit 1.0.0"},"scene":0,"scenes":[{"name":"scene","nodes":[0]}],"nodes":[{"name":"offset_band","mesh":0}],"meshes":[{"name":"offset_band","primitives":[{"attributes":{"POSITION":0,"NORMAL":1},"indices":2,"material":0,"mode":4}]}],"materials":[{"name":"offset","pbrMetallicRoughness":{"baseColorFactor":[0.95,0.6,0.45,1.0],"metallicFactor":0.0,"roughnessFactor":0.6},"doubleSided":true}],"buffers":[{"byteLength":1560,"uri":"data:application/octet-stream;base64,"}],"bufferViews":[{"buffer":0,"byteOffset":0,"byteLength":624,"target":34962},{"buffer":0,"byteOffset":624,"byteLength":624,"target":34962},{"buffer":0,"byteOffset":1248,"byteLength":312,"target":34963}],"accessors":[{"bufferView":0,"componentType":5126,"count":52,"type":"VEC3","min":[-1.25,0.0,-1.149999976158142],"max":[1.4500000476837158,0.0,1.0499999523162842]},{"bufferView":1,"componentType":5126,"count":52,"type":"VEC3"},{"bufferView":2,"componentType":5123,"count":156,"type":"SCALAR"}]}
