{
 "asset": {
  "version": "2.0",
  "generator": "projection_comparison.py"
 },
 "scene": 0,
 "scenes": [
  {
   "nodes": [
    0,
    1,
    2
   ]
  }
 ],
 "nodes": [
  {
   "name": "perspective",
   "mesh": 0,
   "translation": [
    -5.2,
    0.0,
    0.0
   ]
  },
  {
   "name": "stereographic",
   "mesh": 1,
   "translation": [
    0.0,
    0.0,
    0.0
   ]
  },
  {
   "name": "orthographic",
   "mesh": 2,
   "translation": [
    5.2,
    0.0,
    0.0
   ]
  }
 ],
 "meshes": [
  {
   "name": "perspective",
   "primitives": [
    {
     "attributes": {
      "POSITION": 0,
      "NORMAL": 1,
      "COLOR_0": 2
     },
     "mode": 4,
     "material": 0,
     "indices": 3
    }
   ]
  },
  {
   "name": "stereographic",
   "primitives": [
    {
     "attributes": {
      "POSITION": 4,
      "NORMAL": 5,
      "COLOR_0": 6
     },
     "mode": 4,
     "material": 1,
     "indices": 7
    }
   ]
  },
  {
   "name": "orthographic",
   "primitives": [
    {
     "attributes": {
      "POSITION": 8,
      "NORMAL": 9,
      "COLOR_0": 10
     },
     "mode": 4,
     "material": 2,
     "indices": 11
    }
   ]
  }
 ],
 "materials": [
  {
   "name": "perspective_material",
   "pbrMetallicRoughness": {
    "baseColorFactor": [
     0.82,
     0.84,
     0.9,
     1.0
    ],
    "metallicFactor": 0.0,
    "roughnessFactor": 0.55
   },
   "doubleSided": true
  },
  {
   "name": "stereographic_material",
   "pbrMetallicRoughness": {
    "baseColorFactor": [
     0.82,
     0.84,
     0.9,
     1.0
    ],
    "metallicFactor": 0.0,
    "roughnessFactor": 0.55
   },
   "doubleSided": true
  },
  {
   "name": "orthographic_material",
   "pbrMetallicRoughness": {
    "baseColorFactor": [
     0.82,
     0.84,
     0.9,
     1.0
    ],
    "metallicFactor": 0.0,
    "roughnessFactor": 0.55
   },
   "doubleSided": true
  }
 ],
 "accessors": [
  {
   "bufferView": 0,
   "componentType": 5126,
   "count": 512,
   "type": "VEC3",
   "min": [
    -1.5467348098754883,
    -1.774249792098999,
    -1.9023481607437134
   ],
   "max": [
    1.3288700580596924,
    1.6703344583511353,
    1.4429044723510742
   ]
  },
  {
   "bufferView": 1,
   "componentType": 5126,
   "count": 512,
   "type": "VEC3"
  },
  {
   "bufferView": 2,
   "componentType": 5121,
   "normalized": true,
   "count": 512,
   "type": "VEC4"
  },
  {
   "bufferView": 3,
   "componentType": 5123,
   "count": 1920,
   "type": "SCALAR"
  },
  {
   "bufferView": 4,
   "componentType": 5126,
   "count": 2112,
   "type": "VEC3",
   "min": [
    -0.866197407245636,
    -1.7746628522872925,
    -1.4482510089874268
   ],
   "max": [
    1.324411153793335,
    1.9844586849212646,
    2.37119460105896
   ]
  },
  {
   "bufferView": 5,
   "componentType": 5126,
   "count": 2112,
   "type": "VEC3"
  },
  {
   "bufferView": 6,
   "componentType": 5121,
   "normalized": true,
   "count": 2112,
   "type": "VEC4"
  },
  {
   "bufferView": 7,
   "componentType": 5123,
   "count": 6720,
   "type": "SCALAR"
  },
  {
   "bufferView": 8,
   "componentType": 5126,
   "count": 512,
   "type": "VEC3",
   "min": [
    -1.4732685089111328,
    -1.398358941078186,
    -1.6429564952850342
   ],
   "max": [
    1.4732685089111328,
    1.398358941078186,
    1.6429564952850342
   ]
  },
  {
   "bufferView": 9,
   "componentType": 5126,
   "count": 512,
   "type": "VEC3"
  },
  {
   "bufferView": 10,
   "componentType": 5121,
   "normalized": true,
   "count": 512,
   "type": "VEC4"
  },
  {
   "bufferView": 11,
   "componentType": 5123,
   "count": 1920,
   "type": "SCALAR"
  }
 ],
 "bufferViews": [
  {
   "buffer": 0,
   "byteOffset": 0,
   "byteLength": 6144,
   "target": 34962
  },
  {
   "buffer": 0,
   "byteOffset": 6144,
   "byteLength": 6144,
   "target": 34962
  },
  {
   "buffer": 0,
   "byteOffset": 12288,
   "byteLength": 2048,
   "target": 34962
  },
  {
   "buffer": 0,
   "byteOffset": 14336,
   "byteLength": 3840,
   "target": 34963
  },
  {
   "buffer": 0,
   "byteOffset": 18176,
   "byteLength": 25344,
   "target": 34962
  },
  {
   "buffer": 0,
   "byteOffset": 43520,
   "byteLength": 25344,
   "target": 34962
  },
  {
   "buffer": 0,
   "byteOffset": 68864,
   "byteLength": 8448,
   "target": 34962
  },
  {
   "buffer": 0,
   "byteOffset": 77312,
   "byteLength": 13440,
   "target": 34963
  },
  {
   "buffer": 0,
   "byteOffset": 90752,
   "byteLength": 6144,
   "target": 34962
  },
  {
   "buffer": 0,
   "byteOffset": 96896,
   "byteLength": 6144,
   "target": 34962
  },
  {
   "buffer": 0,
   "byteOffset": 103040,
   "byteLength": 2048,
   "target": 34962
  },
  {
   "buffer": 0,
   "byteOffset": 105088,
   "byteLength": 3840,
   "target": 34963
  }
 ],
 "buffers": [
  {
   "byteLength": 108928,
   "uri": "data:application/octet-stream;base64,"
  }
 ]
}
