{"asset":{"version":"2.0","generator":"Baltor mesh_algorithms meshkit 1.0.0"},"scene":0,"scenes":[{"name":"scene","nodes":[0,1,2,3,4]}],"nodes":[{"name":"tetrahedron","mesh":0},{"name":"cube","mesh":1},{"name":"octahedron","mesh":2},{"name":"dodecahedron","mesh":3},{"name":"icosahedron","mesh":4}],"meshes":[{"name":"tetrahedron","primitives":[{"attributes":{"POSITION":0,"NORMAL":1},"indices":2,"material":0,"mode":4}]},{"name":"cube","primitives":[{"attributes":{"POSITION":3,"NORMAL":4},"indices":5,"material":1,"mode":4}]},{"name":"octahedron","primitives":[{"attributes":{"POSITION":6,"NORMAL":7},"indices":8,"material":2,"mode":4}]},{"name":"dodecahedron","primitives":[{"attributes":{"POSITION":9,"NORMAL":10},"indices":11,"material":3,"mode":4}]},{"name":"icosahedron","primitives":[{"attributes":{"POSITION":12,"NORMAL":13},"indices":14,"material":4,"mode":4}]}],"materials":[{"name":"tetrahedron","pbrMetallicRoughness":{"baseColorFactor":[0.9,0.48,0.42,1.0],"metallicFactor":0.0,"roughnessFactor":0.45},"doubleSided":true},{"name":"cube","pbrMetallicRoughness":{"baseColorFactor":[0.94,0.78,0.4,1.0],"metallicFactor":0.0,"roughnessFactor":0.45},"doubleSided":true},{"name":"octahedron","pbrMetallicRoughness":{"baseColorFactor":[0.52,0.8,0.52,1.0],"metallicFactor":0.0,"roughnessFactor":0.45},"doubleSided":true},{"name":"dodecahedron","pbrMetallicRoughness":{"baseColorFactor":[0.46,0.66,0.9,1.0],"metallicFactor":0.0,"roughnessFactor":0.45},"doubleSided":true},{"name":"icosahedron","pbrMetallicRoughness":{"baseColorFactor":[0.74,0.56,0.88,1.0],"metallicFactor":0.0,"roughnessFactor":0.45},"doubleSided":true}],"buffers":[{"byteLength":4800,"uri":"data:application/octet-stream;base64,"}],"bufferViews":[{"buffer":0,"byteOffset":0,"byteLength":144,"target":34962},{"buffer":0,"byteOffset":144,"byteLength":144,"target":34962},{"buffer":0,"byteOffset":288,"byteLength":24,"target":34963},{"buffer":0,"byteOffset":312,"byteLength":288,"target":34962},{"buffer":0,"byteOffset":600,"byteLength":288,"target":34962},{"buffer":0,"byteOffset":888,"byteLength":72,"target":34963},{"buffer":0,"byteOffset":960,"byteLength":288,"target":34962},{"buffer":0,"byteOffset":1248,"byteLength":288,"target":34962},{"buffer":0,"byteOffset":1536,"byteLength":48,"target":34963},{"buffer":0,"byteOffset":1584,"byteLength":720,"target":34962},{"buffer":0,"byteOffset":2304,"byteLength":720,"target":34962},{"buffer":0,"byteOffset":3024,"byteLength":216,"target":34963},{"buffer":0,"byteOffset":3240,"byteLength":720,"target":34962},{"buffer":0,"byteOffset":3960,"byteLength":720,"target":34962},{"buffer":0,"byteOffset":4680,"byteLength":120,"target":34963}],"accessors":[{"bufferView":0,"componentType":5126,"count":12,"type":"VEC3","min":[-4.75355339050293,-0.3535533845424652,-0.3535533845424652],"max":[-4.046446800231934,0.3535533845424652,0.3535533845424652]},{"bufferView":1,"componentType":5126,"count":12,"type":"VEC3"},{"bufferView":2,"componentType":5123,"count":12,"type":"SCALAR"},{"bufferView":3,"componentType":5126,"count":24,"type":"VEC3","min":[-2.700000047683716,-0.5,-0.5],"max":[-1.7000000476837158,0.5,0.5]},{"bufferView":4,"componentType":5126,"count":24,"type":"VEC3"},{"bufferView":5,"componentType":5123,"count":36,"type":"SCALAR"},{"bufferView":6,"componentType":5126,"count":24,"type":"VEC3","min":[-0.7071067690849304,-0.7071067690849304,-0.7071067690849304],"max":[0.7071067690849304,0.7071067690849304,0.7071067690849304]},{"bufferView":7,"componentType":5126,"count":24,"type":"VEC3"},{"bufferView":8,"componentType":5123,"count":24,"type":"SCALAR"},{"bufferView":9,"componentType":5126,"count":60,"type":"VEC3","min":[0.890982985496521,-1.3090169429779053,-1.3090169429779053],"max":[3.509016990661621,1.3090169429779053,1.3090169429779053]},{"bufferView":10,"componentType":5126,"count":60,"type":"VEC3"},{"bufferView":11,"componentType":5123,"count":108,"type":"SCALAR"},{"bufferView":12,"componentType":5126,"count":60,"type":"VEC3","min":[3.5909829139709473,-0.80901700258255,-0.80901700258255],"max":[5.209016799926758,0.80901700258255,0.80901700258255]},{"bufferView":13,"componentType":5126,"count":60,"type":"VEC3"},{"bufferView":14,"componentType":5123,"count":60,"type":"SCALAR"}]}
