{
 "asset": {
  "version": "2.0",
  "generator": "coxeter_plane_projection.py"
 },
 "scene": 0,
 "scenes": [
  {
   "nodes": [
    0,
    1
   ]
  }
 ],
 "nodes": [
  {
   "name": "edges",
   "mesh": 0
  },
  {
   "name": "vertices",
   "mesh": 1
  }
 ],
 "meshes": [
  {
   "name": "edges",
   "primitives": [
    {
     "attributes": {
      "POSITION": 0,
      "COLOR_0": 1
     },
     "mode": 1,
     "material": 0,
     "indices": 2
    }
   ]
  },
  {
   "name": "vertices",
   "primitives": [
    {
     "attributes": {
      "POSITION": 3,
      "NORMAL": 4,
      "COLOR_0": 5
     },
     "mode": 4,
     "material": 1,
     "indices": 6
    }
   ]
  }
 ],
 "materials": [
  {
   "name": "edges_material",
   "pbrMetallicRoughness": {
    "baseColorFactor": [
     0.82,
     0.84,
     0.9,
     1.0
    ],
    "metallicFactor": 0.0,
    "roughnessFactor": 0.55
   },
   "doubleSided": true,
   "extensions": {
    "KHR_materials_unlit": {}
   }
  },
  {
   "name": "vertices_material",
   "pbrMetallicRoughness": {
    "baseColorFactor": [
     0.82,
     0.84,
     0.9,
     1.0
    ],
    "metallicFactor": 0.0,
    "roughnessFactor": 0.55
   },
   "doubleSided": true
  }
 ],
 "extensionsUsed": [
  "KHR_materials_unlit"
 ],
 "accessors": [
  {
   "bufferView": 0,
   "componentType": 5126,
   "count": 120,
   "type": "VEC3",
   "min": [
    -0.9945219159126282,
    -1.0,
    0.0
   ],
   "max": [
    0.9945219159126282,
    1.0,
    0.0
   ]
  },
  {
   "bufferView": 1,
   "componentType": 5121,
   "normalized": true,
   "count": 120,
   "type": "VEC4"
  },
  {
   "bufferView": 2,
   "componentType": 5123,
   "count": 1440,
   "type": "SCALAR"
  },
  {
   "bufferView": 3,
   "componentType": 5126,
   "count": 1440,
   "type": "VEC3",
   "min": [
    -1.0081323385238647,
    -1.0136103630065918,
    -0.013610413298010826
   ],
   "max": [
    1.0081323385238647,
    1.0136103630065918,
    0.013610413298010826
   ]
  },
  {
   "bufferView": 4,
   "componentType": 5126,
   "count": 1440,
   "type": "VEC3"
  },
  {
   "bufferView": 5,
   "componentType": 5121,
   "normalized": true,
   "count": 1440,
   "type": "VEC4"
  },
  {
   "bufferView": 6,
   "componentType": 5123,
   "count": 7200,
   "type": "SCALAR"
  }
 ],
 "bufferViews": [
  {
   "buffer": 0,
   "byteOffset": 0,
   "byteLength": 1440,
   "target": 34962
  },
  {
   "buffer": 0,
   "byteOffset": 1440,
   "byteLength": 480,
   "target": 34962
  },
  {
   "buffer": 0,
   "byteOffset": 1920,
   "byteLength": 2880,
   "target": 34963
  },
  {
   "buffer": 0,
   "byteOffset": 4800,
   "byteLength": 17280,
   "target": 34962
  },
  {
   "buffer": 0,
   "byteOffset": 22080,
   "byteLength": 17280,
   "target": 34962
  },
  {
   "buffer": 0,
   "byteOffset": 39360,
   "byteLength": 5760,
   "target": 34962
  },
  {
   "buffer": 0,
   "byteOffset": 45120,
   "byteLength": 14400,
   "target": 34963
  }
 ],
 "buffers": [
  {
   "byteLength": 59520,
   "uri": "data:application/octet-stream;base64,"
  }
 ]
}
