{"asset":{"version":"2.0","generator":"Baltor mesh_algorithms meshkit 1.0.0"},"scene":0,"scenes":[{"name":"scene","nodes":[0]}],"nodes":[{"name":"coil_spring","mesh":0}],"meshes":[{"name":"coil_spring","primitives":[{"attributes":{"POSITION":0,"NORMAL":1},"indices":2,"material":0,"mode":4}]}],"materials":[{"name":"spring","pbrMetallicRoughness":{"baseColorFactor":[0.72,0.74,0.78,1.0],"metallicFactor":0.8,"roughnessFactor":0.35},"doubleSided":true}],"buffers":[{"byteLength":78576,"uri":"data:application/octet-stream;base64,"}],"bufferViews":[{"buffer":0,"byteOffset":0,"byteLength":26280,"target":34962},{"buffer":0,"byteOffset":26280,"byteLength":26280,"target":34962},{"buffer":0,"byteOffset":52560,"byteLength":26016,"target":34963}],"accessors":[{"bufferView":0,"componentType":5126,"count":2190,"type":"VEC3","min":[-0.5499972105026245,-0.7974029779434204,-0.5499992966651917],"max":[0.550000011920929,0.7991808652877808,0.5499936938285828]},{"bufferView":1,"componentType":5126,"count":2190,"type":"VEC3"},{"bufferView":2,"componentType":5123,"count":13008,"type":"SCALAR"}]}
