{"asset":{"version":"2.0","generator":"Baltor mesh_algorithms meshkit 1.0.0"},"scene":0,"scenes":[{"name":"scene","nodes":[0]}],"nodes":[{"name":"conway_tI","mesh":0}],"meshes":[{"name":"conway_tI","primitives":[{"attributes":{"POSITION":0,"NORMAL":1,"COLOR_0":2},"indices":3,"material":0,"mode":4}]}],"materials":[{"name":"conway","pbrMetallicRoughness":{"baseColorFactor":[1.0,1.0,1.0,1.0],"metallicFactor":0.0,"roughnessFactor":0.5},"doubleSided":true}],"buffers":[{"byteLength":5736,"uri":"data:application/octet-stream;base64,"}],"bufferViews":[{"buffer":0,"byteOffset":0,"byteLength":2160,"target":34962},{"buffer":0,"byteOffset":2160,"byteLength":2160,"target":34962},{"buffer":0,"byteOffset":4320,"byteLength":720,"target":34962},{"buffer":0,"byteOffset":5040,"byteLength":696,"target":34963}],"accessors":[{"bufferView":0,"componentType":5126,"count":180,"type":"VEC3","min":[-0.9818152785301208,-0.9818152785301208,-0.9818152785301208],"max":[0.9818152785301208,0.9818152785301208,0.9818152785301208]},{"bufferView":1,"componentType":5126,"count":180,"type":"VEC3"},{"bufferView":2,"componentType":5121,"count":180,"type":"VEC4","normalized":true},{"bufferView":3,"componentType":5123,"count":348,"type":"SCALAR"}]}
