{
 "asset": {
  "version": "2.0",
  "generator": "wythoff_uniform_polytopes.py"
 },
 "scene": 0,
 "scenes": [
  {
   "nodes": [
    0
   ]
  }
 ],
 "nodes": [
  {
   "name": "truncated_tesseract",
   "mesh": 0
  }
 ],
 "meshes": [
  {
   "name": "truncated_tesseract",
   "primitives": [
    {
     "attributes": {
      "POSITION": 0,
      "NORMAL": 1,
      "COLOR_0": 2
     },
     "mode": 4,
     "material": 0,
     "indices": 3
    }
   ]
  }
 ],
 "materials": [
  {
   "name": "truncated_tesseract_material",
   "pbrMetallicRoughness": {
    "baseColorFactor": [
     0.82,
     0.84,
     0.9,
     1.0
    ],
    "metallicFactor": 0.0,
    "roughnessFactor": 0.55
   },
   "doubleSided": true
  }
 ],
 "accessors": [
  {
   "bufferView": 0,
   "componentType": 5126,
   "count": 168,
   "type": "VEC3",
   "min": [
    -1.664702296257019,
    -1.9084064960479736,
    -1.9084064960479736
   ],
   "max": [
    1.2269686460494995,
    1.9084064960479736,
    1.9084064960479736
   ]
  },
  {
   "bufferView": 1,
   "componentType": 5126,
   "count": 168,
   "type": "VEC3"
  },
  {
   "bufferView": 2,
   "componentType": 5121,
   "normalized": true,
   "count": 168,
   "type": "VEC4"
  },
  {
   "bufferView": 3,
   "componentType": 5123,
   "count": 228,
   "type": "SCALAR"
  }
 ],
 "bufferViews": [
  {
   "buffer": 0,
   "byteOffset": 0,
   "byteLength": 2016,
   "target": 34962
  },
  {
   "buffer": 0,
   "byteOffset": 2016,
   "byteLength": 2016,
   "target": 34962
  },
  {
   "buffer": 0,
   "byteOffset": 4032,
   "byteLength": 672,
   "target": 34962
  },
  {
   "buffer": 0,
   "byteOffset": 4704,
   "byteLength": 456,
   "target": 34963
  }
 ],
 "buffers": [
  {
   "byteLength": 5160,
   "uri": "data:application/octet-stream;base64,"
  }
 ]
}
