{"asset":{"version":"2.0","generator":"Baltor mesh_algorithms meshkit 1.0.0"},"scene":0,"scenes":[{"name":"scene","nodes":[0]}],"nodes":[{"name":"convex_hull","mesh":0}],"meshes":[{"name":"convex_hull","primitives":[{"attributes":{"POSITION":0,"NORMAL":1},"indices":2,"material":0,"mode":4}]}],"materials":[{"name":"convex_hull","pbrMetallicRoughness":{"baseColorFactor":[0.55,0.78,0.74,1.0],"metallicFactor":0.0,"roughnessFactor":0.6},"doubleSided":true}],"buffers":[{"byteLength":11232,"uri":"data:application/octet-stream;base64,"}],"bufferViews":[{"buffer":0,"byteOffset":0,"byteLength":5184,"target":34962},{"buffer":0,"byteOffset":5184,"byteLength":5184,"target":34962},{"buffer":0,"byteOffset":10368,"byteLength":864,"target":34963}],"accessors":[{"bufferView":0,"componentType":5126,"count":432,"type":"VEC3","min":[-0.9798357486724854,-0.9768387079238892,-0.947338879108429],"max":[0.9744504690170288,0.7921799421310425,0.9317073225975037]},{"bufferView":1,"componentType":5126,"count":432,"type":"VEC3"},{"bufferView":2,"componentType":5123,"count":432,"type":"SCALAR"}]}
