{
 "asset": {
  "version": "2.0",
  "generator": "clifford_torus.py"
 },
 "scene": 0,
 "scenes": [
  {
   "nodes": [
    0
   ]
  }
 ],
 "nodes": [
  {
   "name": "clifford_torus",
   "mesh": 0
  }
 ],
 "meshes": [
  {
   "name": "clifford_torus",
   "primitives": [
    {
     "attributes": {
      "POSITION": 0,
      "NORMAL": 1,
      "COLOR_0": 2
     },
     "mode": 4,
     "material": 0,
     "indices": 3,
     "targets": [
      {
       "POSITION": 4,
       "NORMAL": 5
      },
      {
       "POSITION": 6,
       "NORMAL": 7
      },
      {
       "POSITION": 8,
       "NORMAL": 9
      },
      {
       "POSITION": 10,
       "NORMAL": 11
      },
      {
       "POSITION": 12,
       "NORMAL": 13
      },
      {
       "POSITION": 14,
       "NORMAL": 15
      },
      {
       "POSITION": 16,
       "NORMAL": 17
      },
      {
       "POSITION": 18,
       "NORMAL": 19
      },
      {
       "POSITION": 20,
       "NORMAL": 21
      },
      {
       "POSITION": 22,
       "NORMAL": 23
      },
      {
       "POSITION": 24,
       "NORMAL": 25
      },
      {
       "POSITION": 26,
       "NORMAL": 27
      },
      {
       "POSITION": 28,
       "NORMAL": 29
      },
      {
       "POSITION": 30,
       "NORMAL": 31
      },
      {
       "POSITION": 32,
       "NORMAL": 33
      },
      {
       "POSITION": 34,
       "NORMAL": 35
      }
     ]
    }
   ],
   "weights": [
    0.0,
    0.0,
    0.0,
    0.0,
    0.0,
    0.0,
    0.0,
    0.0,
    0.0,
    0.0,
    0.0,
    0.0,
    0.0,
    0.0,
    0.0,
    0.0
   ]
  }
 ],
 "materials": [
  {
   "name": "clifford_torus_material",
   "pbrMetallicRoughness": {
    "baseColorFactor": [
     0.82,
     0.84,
     0.9,
     1.0
    ],
    "metallicFactor": 0.0,
    "roughnessFactor": 0.55
   },
   "doubleSided": true
  }
 ],
 "animations": [
  {
   "name": "rotate_xz",
   "samplers": [
    {
     "input": 37,
     "output": 36,
     "interpolation": "LINEAR"
    }
   ],
   "channels": [
    {
     "sampler": 0,
     "target": {
      "node": 0,
      "path": "weights"
     }
    }
   ]
  }
 ],
 "accessors": [
  {
   "bufferView": 0,
   "componentType": 5126,
   "count": 240,
   "type": "VEC3",
   "min": [
    -2.15909481048584,
    -2.15909481048584,
    -0.9789318442344666
   ],
   "max": [
    2.15909481048584,
    2.15909481048584,
    0.9789318442344666
   ]
  },
  {
   "bufferView": 1,
   "componentType": 5126,
   "count": 240,
   "type": "VEC3"
  },
  {
   "bufferView": 2,
   "componentType": 5121,
   "normalized": true,
   "count": 240,
   "type": "VEC4"
  },
  {
   "bufferView": 3,
   "componentType": 5123,
   "count": 1440,
   "type": "SCALAR"
  },
  {
   "bufferView": 4,
   "componentType": 5126,
   "count": 240,
   "type": "VEC3",
   "min": [
    -0.4667287766933441,
    0.0,
    -0.8770371675491333
   ],
   "max": [
    0.4667287766933441,
    0.0,
    0.8770371675491333
   ]
  },
  {
   "bufferView": 5,
   "componentType": 5126,
   "count": 240,
   "type": "VEC3"
  },
  {
   "bufferView": 6,
   "componentType": 5126,
   "count": 240,
   "type": "VEC3",
   "min": [
    -1.1041637659072876,
    0.0,
    -1.72212815284729
   ],
   "max": [
    1.1041637659072876,
    0.0,
    1.72212815284729
   ]
  },
  {
   "bufferView": 7,
   "componentType": 5126,
   "count": 240,
   "type": "VEC3"
  },
  {
   "bufferView": 8,
   "componentType": 5126,
   "count": 240,
   "type": "VEC3",
   "min": [
    -1.9492546319961548,
    0.0,
    -2.4066152572631836
   ],
   "max": [
    1.9492546319961548,
    0.0,
    2.4066152572631836
   ]
  },
  {
   "bufferView": 9,
   "componentType": 5126,
   "count": 240,
   "type": "VEC3"
  },
  {
   "bufferView": 10,
   "componentType": 5126,
   "count": 240,
   "type": "VEC3",
   "min": [
    -2.826291799545288,
    0.0,
    -2.826291799545288
   ],
   "max": [
    2.826291799545288,
    0.0,
    2.826291799545288
   ]
  },
  {
   "bufferView": 11,
   "componentType": 5126,
   "count": 240,
   "type": "VEC3"
  },
  {
   "bufferView": 12,
   "componentType": 5126,
   "count": 240,
   "type": "VEC3",
   "min": [
    -3.6017544269561768,
    0.0,
    -2.9172658920288086
   ],
   "max": [
    3.6017544269561768,
    0.0,
    2.9172658920288086
   ]
  },
  {
   "bufferView": 13,
   "componentType": 5126,
   "count": 240,
   "type": "VEC3"
  },
  {
   "bufferView": 14,
   "componentType": 5126,
   "count": 240,
   "type": "VEC3",
   "min": [
    -4.157585144042969,
    0.0,
    -2.665687084197998
   ],
   "max": [
    4.157585144042969,
    0.0,
    2.665687084197998
   ]
  },
  {
   "bufferView": 15,
   "componentType": 5126,
   "count": 240,
   "type": "VEC3"
  },
  {
   "bufferView": 16,
   "componentType": 5126,
   "count": 240,
   "type": "VEC3",
   "min": [
    -4.409163475036621,
    0.0,
    -2.3464040756225586
   ],
   "max": [
    4.409163475036621,
    0.0,
    2.3464040756225586
   ]
  },
  {
   "bufferView": 17,
   "componentType": 5126,
   "count": 240,
   "type": "VEC3"
  },
  {
   "bufferView": 18,
   "componentType": 5126,
   "count": 240,
   "type": "VEC3",
   "min": [
    -4.31818962097168,
    0.0,
    -1.957863688468933
   ],
   "max": [
    4.31818962097168,
    0.0,
    1.957863688468933
   ]
  },
  {
   "bufferView": 19,
   "componentType": 5126,
   "count": 240,
   "type": "VEC3"
  },
  {
   "bufferView": 20,
   "componentType": 5126,
   "count": 240,
   "type": "VEC3",
   "min": [
    -4.409163475036621,
    0.0,
    -2.3464040756225586
   ],
   "max": [
    4.409163475036621,
    0.0,
    2.3464040756225586
   ]
  },
  {
   "bufferView": 21,
   "componentType": 5126,
   "count": 240,
   "type": "VEC3"
  },
  {
   "bufferView": 22,
   "componentType": 5126,
   "count": 240,
   "type": "VEC3",
   "min": [
    -4.157585144042969,
    0.0,
    -2.665687084197998
   ],
   "max": [
    4.157585144042969,
    0.0,
    2.665687084197998
   ]
  },
  {
   "bufferView": 23,
   "componentType": 5126,
   "count": 240,
   "type": "VEC3"
  },
  {
   "bufferView": 24,
   "componentType": 5126,
   "count": 240,
   "type": "VEC3",
   "min": [
    -3.6017544269561768,
    0.0,
    -2.9172658920288086
   ],
   "max": [
    3.6017544269561768,
    0.0,
    2.9172658920288086
   ]
  },
  {
   "bufferView": 25,
   "componentType": 5126,
   "count": 240,
   "type": "VEC3"
  },
  {
   "bufferView": 26,
   "componentType": 5126,
   "count": 240,
   "type": "VEC3",
   "min": [
    -2.826291799545288,
    0.0,
    -2.826291799545288
   ],
   "max": [
    2.826291799545288,
    0.0,
    2.826291799545288
   ]
  },
  {
   "bufferView": 27,
   "componentType": 5126,
   "count": 240,
   "type": "VEC3"
  },
  {
   "bufferView": 28,
   "componentType": 5126,
   "count": 240,
   "type": "VEC3",
   "min": [
    -1.9492546319961548,
    0.0,
    -2.4066152572631836
   ],
   "max": [
    1.9492546319961548,
    0.0,
    2.4066152572631836
   ]
  },
  {
   "bufferView": 29,
   "componentType": 5126,
   "count": 240,
   "type": "VEC3"
  },
  {
   "bufferView": 30,
   "componentType": 5126,
   "count": 240,
   "type": "VEC3",
   "min": [
    -1.1041637659072876,
    0.0,
    -1.72212815284729
   ],
   "max": [
    1.1041637659072876,
    0.0,
    1.72212815284729
   ]
  },
  {
   "bufferView": 31,
   "componentType": 5126,
   "count": 240,
   "type": "VEC3"
  },
  {
   "bufferView": 32,
   "componentType": 5126,
   "count": 240,
   "type": "VEC3",
   "min": [
    -0.4667287766933441,
    0.0,
    -0.8770371675491333
   ],
   "max": [
    0.4667287766933441,
    0.0,
    0.8770371675491333
   ]
  },
  {
   "bufferView": 33,
   "componentType": 5126,
   "count": 240,
   "type": "VEC3"
  },
  {
   "bufferView": 34,
   "componentType": 5126,
   "count": 240,
   "type": "VEC3",
   "min": [
    -3.3306690738754696e-16,
    0.0,
    -5.551115123125783e-16
   ],
   "max": [
    3.3306690738754696e-16,
    0.0,
    4.440892098500626e-16
   ]
  },
  {
   "bufferView": 35,
   "componentType": 5126,
   "count": 240,
   "type": "VEC3"
  },
  {
   "bufferView": 36,
   "componentType": 5126,
   "count": 272,
   "type": "SCALAR"
  },
  {
   "bufferView": 37,
   "componentType": 5126,
   "count": 17,
   "type": "SCALAR",
   "min": [
    0.0
   ],
   "max": [
    8.0
   ]
  }
 ],
 "bufferViews": [
  {
   "buffer": 0,
   "byteOffset": 0,
   "byteLength": 2880,
   "target": 34962
  },
  {
   "buffer": 0,
   "byteOffset": 2880,
   "byteLength": 2880,
   "target": 34962
  },
  {
   "buffer": 0,
   "byteOffset": 5760,
   "byteLength": 960,
   "target": 34962
  },
  {
   "buffer": 0,
   "byteOffset": 6720,
   "byteLength": 2880,
   "target": 34963
  },
  {
   "buffer": 0,
   "byteOffset": 9600,
   "byteLength": 2880,
   "target": 34962
  },
  {
   "buffer": 0,
   "byteOffset": 12480,
   "byteLength": 2880,
   "target": 34962
  },
  {
   "buffer": 0,
   "byteOffset": 15360,
   "byteLength": 2880,
   "target": 34962
  },
  {
   "buffer": 0,
   "byteOffset": 18240,
   "byteLength": 2880,
   "target": 34962
  },
  {
   "buffer": 0,
   "byteOffset": 21120,
   "byteLength": 2880,
   "target": 34962
  },
  {
   "buffer": 0,
   "byteOffset": 24000,
   "byteLength": 2880,
   "target": 34962
  },
  {
   "buffer": 0,
   "byteOffset": 26880,
   "byteLength": 2880,
   "target": 34962
  },
  {
   "buffer": 0,
   "byteOffset": 29760,
   "byteLength": 2880,
   "target": 34962
  },
  {
   "buffer": 0,
   "byteOffset": 32640,
   "byteLength": 2880,
   "target": 34962
  },
  {
   "buffer": 0,
   "byteOffset": 35520,
   "byteLength": 2880,
   "target": 34962
  },
  {
   "buffer": 0,
   "byteOffset": 38400,
   "byteLength": 2880,
   "target": 34962
  },
  {
   "buffer": 0,
   "byteOffset": 41280,
   "byteLength": 2880,
   "target": 34962
  },
  {
   "buffer": 0,
   "byteOffset": 44160,
   "byteLength": 2880,
   "target": 34962
  },
  {
   "buffer": 0,
   "byteOffset": 47040,
   "byteLength": 2880,
   "target": 34962
  },
  {
   "buffer": 0,
   "byteOffset": 49920,
   "byteLength": 2880,
   "target": 34962
  },
  {
   "buffer": 0,
   "byteOffset": 52800,
   "byteLength": 2880,
   "target": 34962
  },
  {
   "buffer": 0,
   "byteOffset": 55680,
   "byteLength": 2880,
   "target": 34962
  },
  {
   "buffer": 0,
   "byteOffset": 58560,
   "byteLength": 2880,
   "target": 34962
  },
  {
   "buffer": 0,
   "byteOffset": 61440,
   "byteLength": 2880,
   "target": 34962
  },
  {
   "buffer": 0,
   "byteOffset": 64320,
   "byteLength": 2880,
   "target": 34962
  },
  {
   "buffer": 0,
   "byteOffset": 67200,
   "byteLength": 2880,
   "target": 34962
  },
  {
   "buffer": 0,
   "byteOffset": 70080,
   "byteLength": 2880,
   "target": 34962
  },
  {
   "buffer": 0,
   "byteOffset": 72960,
   "byteLength": 2880,
   "target": 34962
  },
  {
   "buffer": 0,
   "byteOffset": 75840,
   "byteLength": 2880,
   "target": 34962
  },
  {
   "buffer": 0,
   "byteOffset": 78720,
   "byteLength": 2880,
   "target": 34962
  },
  {
   "buffer": 0,
   "byteOffset": 81600,
   "byteLength": 2880,
   "target": 34962
  },
  {
   "buffer": 0,
   "byteOffset": 84480,
   "byteLength": 2880,
   "target": 34962
  },
  {
   "buffer": 0,
   "byteOffset": 87360,
   "byteLength": 2880,
   "target": 34962
  },
  {
   "buffer": 0,
   "byteOffset": 90240,
   "byteLength": 2880,
   "target": 34962
  },
  {
   "buffer": 0,
   "byteOffset": 93120,
   "byteLength": 2880,
   "target": 34962
  },
  {
   "buffer": 0,
   "byteOffset": 96000,
   "byteLength": 2880,
   "target": 34962
  },
  {
   "buffer": 0,
   "byteOffset": 98880,
   "byteLength": 2880,
   "target": 34962
  },
  {
   "buffer": 0,
   "byteOffset": 101760,
   "byteLength": 1088
  },
  {
   "buffer": 0,
   "byteOffset": 102848,
   "byteLength": 68
  }
 ],
 "buffers": [
  {
   "byteLength": 102916,
   "uri": "data:application/octet-stream;base64,"
  }
 ]
}
