{"asset":{"version":"2.0","generator":"Baltor mesh_algorithms meshkit 1.0.0"},"scene":0,"scenes":[{"name":"scene","nodes":[0,1]}],"nodes":[{"name":"chaikin_plate","mesh":0},{"name":"control_polygon","mesh":1}],"meshes":[{"name":"chaikin_plate","primitives":[{"attributes":{"POSITION":0,"NORMAL":1},"indices":2,"material":0,"mode":4}]},{"name":"control_polygon","primitives":[{"attributes":{"POSITION":3,"NORMAL":4},"indices":5,"material":1,"mode":4}]}],"materials":[{"name":"chaikin","pbrMetallicRoughness":{"baseColorFactor":[0.62,0.7,0.95,1.0],"metallicFactor":0.0,"roughnessFactor":0.6},"doubleSided":true},{"name":"control","pbrMetallicRoughness":{"baseColorFactor":[0.95,0.85,0.5,1.0],"metallicFactor":0.0,"roughnessFactor":0.6}}],"buffers":[{"byteLength":6948,"uri":"data:application/octet-stream;base64,"}],"bufferViews":[{"buffer":0,"byteOffset":0,"byteLength":1920,"target":34962},{"buffer":0,"byteOffset":1920,"byteLength":1920,"target":34962},{"buffer":0,"byteOffset":3840,"byteLength":948,"target":34963},{"buffer":0,"byteOffset":4788,"byteLength":720,"target":34962},{"buffer":0,"byteOffset":5508,"byteLength":720,"target":34962},{"buffer":0,"byteOffset":6228,"byteLength":720,"target":34963}],"accessors":[{"bufferView":0,"componentType":5126,"count":160,"type":"VEC3","min":[-1.203125,0.0,-1.1749999523162842],"max":[1.203125,0.0,1.0125000476837158]},{"bufferView":1,"componentType":5126,"count":160,"type":"VEC3"},{"bufferView":2,"componentType":5123,"count":474,"type":"SCALAR"},{"bufferView":3,"componentType":5126,"count":60,"type":"VEC3","min":[-1.4124140739440918,-0.004999999888241291,-1.4129903316497803],"max":[1.4124140739440918,0.02500000037252903,1.2107934951782227]},{"bufferView":4,"componentType":5126,"count":60,"type":"VEC3"},{"bufferView":5,"componentType":5123,"count":360,"type":"SCALAR"}]}
