{"asset":{"version":"2.0","generator":"Baltor mesh_algorithms meshkit 1.0.0"},"scene":0,"scenes":[{"name":"scene","nodes":[0]}],"nodes":[{"name":"spur_gear","mesh":0}],"meshes":[{"name":"spur_gear","primitives":[{"attributes":{"POSITION":0,"NORMAL":1},"indices":2,"material":0,"mode":4}]}],"materials":[{"name":"gear","pbrMetallicRoughness":{"baseColorFactor":[0.7,0.66,0.58,1.0],"metallicFactor":0.7,"roughnessFactor":0.4},"doubleSided":true}],"buffers":[{"byteLength":72912,"uri":"data:application/octet-stream;base64,"}],"bufferViews":[{"buffer":0,"byteOffset":0,"byteLength":31248,"target":34962},{"buffer":0,"byteOffset":31248,"byteLength":31248,"target":34962},{"buffer":0,"byteOffset":62496,"byteLength":10416,"target":34963}],"accessors":[{"bufferView":0,"componentType":5126,"count":2604,"type":"VEC3","min":[-1.0,-0.125,-0.9901531338691711],"max":[1.0,0.125,0.9901531338691711]},{"bufferView":1,"componentType":5126,"count":2604,"type":"VEC3"},{"bufferView":2,"componentType":5123,"count":5208,"type":"SCALAR"}]}
