{"asset":{"version":"2.0","generator":"Baltor mesh_algorithms meshkit 1.0.0"},"scene":0,"scenes":[{"name":"scene","nodes":[0,1]}],"nodes":[{"name":"tcb","mesh":0},{"name":"tension_0_8","mesh":1}],"meshes":[{"name":"tcb","primitives":[{"attributes":{"POSITION":0,"NORMAL":1},"indices":2,"material":0,"mode":4}]},{"name":"tension_0_8","primitives":[{"attributes":{"POSITION":3,"NORMAL":4},"indices":5,"material":1,"mode":4}]}],"materials":[{"name":"tcb","pbrMetallicRoughness":{"baseColorFactor":[0.92,0.72,0.32,1.0],"metallicFactor":0.0,"roughnessFactor":0.6}},{"name":"tight","pbrMetallicRoughness":{"baseColorFactor":[0.45,0.62,0.95,1.0],"metallicFactor":0.0,"roughnessFactor":0.6}}],"buffers":[{"byteLength":52440,"uri":"data:application/octet-stream;base64,"}],"bufferViews":[{"buffer":0,"byteOffset":0,"byteLength":9720,"target":34962},{"buffer":0,"byteOffset":9720,"byteLength":9720,"target":34962},{"buffer":0,"byteOffset":19440,"byteLength":9696,"target":34963},{"buffer":0,"byteOffset":29136,"byteLength":7776,"target":34962},{"buffer":0,"byteOffset":36912,"byteLength":7776,"target":34962},{"buffer":0,"byteOffset":44688,"byteLength":7752,"target":34963}],"accessors":[{"bufferView":0,"componentType":5126,"count":810,"type":"VEC3","min":[-2.0340077877044678,-0.23935289680957794,-0.5262376666069031],"max":[2.0340189933776855,1.1390353441238403,0.7392838001251221]},{"bufferView":1,"componentType":5126,"count":810,"type":"VEC3"},{"bufferView":2,"componentType":5123,"count":4848,"type":"SCALAR"},{"bufferView":3,"componentType":5126,"count":648,"type":"VEC3","min":[-2.02038311958313,-0.2245429903268814,-0.5163711905479431],"max":[2.0218327045440674,1.1244703531265259,0.7229093313217163]},{"bufferView":4,"componentType":5126,"count":648,"type":"VEC3"},{"bufferView":5,"componentType":5123,"count":3876,"type":"SCALAR"}]}
