{"asset":{"version":"2.0","generator":"Baltor mesh_algorithms meshkit 1.0.0"},"scene":0,"scenes":[{"name":"scene","nodes":[0]}],"nodes":[{"name":"frustum","mesh":0}],"meshes":[{"name":"frustum","primitives":[{"attributes":{"POSITION":0,"NORMAL":1,"TEXCOORD_0":2},"indices":3,"material":0,"mode":4}]}],"materials":[{"name":"frustum","pbrMetallicRoughness":{"baseColorFactor":[0.8,0.8,0.7,1.0],"metallicFactor":0.0,"roughnessFactor":0.6},"doubleSided":true}],"buffers":[{"byteLength":9856,"uri":"data:application/octet-stream;base64,"}],"bufferViews":[{"buffer":0,"byteOffset":0,"byteLength":3120,"target":34962},{"buffer":0,"byteOffset":3120,"byteLength":3120,"target":34962},{"buffer":0,"byteOffset":6240,"byteLength":2080,"target":34962},{"buffer":0,"byteOffset":8320,"byteLength":1536,"target":34963}],"accessors":[{"bufferView":0,"componentType":5126,"count":260,"type":"VEC3","min":[-0.6000000238418579,-0.6000000238418579,-0.6000000238418579],"max":[0.6000000238418579,0.6000000238418579,0.6000000238418579]},{"bufferView":1,"componentType":5126,"count":260,"type":"VEC3"},{"bufferView":2,"componentType":5126,"count":260,"type":"VEC2"},{"bufferView":3,"componentType":5123,"count":768,"type":"SCALAR"}]}
