{"asset":{"version":"2.0","generator":"Baltor mesh_algorithms meshkit 1.0.0"},"scene":0,"scenes":[{"name":"scene","nodes":[0]}],"nodes":[{"name":"bspline","mesh":0}],"meshes":[{"name":"bspline","primitives":[{"attributes":{"POSITION":0,"NORMAL":1},"indices":2,"material":0,"mode":4},{"attributes":{"POSITION":3},"indices":4,"mode":1}]}],"materials":[{"name":"bspline","pbrMetallicRoughness":{"baseColorFactor":[0.95,0.62,0.3,1.0],"metallicFactor":0.0,"roughnessFactor":0.6}}],"buffers":[{"byteLength":57684,"uri":"data:application/octet-stream;base64,"}],"bufferViews":[{"buffer":0,"byteOffset":0,"byteLength":19200,"target":34962},{"buffer":0,"byteOffset":19200,"byteLength":19200,"target":34962},{"buffer":0,"byteOffset":38400,"byteLength":19176,"target":34963},{"buffer":0,"byteOffset":57576,"byteLength":84,"target":34962},{"buffer":0,"byteOffset":57660,"byteLength":24,"target":34963}],"accessors":[{"bufferView":0,"componentType":5126,"count":1600,"type":"VEC3","min":[-2.044567584991455,-0.035369373857975006,-0.8354030251502991],"max":[2.446413993835449,0.8846449255943298,0.7757567167282104]},{"bufferView":1,"componentType":5126,"count":1600,"type":"VEC3"},{"bufferView":2,"componentType":5123,"count":9588,"type":"SCALAR"},{"bufferView":3,"componentType":5126,"count":7,"type":"VEC3","min":[-2.0,-0.4000000059604645,-1.0],"max":[2.4000000953674316,1.399999976158142,1.0]},{"bufferView":4,"componentType":5123,"count":12,"type":"SCALAR"}]}
