{"asset":{"version":"2.0","generator":"Baltor mesh_algorithms meshkit 1.0.0"},"scene":0,"scenes":[{"name":"scene","nodes":[0]}],"nodes":[{"name":"mitered_pipe","mesh":0}],"meshes":[{"name":"mitered_pipe","primitives":[{"attributes":{"POSITION":0,"NORMAL":1},"indices":2,"material":0,"mode":4}]}],"materials":[{"name":"pipe","pbrMetallicRoughness":{"baseColorFactor":[0.8,0.52,0.32,1.0],"metallicFactor":0.6,"roughnessFactor":0.35},"doubleSided":true}],"buffers":[{"byteLength":7176,"uri":"data:application/octet-stream;base64,"}],"bufferViews":[{"buffer":0,"byteOffset":0,"byteLength":3168,"target":34962},{"buffer":0,"byteOffset":3168,"byteLength":3168,"target":34962},{"buffer":0,"byteOffset":6336,"byteLength":840,"target":34963}],"accessors":[{"bufferView":0,"componentType":5126,"count":264,"type":"VEC3","min":[-1.5,-0.11999999731779099,-1.1200000047683716],"max":[1.3200000524520874,1.1200000047683716,0.11999999731779099]},{"bufferView":1,"componentType":5126,"count":264,"type":"VEC3"},{"bufferView":2,"componentType":5123,"count":420,"type":"SCALAR"}]}
