{"asset":{"version":"2.0","generator":"Baltor mesh_algorithms meshkit 1.0.0"},"scene":0,"scenes":[{"name":"scene","nodes":[0]}],"nodes":[{"name":"nurbs_surface","mesh":0}],"meshes":[{"name":"nurbs_surface","primitives":[{"attributes":{"POSITION":0,"NORMAL":1},"indices":2,"material":0,"mode":4}]}],"materials":[{"name":"nurbs","pbrMetallicRoughness":{"baseColorFactor":[0.62,0.8,0.92,1.0],"metallicFactor":0.0,"roughnessFactor":0.6}}],"buffers":[{"byteLength":41184,"uri":"data:application/octet-stream;base64,"}],"bufferViews":[{"buffer":0,"byteOffset":0,"byteLength":13824,"target":34962},{"buffer":0,"byteOffset":13824,"byteLength":13824,"target":34962},{"buffer":0,"byteOffset":27648,"byteLength":13536,"target":34963}],"accessors":[{"bufferView":0,"componentType":5126,"count":1152,"type":"VEC3","min":[-1.350000023841858,-0.34983959794044495,-1.350000023841858],"max":[1.350000023841858,0.34983959794044495,1.350000023841858]},{"bufferView":1,"componentType":5126,"count":1152,"type":"VEC3"},{"bufferView":2,"componentType":5123,"count":6768,"type":"SCALAR"}]}
