{"asset":{"version":"2.0","generator":"Baltor mesh_algorithms meshkit 1.0.0"},"scene":0,"scenes":[{"name":"scene","nodes":[0]}],"nodes":[{"name":"rounded_box","mesh":0}],"meshes":[{"name":"rounded_box","primitives":[{"attributes":{"POSITION":0,"NORMAL":1},"indices":2,"material":0,"mode":4}]}],"materials":[{"name":"rounded_box","pbrMetallicRoughness":{"baseColorFactor":[0.58,0.68,0.8,1.0],"metallicFactor":0.0,"roughnessFactor":0.5}}],"buffers":[{"byteLength":42384,"uri":"data:application/octet-stream;base64,"}],"bufferViews":[{"buffer":0,"byteOffset":0,"byteLength":14136,"target":34962},{"buffer":0,"byteOffset":14136,"byteLength":14136,"target":34962},{"buffer":0,"byteOffset":28272,"byteLength":14112,"target":34963}],"accessors":[{"bufferView":0,"componentType":5126,"count":1178,"type":"VEC3","min":[-1.0,-0.5,-0.699999988079071],"max":[1.0,0.5,0.699999988079071]},{"bufferView":1,"componentType":5126,"count":1178,"type":"VEC3"},{"bufferView":2,"componentType":5123,"count":7056,"type":"SCALAR"}]}
