{
 "asset": {
  "version": "2.0",
  "generator": "rotation_exp_log.py"
 },
 "scene": 0,
 "scenes": [
  {
   "nodes": [
    0
   ]
  }
 ],
 "nodes": [
  {
   "name": "tesseract_rotation",
   "mesh": 0
  }
 ],
 "meshes": [
  {
   "name": "tesseract_rotation",
   "primitives": [
    {
     "attributes": {
      "POSITION": 0,
      "COLOR_0": 1
     },
     "mode": 4,
     "material": 0,
     "indices": 2,
     "targets": [
      {
       "POSITION": 3
      },
      {
       "POSITION": 4
      },
      {
       "POSITION": 5
      },
      {
       "POSITION": 6
      },
      {
       "POSITION": 7
      },
      {
       "POSITION": 8
      },
      {
       "POSITION": 9
      },
      {
       "POSITION": 10
      },
      {
       "POSITION": 11
      },
      {
       "POSITION": 12
      },
      {
       "POSITION": 13
      },
      {
       "POSITION": 14
      },
      {
       "POSITION": 15
      },
      {
       "POSITION": 16
      },
      {
       "POSITION": 17
      },
      {
       "POSITION": 18
      },
      {
       "POSITION": 19
      },
      {
       "POSITION": 20
      },
      {
       "POSITION": 21
      },
      {
       "POSITION": 22
      },
      {
       "POSITION": 23
      },
      {
       "POSITION": 24
      },
      {
       "POSITION": 25
      },
      {
       "POSITION": 26
      },
      {
       "POSITION": 27
      },
      {
       "POSITION": 28
      },
      {
       "POSITION": 29
      },
      {
       "POSITION": 30
      },
      {
       "POSITION": 31
      },
      {
       "POSITION": 32
      },
      {
       "POSITION": 33
      },
      {
       "POSITION": 34
      },
      {
       "POSITION": 35
      },
      {
       "POSITION": 36
      },
      {
       "POSITION": 37
      },
      {
       "POSITION": 38
      },
      {
       "POSITION": 39
      },
      {
       "POSITION": 40
      },
      {
       "POSITION": 41
      },
      {
       "POSITION": 42
      },
      {
       "POSITION": 43
      },
      {
       "POSITION": 44
      },
      {
       "POSITION": 45
      },
      {
       "POSITION": 46
      },
      {
       "POSITION": 47
      },
      {
       "POSITION": 48
      },
      {
       "POSITION": 49
      },
      {
       "POSITION": 50
      }
     ]
    }
   ],
   "weights": [
    0.0,
    0.0,
    0.0,
    0.0,
    0.0,
    0.0,
    0.0,
    0.0,
    0.0,
    0.0,
    0.0,
    0.0,
    0.0,
    0.0,
    0.0,
    0.0,
    0.0,
    0.0,
    0.0,
    0.0,
    0.0,
    0.0,
    0.0,
    0.0,
    0.0,
    0.0,
    0.0,
    0.0,
    0.0,
    0.0,
    0.0,
    0.0,
    0.0,
    0.0,
    0.0,
    0.0,
    0.0,
    0.0,
    0.0,
    0.0,
    0.0,
    0.0,
    0.0,
    0.0,
    0.0,
    0.0,
    0.0,
    0.0
   ]
  }
 ],
 "materials": [
  {
   "name": "tesseract_rotation_material",
   "pbrMetallicRoughness": {
    "baseColorFactor": [
     0.82,
     0.84,
     0.9,
     1.0
    ],
    "metallicFactor": 0.0,
    "roughnessFactor": 0.55
   },
   "doubleSided": true,
   "extensions": {
    "KHR_materials_unlit": {}
   }
  }
 ],
 "animations": [
  {
   "name": "rotation_loop",
   "samplers": [
    {
     "input": 52,
     "output": 51,
     "interpolation": "LINEAR"
    }
   ],
   "channels": [
    {
     "sampler": 0,
     "target": {
      "node": 0,
      "path": "weights"
     }
    }
   ]
  }
 ],
 "extensionsUsed": [
  "KHR_materials_unlit"
 ],
 "accessors": [
  {
   "bufferView": 0,
   "componentType": 5126,
   "count": 192,
   "type": "VEC3",
   "min": [
    -1.2933012247085571,
    -1.2933012247085571,
    -1.2999999523162842
   ],
   "max": [
    1.2933012247085571,
    1.2999999523162842,
    1.2999999523162842
   ]
  },
  {
   "bufferView": 1,
   "componentType": 5121,
   "normalized": true,
   "count": 192,
   "type": "VEC4"
  },
  {
   "bufferView": 2,
   "componentType": 5123,
   "count": 576,
   "type": "SCALAR"
  },
  {
   "bufferView": 3,
   "componentType": 5126,
   "count": 192,
   "type": "VEC3",
   "min": [
    -0.1466801017522812,
    -0.40228724479675293,
    -0.40228724479675293
   ],
   "max": [
    0.13753663003444672,
    0.4087577164173126,
    0.4087577164173126
   ]
  },
  {
   "bufferView": 4,
   "componentType": 5126,
   "count": 192,
   "type": "VEC3",
   "min": [
    -0.3204740285873413,
    -0.8382032513618469,
    -0.8382032513618469
   ],
   "max": [
    0.27855435013771057,
    0.8486844897270203,
    0.8486844897270203
   ]
  },
  {
   "bufferView": 5,
   "componentType": 5126,
   "count": 192,
   "type": "VEC3",
   "min": [
    -0.5247485041618347,
    -1.2853553295135498,
    -1.335355281829834
   ],
   "max": [
    0.4573337733745575,
    1.2933012247085571,
    1.2853553295135498
   ]
  },
  {
   "bufferView": 6,
   "componentType": 5126,
   "count": 192,
   "type": "VEC3",
   "min": [
    -0.7564303874969482,
    -1.7786158323287964,
    -1.775266408920288
   ],
   "max": [
    0.5927171111106873,
    1.7969170808792114,
    1.7969170808792114
   ]
  },
  {
   "bufferView": 7,
   "componentType": 5126,
   "count": 192,
   "type": "VEC3",
   "min": [
    -1.007989525794983,
    -2.2697291374206543,
    -2.2568180561065674
   ],
   "max": [
    0.7359929084777832,
    2.280966281890869,
    2.280966281890869
   ]
  },
  {
   "bufferView": 8,
   "componentType": 5126,
   "count": 192,
   "type": "VEC3",
   "min": [
    -1.3028918504714966,
    -2.69439435005188,
    -2.7279117107391357
   ],
   "max": [
    0.87905353307724,
    2.69439435005188,
    2.69439435005188
   ]
  },
  {
   "bufferView": 9,
   "componentType": 5126,
   "count": 192,
   "type": "VEC3",
   "min": [
    -1.5538288354873657,
    -3.0149753093719482,
    -3.035881757736206
   ],
   "max": [
    1.0213927030563354,
    3.040708065032959,
    3.022406816482544
   ]
  },
  {
   "bufferView": 10,
   "componentType": 5126,
   "count": 192,
   "type": "VEC3",
   "min": [
    -1.7962744235992432,
    -3.204519748687744,
    -3.213855504989624
   ],
   "max": [
    1.162527322769165,
    3.2116897106170654,
    3.204519748687744
   ]
  },
  {
   "bufferView": 11,
   "componentType": 5126,
   "count": 192,
   "type": "VEC3",
   "min": [
    -2.024404525756836,
    -3.2498505115509033,
    -3.249300956726074
   ],
   "max": [
    1.3019134998321533,
    3.2326066493988037,
    3.2498505115509033
   ]
  },
  {
   "bufferView": 12,
   "componentType": 5126,
   "count": 192,
   "type": "VEC3",
   "min": [
    -2.2288331985473633,
    -3.152484178543091,
    -3.1443264484405518
   ],
   "max": [
    1.438883662223816,
    3.1058335304260254,
    3.152484178543091
   ]
  },
  {
   "bufferView": 13,
   "componentType": 5126,
   "count": 192,
   "type": "VEC3",
   "min": [
    -2.4020256996154785,
    -2.927377939224243,
    -2.914396286010742
   ],
   "max": [
    1.5731680393218994,
    2.878229856491089,
    2.927377939224243
   ]
  },
  {
   "bufferView": 14,
   "componentType": 5126,
   "count": 192,
   "type": "VEC3",
   "min": [
    -2.53535532951355,
    -2.5999999046325684,
    -2.585355281829834
   ],
   "max": [
    1.7020219564437866,
    2.549999952316284,
    2.5999999046325684
   ]
  },
  {
   "bufferView": 15,
   "componentType": 5126,
   "count": 192,
   "type": "VEC3",
   "min": [
    -2.6427106857299805,
    -2.827785015106201,
    -2.778636932373047
   ],
   "max": [
    1.8325270414352417,
    2.778636932373047,
    2.827785015106201
   ]
  },
  {
   "bufferView": 16,
   "componentType": 5126,
   "count": 192,
   "type": "VEC3",
   "min": [
    -2.7151949405670166,
    -2.9343323707580566,
    -2.887681722640991
   ],
   "max": [
    1.9486644268035889,
    2.887681722640991,
    2.9343323707580566
   ]
  },
  {
   "bufferView": 17,
   "componentType": 5126,
   "count": 192,
   "type": "VEC3",
   "min": [
    -2.756908416748047,
    -2.921221971511841,
    -2.9314887523651123
   ],
   "max": [
    2.0517935752868652,
    2.8786916732788086,
    2.921221971511841
   ]
  },
  {
   "bufferView": 18,
   "componentType": 5126,
   "count": 192,
   "type": "VEC3",
   "min": [
    -2.7693257331848145,
    -2.8017003536224365,
    -2.821291446685791
   ],
   "max": [
    2.146174669265747,
    2.7663450241088867,
    2.798924207687378
   ]
  },
  {
   "bufferView": 19,
   "componentType": 5126,
   "count": 192,
   "type": "VEC3",
   "min": [
    -2.755150556564331,
    -2.6127443313598633,
    -2.620310068130493
   ],
   "max": [
    2.228250503540039,
    2.5773890018463135,
    2.598308563232422
   ]
  },
  {
   "bufferView": 20,
   "componentType": 5126,
   "count": 192,
   "type": "VEC3",
   "min": [
    -2.7171053886413574,
    -2.327173948287964,
    -2.349403142929077
   ],
   "max": [
    2.293267011642456,
    2.291818618774414,
    2.3064186573028564
   ]
  },
  {
   "bufferView": 21,
   "componentType": 5126,
   "count": 192,
   "type": "VEC3",
   "min": [
    -2.6167118549346924,
    -2.00791597366333,
    -2.0317442417144775
   ],
   "max": [
    2.3379175662994385,
    2.00791597366333,
    2.00791597366333
   ]
  },
  {
   "bufferView": 22,
   "componentType": 5126,
   "count": 192,
   "type": "VEC3",
   "min": [
    -2.530815839767456,
    -1.6592427492141724,
    -1.6910287141799927
   ],
   "max": [
    2.358626127243042,
    1.6592427492141724,
    1.6592427492141724
   ]
  },
  {
   "bufferView": 23,
   "componentType": 5126,
   "count": 192,
   "type": "VEC3",
   "min": [
    -2.4337470531463623,
    -1.310355305671692,
    -1.350000023841858
   ],
   "max": [
    2.3515570163726807,
    1.328656554222107,
    1.310355305671692
   ]
  },
  {
   "bufferView": 24,
   "componentType": 5126,
   "count": 192,
   "type": "VEC3",
   "min": [
    -2.3299758434295654,
    -1.025124430656433,
    -1.0756378173828125
   ],
   "max": [
    2.2730143070220947,
    1.025124430656433,
    1.0258417129516602
   ]
  },
  {
   "bufferView": 25,
   "componentType": 5126,
   "count": 192,
   "type": "VEC3",
   "min": [
    -2.2138383388519287,
    -0.8026215434074402,
    -0.8457075953483582
   ],
   "max": [
    2.1960134506225586,
    0.8026215434074402,
    0.8026215434074402
   ]
  },
  {
   "bufferView": 26,
   "componentType": 5126,
   "count": 192,
   "type": "VEC3",
   "min": [
    -2.0833332538604736,
    -0.4873773455619812,
    -0.5166666507720947
   ],
   "max": [
    2.0833332538604736,
    0.4873773455619812,
    0.4873773455619812
   ]
  },
  {
   "bufferView": 27,
   "componentType": 5126,
   "count": 192,
   "type": "VEC3",
   "min": [
    -2.1960134506225586,
    -0.8061036467552185,
    -0.8457075953483582
   ],
   "max": [
    2.2138383388519287,
    0.8061036467552185,
    0.8061036467552185
   ]
  },
  {
   "bufferView": 28,
   "componentType": 5126,
   "count": 192,
   "type": "VEC3",
   "min": [
    -2.2730143070220947,
    -1.0396432876586914,
    -1.0756378173828125
   ],
   "max": [
    2.3299758434295654,
    1.0396432876586914,
    1.0396432876586914
   ]
  },
  {
   "bufferView": 29,
   "componentType": 5126,
   "count": 192,
   "type": "VEC3",
   "min": [
    -2.3515570163726807,
    -1.335355281829834,
    -1.350000023841858
   ],
   "max": [
    2.4337470531463623,
    1.335355281829834,
    1.335355281829834
   ]
  },
  {
   "bufferView": 30,
   "componentType": 5126,
   "count": 192,
   "type": "VEC3",
   "min": [
    -2.3541247844696045,
    -1.6747097969055176,
    -1.6910287141799927
   ],
   "max": [
    2.530815839767456,
    1.6747097969055176,
    1.6747097969055176
   ]
  },
  {
   "bufferView": 31,
   "componentType": 5126,
   "count": 192,
   "type": "VEC3",
   "min": [
    -2.3360204696655273,
    -2.010587692260742,
    -2.0317442417144775
   ],
   "max": [
    2.6167118549346924,
    2.010587692260742,
    2.010587692260742
   ]
  },
  {
   "bufferView": 32,
   "componentType": 5126,
   "count": 192,
   "type": "VEC3",
   "min": [
    -2.293267011642456,
    -2.299999952316284,
    -2.349403142929077
   ],
   "max": [
    2.7171053886413574,
    2.299999952316284,
    2.333517551422119
   ]
  },
  {
   "bufferView": 33,
   "componentType": 5126,
   "count": 192,
   "type": "VEC3",
   "min": [
    -2.229421854019165,
    -2.598308563232422,
    -2.620310068130493
   ],
   "max": [
    2.7531633377075195,
    2.59904146194458,
    2.619215250015259
   ]
  },
  {
   "bufferView": 34,
   "componentType": 5126,
   "count": 192,
   "type": "VEC3",
   "min": [
    -2.147890329360962,
    -2.798924207687378,
    -2.821291446685791
   ],
   "max": [
    2.766582727432251,
    2.7820820808410645,
    2.808259963989258
   ]
  },
  {
   "bufferView": 35,
   "componentType": 5126,
   "count": 192,
   "type": "VEC3",
   "min": [
    -2.0517935752868652,
    -2.921221971511841,
    -2.9314887523651123
   ],
   "max": [
    2.756908416748047,
    2.8786916732788086,
    2.921221971511841
   ]
  },
  {
   "bufferView": 36,
   "componentType": 5126,
   "count": 192,
   "type": "VEC3",
   "min": [
    -1.9486644268035889,
    -2.9343323707580566,
    -2.887681722640991
   ],
   "max": [
    2.7164313793182373,
    2.9267401695251465,
    2.9343323707580566
   ]
  },
  {
   "bufferView": 37,
   "componentType": 5126,
   "count": 192,
   "type": "VEC3",
   "min": [
    -1.8325270414352417,
    -2.827785015106201,
    -2.778636932373047
   ],
   "max": [
    2.6430234909057617,
    2.81388521194458,
    2.827785015106201
   ]
  },
  {
   "bufferView": 38,
   "componentType": 5126,
   "count": 192,
   "type": "VEC3",
   "min": [
    -1.7020219564437866,
    -2.5999999046325684,
    -2.585355281829834
   ],
   "max": [
    2.53535532951355,
    2.5786566734313965,
    2.5999999046325684
   ]
  },
  {
   "bufferView": 39,
   "componentType": 5126,
   "count": 192,
   "type": "VEC3",
   "min": [
    -1.5733757019042969,
    -2.927377939224243,
    -2.9040815830230713
   ],
   "max": [
    2.4020256996154785,
    2.907702922821045,
    2.927377939224243
   ]
  },
  {
   "bufferView": 40,
   "componentType": 5126,
   "count": 192,
   "type": "VEC3",
   "min": [
    -1.4396960735321045,
    -3.152484178543091,
    -3.122123956680298
   ],
   "max": [
    2.2288331985473633,
    3.1376562118530273,
    3.152484178543091
   ]
  },
  {
   "bufferView": 41,
   "componentType": 5126,
   "count": 192,
   "type": "VEC3",
   "min": [
    -1.3019134998321533,
    -3.2498505115509033,
    -3.2245757579803467
   ],
   "max": [
    2.024404525756836,
    3.24267578125,
    3.2498505115509033
   ]
  },
  {
   "bufferView": 42,
   "componentType": 5126,
   "count": 192,
   "type": "VEC3",
   "min": [
    -1.1608116626739502,
    -3.2116897106170654,
    -3.1888976097106934
   ],
   "max": [
    1.799017310142517,
    3.2072958946228027,
    3.204519748687744
   ]
  },
  {
   "bufferView": 43,
   "componentType": 5126,
   "count": 192,
   "type": "VEC3",
   "min": [
    -1.020221471786499,
    -3.040708065032959,
    -3.010165214538574
   ],
   "max": [
    1.5558160543441772,
    3.0294108390808105,
    3.022406816482544
   ]
  },
  {
   "bufferView": 44,
   "componentType": 5126,
   "count": 192,
   "type": "VEC3",
   "min": [
    -0.87905353307724,
    -2.69439435005188,
    -2.700813055038452
   ],
   "max": [
    1.3028918504714966,
    2.7215683460235596,
    2.69439435005188
   ]
  },
  {
   "bufferView": 45,
   "componentType": 5126,
   "count": 192,
   "type": "VEC3",
   "min": [
    -0.73788982629776,
    -2.280966281890869,
    -2.280966281890869
   ],
   "max": [
    1.007989525794983,
    2.2568180561065674,
    2.2697291374206543
   ]
  },
  {
   "bufferView": 46,
   "componentType": 5126,
   "count": 192,
   "type": "VEC3",
   "min": [
    -0.5972184538841248,
    -1.7969170808792114,
    -1.7969170808792114
   ],
   "max": [
    0.7564303874969482,
    1.775266408920288,
    1.7786158323287964
   ]
  },
  {
   "bufferView": 47,
   "componentType": 5126,
   "count": 192,
   "type": "VEC3",
   "min": [
    -0.4573337733745575,
    -1.328656554222107,
    -1.310355305671692
   ],
   "max": [
    0.5247485041618347,
    1.2933012247085571,
    1.267677664756775
   ]
  },
  {
   "bufferView": 48,
   "componentType": 5126,
   "count": 192,
   "type": "VEC3",
   "min": [
    -0.27855435013771057,
    -0.8486844897270203,
    -0.8486844897270203
   ],
   "max": [
    0.3204740285873413,
    0.8366254568099976,
    0.8366254568099976
   ]
  },
  {
   "bufferView": 49,
   "componentType": 5126,
   "count": 192,
   "type": "VEC3",
   "min": [
    -0.13753663003444672,
    -0.4087577164173126,
    -0.4087577164173126
   ],
   "max": [
    0.1466801017522812,
    0.40376269817352295,
    0.40376269817352295
   ]
  },
  {
   "bufferView": 50,
   "componentType": 5126,
   "count": 192,
   "type": "VEC3",
   "min": [
    -3.3306690738754696e-16,
    -4.440892098500626e-16,
    -4.440892098500626e-16
   ],
   "max": [
    2.220446049250313e-16,
    4.440892098500626e-16,
    4.440892098500626e-16
   ]
  },
  {
   "bufferView": 51,
   "componentType": 5126,
   "count": 2352,
   "type": "SCALAR"
  },
  {
   "bufferView": 52,
   "componentType": 5126,
   "count": 49,
   "type": "SCALAR",
   "min": [
    0.0
   ],
   "max": [
    8.0
   ]
  }
 ],
 "bufferViews": [
  {
   "buffer": 0,
   "byteOffset": 0,
   "byteLength": 2304,
   "target": 34962
  },
  {
   "buffer": 0,
   "byteOffset": 2304,
   "byteLength": 768,
   "target": 34962
  },
  {
   "buffer": 0,
   "byteOffset": 3072,
   "byteLength": 1152,
   "target": 34963
  },
  {
   "buffer": 0,
   "byteOffset": 4224,
   "byteLength": 2304,
   "target": 34962
  },
  {
   "buffer": 0,
   "byteOffset": 6528,
   "byteLength": 2304,
   "target": 34962
  },
  {
   "buffer": 0,
   "byteOffset": 8832,
   "byteLength": 2304,
   "target": 34962
  },
  {
   "buffer": 0,
   "byteOffset": 11136,
   "byteLength": 2304,
   "target": 34962
  },
  {
   "buffer": 0,
   "byteOffset": 13440,
   "byteLength": 2304,
   "target": 34962
  },
  {
   "buffer": 0,
   "byteOffset": 15744,
   "byteLength": 2304,
   "target": 34962
  },
  {
   "buffer": 0,
   "byteOffset": 18048,
   "byteLength": 2304,
   "target": 34962
  },
  {
   "buffer": 0,
   "byteOffset": 20352,
   "byteLength": 2304,
   "target": 34962
  },
  {
   "buffer": 0,
   "byteOffset": 22656,
   "byteLength": 2304,
   "target": 34962
  },
  {
   "buffer": 0,
   "byteOffset": 24960,
   "byteLength": 2304,
   "target": 34962
  },
  {
   "buffer": 0,
   "byteOffset": 27264,
   "byteLength": 2304,
   "target": 34962
  },
  {
   "buffer": 0,
   "byteOffset": 29568,
   "byteLength": 2304,
   "target": 34962
  },
  {
   "buffer": 0,
   "byteOffset": 31872,
   "byteLength": 2304,
   "target": 34962
  },
  {
   "buffer": 0,
   "byteOffset": 34176,
   "byteLength": 2304,
   "target": 34962
  },
  {
   "buffer": 0,
   "byteOffset": 36480,
   "byteLength": 2304,
   "target": 34962
  },
  {
   "buffer": 0,
   "byteOffset": 38784,
   "byteLength": 2304,
   "target": 34962
  },
  {
   "buffer": 0,
   "byteOffset": 41088,
   "byteLength": 2304,
   "target": 34962
  },
  {
   "buffer": 0,
   "byteOffset": 43392,
   "byteLength": 2304,
   "target": 34962
  },
  {
   "buffer": 0,
   "byteOffset": 45696,
   "byteLength": 2304,
   "target": 34962
  },
  {
   "buffer": 0,
   "byteOffset": 48000,
   "byteLength": 2304,
   "target": 34962
  },
  {
   "buffer": 0,
   "byteOffset": 50304,
   "byteLength": 2304,
   "target": 34962
  },
  {
   "buffer": 0,
   "byteOffset": 52608,
   "byteLength": 2304,
   "target": 34962
  },
  {
   "buffer": 0,
   "byteOffset": 54912,
   "byteLength": 2304,
   "target": 34962
  },
  {
   "buffer": 0,
   "byteOffset": 57216,
   "byteLength": 2304,
   "target": 34962
  },
  {
   "buffer": 0,
   "byteOffset": 59520,
   "byteLength": 2304,
   "target": 34962
  },
  {
   "buffer": 0,
   "byteOffset": 61824,
   "byteLength": 2304,
   "target": 34962
  },
  {
   "buffer": 0,
   "byteOffset": 64128,
   "byteLength": 2304,
   "target": 34962
  },
  {
   "buffer": 0,
   "byteOffset": 66432,
   "byteLength": 2304,
   "target": 34962
  },
  {
   "buffer": 0,
   "byteOffset": 68736,
   "byteLength": 2304,
   "target": 34962
  },
  {
   "buffer": 0,
   "byteOffset": 71040,
   "byteLength": 2304,
   "target": 34962
  },
  {
   "buffer": 0,
   "byteOffset": 73344,
   "byteLength": 2304,
   "target": 34962
  },
  {
   "buffer": 0,
   "byteOffset": 75648,
   "byteLength": 2304,
   "target": 34962
  },
  {
   "buffer": 0,
   "byteOffset": 77952,
   "byteLength": 2304,
   "target": 34962
  },
  {
   "buffer": 0,
   "byteOffset": 80256,
   "byteLength": 2304,
   "target": 34962
  },
  {
   "buffer": 0,
   "byteOffset": 82560,
   "byteLength": 2304,
   "target": 34962
  },
  {
   "buffer": 0,
   "byteOffset": 84864,
   "byteLength": 2304,
   "target": 34962
  },
  {
   "buffer": 0,
   "byteOffset": 87168,
   "byteLength": 2304,
   "target": 34962
  },
  {
   "buffer": 0,
   "byteOffset": 89472,
   "byteLength": 2304,
   "target": 34962
  },
  {
   "buffer": 0,
   "byteOffset": 91776,
   "byteLength": 2304,
   "target": 34962
  },
  {
   "buffer": 0,
   "byteOffset": 94080,
   "byteLength": 2304,
   "target": 34962
  },
  {
   "buffer": 0,
   "byteOffset": 96384,
   "byteLength": 2304,
   "target": 34962
  },
  {
   "buffer": 0,
   "byteOffset": 98688,
   "byteLength": 2304,
   "target": 34962
  },
  {
   "buffer": 0,
   "byteOffset": 100992,
   "byteLength": 2304,
   "target": 34962
  },
  {
   "buffer": 0,
   "byteOffset": 103296,
   "byteLength": 2304,
   "target": 34962
  },
  {
   "buffer": 0,
   "byteOffset": 105600,
   "byteLength": 2304,
   "target": 34962
  },
  {
   "buffer": 0,
   "byteOffset": 107904,
   "byteLength": 2304,
   "target": 34962
  },
  {
   "buffer": 0,
   "byteOffset": 110208,
   "byteLength": 2304,
   "target": 34962
  },
  {
   "buffer": 0,
   "byteOffset": 112512,
   "byteLength": 2304,
   "target": 34962
  },
  {
   "buffer": 0,
   "byteOffset": 114816,
   "byteLength": 9408
  },
  {
   "buffer": 0,
   "byteOffset": 124224,
   "byteLength": 196
  }
 ],
 "buffers": [
  {
   "byteLength": 124420,
   "uri": "data:application/octet-stream;base64,"
  }
 ]
}
