{
 "asset": {
  "version": "2.0",
  "generator": "duocylinder.py"
 },
 "scene": 0,
 "scenes": [
  {
   "nodes": [
    0
   ]
  }
 ],
 "nodes": [
  {
   "name": "duocylinder_diagonal_slice",
   "mesh": 0
  }
 ],
 "meshes": [
  {
   "name": "duocylinder_diagonal_slice",
   "primitives": [
    {
     "attributes": {
      "POSITION": 0,
      "NORMAL": 1,
      "COLOR_0": 2
     },
     "mode": 4,
     "material": 0,
     "indices": 3,
     "targets": [
      {
       "POSITION": 4,
       "NORMAL": 5
      },
      {
       "POSITION": 6,
       "NORMAL": 7
      },
      {
       "POSITION": 8,
       "NORMAL": 9
      },
      {
       "POSITION": 10,
       "NORMAL": 11
      },
      {
       "POSITION": 12,
       "NORMAL": 13
      },
      {
       "POSITION": 14,
       "NORMAL": 15
      },
      {
       "POSITION": 16,
       "NORMAL": 17
      },
      {
       "POSITION": 18,
       "NORMAL": 19
      },
      {
       "POSITION": 20,
       "NORMAL": 21
      },
      {
       "POSITION": 22,
       "NORMAL": 23
      },
      {
       "POSITION": 24,
       "NORMAL": 25
      }
     ]
    }
   ],
   "weights": [
    0.0,
    0.0,
    0.0,
    0.0,
    0.0,
    0.0,
    0.0,
    0.0,
    0.0,
    0.0,
    0.0
   ]
  }
 ],
 "materials": [
  {
   "name": "duocylinder_diagonal_slice_material",
   "pbrMetallicRoughness": {
    "baseColorFactor": [
     0.82,
     0.84,
     0.9,
     1.0
    ],
    "metallicFactor": 0.0,
    "roughnessFactor": 0.55
   },
   "doubleSided": true
  }
 ],
 "animations": [
  {
   "name": "diagonal_sweep",
   "samplers": [
    {
     "input": 27,
     "output": 26,
     "interpolation": "LINEAR"
    }
   ],
   "channels": [
    {
     "sampler": 0,
     "target": {
      "node": 0,
      "path": "weights"
     }
    }
   ]
  }
 ],
 "accessors": [
  {
   "bufferView": 0,
   "componentType": 5126,
   "count": 200,
   "type": "VEC3",
   "min": [
    -0.1060660183429718,
    -0.5267826914787292,
    -0.5267826914787292
   ],
   "max": [
    0.1060660183429718,
    0.5267826914787292,
    0.5267826914787292
   ]
  },
  {
   "bufferView": 1,
   "componentType": 5126,
   "count": 200,
   "type": "VEC3"
  },
  {
   "bufferView": 2,
   "componentType": 5121,
   "normalized": true,
   "count": 200,
   "type": "VEC4"
  },
  {
   "bufferView": 3,
   "componentType": 5123,
   "count": 576,
   "type": "SCALAR"
  },
  {
   "bufferView": 4,
   "componentType": 5126,
   "count": 200,
   "type": "VEC3",
   "min": [
    -0.23784500360488892,
    -0.33122527599334717,
    -0.33122527599334717
   ],
   "max": [
    0.23784500360488892,
    0.33122527599334717,
    0.33122527599334717
   ]
  },
  {
   "bufferView": 5,
   "componentType": 5126,
   "count": 200,
   "type": "VEC3"
  },
  {
   "bufferView": 6,
   "componentType": 5126,
   "count": 200,
   "type": "VEC3",
   "min": [
    -0.47569000720977783,
    -0.46507659554481506,
    -0.46507659554481506
   ],
   "max": [
    0.47569000720977783,
    0.46507659554481506,
    0.46507659554481506
   ]
  },
  {
   "bufferView": 7,
   "componentType": 5126,
   "count": 200,
   "type": "VEC3"
  },
  {
   "bufferView": 8,
   "componentType": 5126,
   "count": 200,
   "type": "VEC3",
   "min": [
    -0.7135350108146667,
    -0.5385748147964478,
    -0.5385748147964478
   ],
   "max": [
    0.7135350108146667,
    0.5385748147964478,
    0.5385748147964478
   ]
  },
  {
   "bufferView": 9,
   "componentType": 5126,
   "count": 200,
   "type": "VEC3"
  },
  {
   "bufferView": 10,
   "componentType": 5126,
   "count": 200,
   "type": "VEC3",
   "min": [
    -0.9513800144195557,
    -0.5876890420913696,
    -0.5876890420913696
   ],
   "max": [
    0.9513800144195557,
    0.5876890420913696,
    0.5876890420913696
   ]
  },
  {
   "bufferView": 11,
   "componentType": 5126,
   "count": 200,
   "type": "VEC3"
  },
  {
   "bufferView": 12,
   "componentType": 5126,
   "count": 200,
   "type": "VEC3",
   "min": [
    -1.1892250776290894,
    -0.6238433718681335,
    -0.6238433718681335
   ],
   "max": [
    1.1892250776290894,
    0.6238433718681335,
    0.6238433718681335
   ]
  },
  {
   "bufferView": 13,
   "componentType": 5126,
   "count": 200,
   "type": "VEC3"
  },
  {
   "bufferView": 14,
   "componentType": 5126,
   "count": 200,
   "type": "VEC3",
   "min": [
    -1.1892250776290894,
    -0.6631035804748535,
    -0.6631035804748535
   ],
   "max": [
    1.1892250776290894,
    0.6631035804748535,
    0.6631035804748535
   ]
  },
  {
   "bufferView": 15,
   "componentType": 5126,
   "count": 200,
   "type": "VEC3"
  },
  {
   "bufferView": 16,
   "componentType": 5126,
   "count": 200,
   "type": "VEC3",
   "min": [
    -0.9513800144195557,
    -0.8686338663101196,
    -0.8686338663101196
   ],
   "max": [
    0.9513800144195557,
    0.8686338663101196,
    0.8686338663101196
   ]
  },
  {
   "bufferView": 17,
   "componentType": 5126,
   "count": 200,
   "type": "VEC3"
  },
  {
   "bufferView": 18,
   "componentType": 5126,
   "count": 200,
   "type": "VEC3",
   "min": [
    -0.7135350108146667,
    -0.9872639179229736,
    -0.9872639179229736
   ],
   "max": [
    0.7135350108146667,
    0.9872639179229736,
    0.9872639179229736
   ]
  },
  {
   "bufferView": 19,
   "componentType": 5126,
   "count": 200,
   "type": "VEC3"
  },
  {
   "bufferView": 20,
   "componentType": 5126,
   "count": 200,
   "type": "VEC3",
   "min": [
    -0.47569000720977783,
    -0.9841617941856384,
    -0.9841617941856384
   ],
   "max": [
    0.47569000720977783,
    0.9841617941856384,
    0.9841617941856384
   ]
  },
  {
   "bufferView": 21,
   "componentType": 5126,
   "count": 200,
   "type": "VEC3"
  },
  {
   "bufferView": 22,
   "componentType": 5126,
   "count": 200,
   "type": "VEC3",
   "min": [
    -0.23784500360488892,
    -0.8580079674720764,
    -0.8580079674720764
   ],
   "max": [
    0.23784500360488892,
    0.8580079674720764,
    0.8580079674720764
   ]
  },
  {
   "bufferView": 23,
   "componentType": 5126,
   "count": 200,
   "type": "VEC3"
  },
  {
   "bufferView": 24,
   "componentType": 5126,
   "count": 200,
   "type": "VEC3",
   "min": [
    0.0,
    -0.5267826914787292,
    -0.5267826914787292
   ],
   "max": [
    0.0,
    0.5267826914787292,
    0.5267826914787292
   ]
  },
  {
   "bufferView": 25,
   "componentType": 5126,
   "count": 200,
   "type": "VEC3"
  },
  {
   "bufferView": 26,
   "componentType": 5126,
   "count": 132,
   "type": "SCALAR"
  },
  {
   "bufferView": 27,
   "componentType": 5126,
   "count": 12,
   "type": "SCALAR",
   "min": [
    0.0
   ],
   "max": [
    6.0
   ]
  }
 ],
 "bufferViews": [
  {
   "buffer": 0,
   "byteOffset": 0,
   "byteLength": 2400,
   "target": 34962
  },
  {
   "buffer": 0,
   "byteOffset": 2400,
   "byteLength": 2400,
   "target": 34962
  },
  {
   "buffer": 0,
   "byteOffset": 4800,
   "byteLength": 800,
   "target": 34962
  },
  {
   "buffer": 0,
   "byteOffset": 5600,
   "byteLength": 1152,
   "target": 34963
  },
  {
   "buffer": 0,
   "byteOffset": 6752,
   "byteLength": 2400,
   "target": 34962
  },
  {
   "buffer": 0,
   "byteOffset": 9152,
   "byteLength": 2400,
   "target": 34962
  },
  {
   "buffer": 0,
   "byteOffset": 11552,
   "byteLength": 2400,
   "target": 34962
  },
  {
   "buffer": 0,
   "byteOffset": 13952,
   "byteLength": 2400,
   "target": 34962
  },
  {
   "buffer": 0,
   "byteOffset": 16352,
   "byteLength": 2400,
   "target": 34962
  },
  {
   "buffer": 0,
   "byteOffset": 18752,
   "byteLength": 2400,
   "target": 34962
  },
  {
   "buffer": 0,
   "byteOffset": 21152,
   "byteLength": 2400,
   "target": 34962
  },
  {
   "buffer": 0,
   "byteOffset": 23552,
   "byteLength": 2400,
   "target": 34962
  },
  {
   "buffer": 0,
   "byteOffset": 25952,
   "byteLength": 2400,
   "target": 34962
  },
  {
   "buffer": 0,
   "byteOffset": 28352,
   "byteLength": 2400,
   "target": 34962
  },
  {
   "buffer": 0,
   "byteOffset": 30752,
   "byteLength": 2400,
   "target": 34962
  },
  {
   "buffer": 0,
   "byteOffset": 33152,
   "byteLength": 2400,
   "target": 34962
  },
  {
   "buffer": 0,
   "byteOffset": 35552,
   "byteLength": 2400,
   "target": 34962
  },
  {
   "buffer": 0,
   "byteOffset": 37952,
   "byteLength": 2400,
   "target": 34962
  },
  {
   "buffer": 0,
   "byteOffset": 40352,
   "byteLength": 2400,
   "target": 34962
  },
  {
   "buffer": 0,
   "byteOffset": 42752,
   "byteLength": 2400,
   "target": 34962
  },
  {
   "buffer": 0,
   "byteOffset": 45152,
   "byteLength": 2400,
   "target": 34962
  },
  {
   "buffer": 0,
   "byteOffset": 47552,
   "byteLength": 2400,
   "target": 34962
  },
  {
   "buffer": 0,
   "byteOffset": 49952,
   "byteLength": 2400,
   "target": 34962
  },
  {
   "buffer": 0,
   "byteOffset": 52352,
   "byteLength": 2400,
   "target": 34962
  },
  {
   "buffer": 0,
   "byteOffset": 54752,
   "byteLength": 2400,
   "target": 34962
  },
  {
   "buffer": 0,
   "byteOffset": 57152,
   "byteLength": 2400,
   "target": 34962
  },
  {
   "buffer": 0,
   "byteOffset": 59552,
   "byteLength": 528
  },
  {
   "buffer": 0,
   "byteOffset": 60080,
   "byteLength": 48
  }
 ],
 "buffers": [
  {
   "byteLength": 60128,
   "uri": "data:application/octet-stream;base64,"
  }
 ]
}
