{"asset":{"version":"2.0","generator":"Baltor mesh_algorithms meshkit 1.0.0"},"scene":0,"scenes":[{"name":"scene","nodes":[0]}],"nodes":[{"name":"supershape","mesh":0}],"meshes":[{"name":"supershape","primitives":[{"attributes":{"POSITION":0,"NORMAL":1},"indices":2,"material":0,"mode":4}]}],"materials":[{"name":"supershape","pbrMetallicRoughness":{"baseColorFactor":[0.9,0.58,0.66,1.0],"metallicFactor":0.0,"roughnessFactor":0.6}}],"buffers":[{"byteLength":71472,"uri":"data:application/octet-stream;base64,"}],"bufferViews":[{"buffer":0,"byteOffset":0,"byteLength":23832,"target":34962},{"buffer":0,"byteOffset":23832,"byteLength":23832,"target":34962},{"buffer":0,"byteOffset":47664,"byteLength":23808,"target":34963}],"accessors":[{"bufferView":0,"componentType":5126,"count":1986,"type":"VEC3","min":[-0.8742141127586365,-0.7679302096366882,-0.9618774652481079],"max":[1.0,0.7679302096366882,0.9618774652481079]},{"bufferView":1,"componentType":5126,"count":1986,"type":"VEC3"},{"bufferView":2,"componentType":5123,"count":11904,"type":"SCALAR"}]}
