{"asset":{"version":"2.0","generator":"Baltor mesh_algorithms meshkit 1.0.0"},"scene":0,"scenes":[{"name":"scene","nodes":[0]}],"nodes":[{"name":"sweep","mesh":0}],"meshes":[{"name":"sweep","primitives":[{"attributes":{"POSITION":0,"NORMAL":1},"indices":2,"material":0,"mode":4}]}],"materials":[{"name":"sweep","pbrMetallicRoughness":{"baseColorFactor":[0.8,0.6,0.9,1.0],"metallicFactor":0.0,"roughnessFactor":0.5},"doubleSided":true}],"buffers":[{"byteLength":70368,"uri":"data:application/octet-stream;base64,"}],"bufferViews":[{"buffer":0,"byteOffset":0,"byteLength":31296,"target":34962},{"buffer":0,"byteOffset":31296,"byteLength":31296,"target":34962},{"buffer":0,"byteOffset":62592,"byteLength":7776,"target":34963}],"accessors":[{"bufferView":0,"componentType":5126,"count":2608,"type":"VEC3","min":[-1.7426320314407349,-0.007362368516623974,-0.28531694412231445],"max":[1.6140923500061035,1.7088851928710938,0.28531694412231445]},{"bufferView":1,"componentType":5126,"count":2608,"type":"VEC3"},{"bufferView":2,"componentType":5123,"count":3888,"type":"SCALAR"}]}
