{
 "asset": {
  "version": "2.0",
  "generator": "klein_bottle_veronese.py"
 },
 "scene": 0,
 "scenes": [
  {
   "nodes": [
    0,
    1
   ]
  }
 ],
 "nodes": [
  {
   "name": "klein_bottle_shadow",
   "mesh": 0,
   "translation": [
    -1.3,
    0.0,
    0.0
   ]
  },
  {
   "name": "roman_surface_shadow",
   "mesh": 1,
   "translation": [
    1.3,
    0.0,
    0.0
   ]
  }
 ],
 "meshes": [
  {
   "name": "klein_bottle_shadow",
   "primitives": [
    {
     "attributes": {
      "POSITION": 0,
      "NORMAL": 1,
      "COLOR_0": 2
     },
     "mode": 4,
     "material": 0,
     "indices": 3
    }
   ]
  },
  {
   "name": "roman_surface_shadow",
   "primitives": [
    {
     "attributes": {
      "POSITION": 4,
      "NORMAL": 5,
      "COLOR_0": 6
     },
     "mode": 4,
     "material": 1,
     "indices": 7
    }
   ]
  }
 ],
 "materials": [
  {
   "name": "klein_bottle_shadow_material",
   "pbrMetallicRoughness": {
    "baseColorFactor": [
     0.82,
     0.84,
     0.9,
     1.0
    ],
    "metallicFactor": 0.0,
    "roughnessFactor": 0.55
   },
   "doubleSided": true
  },
  {
   "name": "roman_surface_shadow_material",
   "pbrMetallicRoughness": {
    "baseColorFactor": [
     0.82,
     0.84,
     0.9,
     1.0
    ],
    "metallicFactor": 0.0,
    "roughnessFactor": 0.55
   },
   "doubleSided": true
  }
 ],
 "accessors": [
  {
   "bufferView": 0,
   "componentType": 5126,
   "count": 2304,
   "type": "VEC3",
   "min": [
    -1.0,
    -1.0,
    -0.3333333432674408
   ],
   "max": [
    1.0,
    1.0,
    0.3333333432674408
   ]
  },
  {
   "bufferView": 1,
   "componentType": 5126,
   "count": 2304,
   "type": "VEC3"
  },
  {
   "bufferView": 2,
   "componentType": 5121,
   "normalized": true,
   "count": 2304,
   "type": "VEC4"
  },
  {
   "bufferView": 3,
   "componentType": 5123,
   "count": 2304,
   "type": "SCALAR"
  },
  {
   "bufferView": 4,
   "componentType": 5126,
   "count": 1920,
   "type": "VEC3",
   "min": [
    -0.8740465641021729,
    -0.8740465641021729,
    -0.8740465641021729
   ],
   "max": [
    0.8740465641021729,
    0.8740465641021729,
    0.8740465641021729
   ]
  },
  {
   "bufferView": 5,
   "componentType": 5126,
   "count": 1920,
   "type": "VEC3"
  },
  {
   "bufferView": 6,
   "componentType": 5121,
   "normalized": true,
   "count": 1920,
   "type": "VEC4"
  },
  {
   "bufferView": 7,
   "componentType": 5123,
   "count": 1920,
   "type": "SCALAR"
  }
 ],
 "bufferViews": [
  {
   "buffer": 0,
   "byteOffset": 0,
   "byteLength": 27648,
   "target": 34962
  },
  {
   "buffer": 0,
   "byteOffset": 27648,
   "byteLength": 27648,
   "target": 34962
  },
  {
   "buffer": 0,
   "byteOffset": 55296,
   "byteLength": 9216,
   "target": 34962
  },
  {
   "buffer": 0,
   "byteOffset": 64512,
   "byteLength": 4608,
   "target": 34963
  },
  {
   "buffer": 0,
   "byteOffset": 69120,
   "byteLength": 23040,
   "target": 34962
  },
  {
   "buffer": 0,
   "byteOffset": 92160,
   "byteLength": 23040,
   "target": 34962
  },
  {
   "buffer": 0,
   "byteOffset": 115200,
   "byteLength": 7680,
   "target": 34962
  },
  {
   "buffer": 0,
   "byteOffset": 122880,
   "byteLength": 3840,
   "target": 34963
  }
 ],
 "buffers": [
  {
   "byteLength": 126720,
   "uri": "data:application/octet-stream;base64,"
  }
 ]
}
