{
 "asset": {
  "version": "2.0",
  "generator": "slice_morph_animation.py"
 },
 "scene": 0,
 "scenes": [
  {
   "nodes": [
    0
   ]
  }
 ],
 "nodes": [
  {
   "name": "tesseract_slice",
   "mesh": 0
  }
 ],
 "meshes": [
  {
   "name": "tesseract_slice",
   "primitives": [
    {
     "attributes": {
      "POSITION": 0,
      "NORMAL": 1,
      "COLOR_0": 2
     },
     "mode": 4,
     "material": 0,
     "indices": 3,
     "targets": [
      {
       "POSITION": 4
      },
      {
       "POSITION": 5
      },
      {
       "POSITION": 6
      },
      {
       "POSITION": 7
      },
      {
       "POSITION": 8
      },
      {
       "POSITION": 9
      }
     ]
    }
   ],
   "weights": [
    0.0,
    0.0,
    0.0,
    0.0,
    0.0,
    0.0
   ]
  }
 ],
 "materials": [
  {
   "name": "tesseract_slice_material",
   "pbrMetallicRoughness": {
    "baseColorFactor": [
     1.0,
     1.0,
     1.0,
     1.0
    ],
    "metallicFactor": 0.0,
    "roughnessFactor": 0.55
   },
   "doubleSided": true
  }
 ],
 "animations": [
  {
   "name": "slice_sweep",
   "samplers": [
    {
     "input": 11,
     "output": 10,
     "interpolation": "LINEAR"
    }
   ],
   "channels": [
    {
     "sampler": 0,
     "target": {
      "node": 0,
      "path": "weights"
     }
    }
   ]
  }
 ],
 "accessors": [
  {
   "bufferView": 0,
   "componentType": 5126,
   "count": 192,
   "type": "VEC3",
   "min": [
    -1.7320507764816284,
    -1.632993221282959,
    -1.4142135381698608
   ],
   "max": [
    1.154700517654419,
    0.8164966106414795,
    1.4142135381698608
   ]
  },
  {
   "bufferView": 1,
   "componentType": 5126,
   "count": 192,
   "type": "VEC3"
  },
  {
   "bufferView": 2,
   "componentType": 5121,
   "normalized": true,
   "count": 192,
   "type": "VEC4"
  },
  {
   "bufferView": 3,
   "componentType": 5123,
   "count": 288,
   "type": "SCALAR"
  },
  {
   "bufferView": 4,
   "componentType": 5126,
   "count": 192,
   "type": "VEC3",
   "min": [
    -1.7320507764816284,
    -1.632993221282959,
    -1.4142135381698608
   ],
   "max": [
    0.5773502588272095,
    0.8164966106414795,
    1.4142135381698608
   ]
  },
  {
   "bufferView": 5,
   "componentType": 5126,
   "count": 192,
   "type": "VEC3",
   "min": [
    -1.7297414541244507,
    -1.632993221282959,
    -2.82559871673584
   ],
   "max": [
    2.30709171295166,
    2.4478566646575928,
    1.4142135381698608
   ]
  },
  {
   "bufferView": 6,
   "componentType": 5126,
   "count": 192,
   "type": "VEC3",
   "min": [
    -1.7320507764816284,
    -1.632993221282959,
    -2.1213202476501465
   ],
   "max": [
    1.7320507764816284,
    2.041241407394409,
    1.4142135381698608
   ]
  },
  {
   "bufferView": 7,
   "componentType": 5126,
   "count": 192,
   "type": "VEC3",
   "min": [
    -1.7297414541244507,
    -1.632993221282959,
    -2.82559871673584
   ],
   "max": [
    2.30709171295166,
    2.4478566646575928,
    1.4142135381698608
   ]
  },
  {
   "bufferView": 8,
   "componentType": 5126,
   "count": 192,
   "type": "VEC3",
   "min": [
    -1.154700517654419,
    -1.632993221282959,
    -2.1213202476501465
   ],
   "max": [
    1.7320507764816284,
    2.041241407394409,
    1.4142135381698608
   ]
  },
  {
   "bufferView": 9,
   "componentType": 5126,
   "count": 192,
   "type": "VEC3",
   "min": [
    -1.154700517654419,
    -0.8164966106414795,
    -1.4142135381698608
   ],
   "max": [
    1.7320507764816284,
    1.632993221282959,
    1.4142135381698608
   ]
  },
  {
   "bufferView": 10,
   "componentType": 5126,
   "count": 42,
   "type": "SCALAR"
  },
  {
   "bufferView": 11,
   "componentType": 5126,
   "count": 7,
   "type": "SCALAR",
   "min": [
    0.0
   ],
   "max": [
    4.0
   ]
  }
 ],
 "bufferViews": [
  {
   "buffer": 0,
   "byteOffset": 0,
   "byteLength": 2304,
   "target": 34962
  },
  {
   "buffer": 0,
   "byteOffset": 2304,
   "byteLength": 2304,
   "target": 34962
  },
  {
   "buffer": 0,
   "byteOffset": 4608,
   "byteLength": 768,
   "target": 34962
  },
  {
   "buffer": 0,
   "byteOffset": 5376,
   "byteLength": 576,
   "target": 34963
  },
  {
   "buffer": 0,
   "byteOffset": 5952,
   "byteLength": 2304,
   "target": 34962
  },
  {
   "buffer": 0,
   "byteOffset": 8256,
   "byteLength": 2304,
   "target": 34962
  },
  {
   "buffer": 0,
   "byteOffset": 10560,
   "byteLength": 2304,
   "target": 34962
  },
  {
   "buffer": 0,
   "byteOffset": 12864,
   "byteLength": 2304,
   "target": 34962
  },
  {
   "buffer": 0,
   "byteOffset": 15168,
   "byteLength": 2304,
   "target": 34962
  },
  {
   "buffer": 0,
   "byteOffset": 17472,
   "byteLength": 2304,
   "target": 34962
  },
  {
   "buffer": 0,
   "byteOffset": 19776,
   "byteLength": 168
  },
  {
   "buffer": 0,
   "byteOffset": 19944,
   "byteLength": 28
  }
 ],
 "buffers": [
  {
   "byteLength": 19972,
   "uri": "data:application/octet-stream;base64,"
  }
 ]
}
