{"asset":{"version":"2.0","generator":"Baltor mesh_algorithms meshkit 1.0.0"},"scene":0,"scenes":[{"name":"scene","nodes":[0,1]}],"nodes":[{"name":"original","mesh":0},{"name":"simplified","mesh":1}],"meshes":[{"name":"original","primitives":[{"attributes":{"POSITION":0,"NORMAL":1},"indices":2,"material":0,"mode":4}]},{"name":"simplified","primitives":[{"attributes":{"POSITION":3,"NORMAL":4},"indices":5,"material":1,"mode":4}]}],"materials":[{"name":"original","pbrMetallicRoughness":{"baseColorFactor":[0.6,0.6,0.62,1.0],"metallicFactor":0.0,"roughnessFactor":0.6}},{"name":"simplified","pbrMetallicRoughness":{"baseColorFactor":[0.95,0.45,0.35,1.0],"metallicFactor":0.0,"roughnessFactor":0.6}}],"buffers":[{"byteLength":98160,"uri":"data:application/octet-stream;base64,"}],"bufferViews":[{"buffer":0,"byteOffset":0,"byteLength":28800,"target":34962},{"buffer":0,"byteOffset":28800,"byteLength":28800,"target":34962},{"buffer":0,"byteOffset":57600,"byteLength":28776,"target":34963},{"buffer":0,"byteOffset":86376,"byteLength":3936,"target":34962},{"buffer":0,"byteOffset":90312,"byteLength":3936,"target":34962},{"buffer":0,"byteOffset":94248,"byteLength":3912,"target":34963}],"accessors":[{"bufferView":0,"componentType":5126,"count":2400,"type":"VEC3","min":[-1.4348200559616089,-0.26491478085517883,-1.2013609409332275],"max":[1.8983057737350464,0.2648388147354126,1.6697877645492554]},{"bufferView":1,"componentType":5126,"count":2400,"type":"VEC3"},{"bufferView":2,"componentType":5123,"count":14388,"type":"SCALAR"},{"bufferView":3,"componentType":5126,"count":328,"type":"VEC3","min":[-1.447884440422058,-0.28479403257369995,-1.221656084060669],"max":[1.9192928075790405,0.2849137485027313,1.690300703048706]},{"bufferView":4,"componentType":5126,"count":328,"type":"VEC3"},{"bufferView":5,"componentType":5123,"count":1956,"type":"SCALAR"}]}
