<svg xmlns="http://www.w3.org/2000/svg" width="32" height="32" viewBox="0 0 32 32" role="img" aria-labelledby="title">
  <title id="title">Baltor lifted muzzle and upright chest, dedicated 32 pixel mark</title>
  <path d="m3 30 6-10Q6 14 10 9V2l6 6 4-3 1 6 3 2 5 1q3 1 1 4l-5 3q-4 1-3 6l2 3Z" fill="#092e5b"/>
  <path d="m12 6 2 4h-2Z" fill="#fff"/>
  <path d="M12 14q2-5 6-2l5 4 6-1-1 3-7 3-3 4v2l-5 3H7l5-10Z" fill="#fff"/>
  <path d="m18 12 3 1v1h-3Z" fill="#092e5b"/>
  <path d="m28 14 2 1-1 2-2-1Z" fill="#092e5b"/>
</svg>
