{"asset":{"version":"2.0","generator":"Baltor mesh_algorithms meshkit 1.0.0"},"scene":0,"scenes":[{"name":"scene","nodes":[0]}],"nodes":[{"name":"superellipsoid","mesh":0}],"meshes":[{"name":"superellipsoid","primitives":[{"attributes":{"POSITION":0,"NORMAL":1},"indices":2,"material":0,"mode":4}]}],"materials":[{"name":"superellipsoid","pbrMetallicRoughness":{"baseColorFactor":[0.74,0.62,0.86,1.0],"metallicFactor":0.0,"roughnessFactor":0.6}}],"buffers":[{"byteLength":39792,"uri":"data:application/octet-stream;base64,"}],"bufferViews":[{"buffer":0,"byteOffset":0,"byteLength":13272,"target":34962},{"buffer":0,"byteOffset":13272,"byteLength":13272,"target":34962},{"buffer":0,"byteOffset":26544,"byteLength":13248,"target":34963}],"accessors":[{"bufferView":0,"componentType":5126,"count":1106,"type":"VEC3","min":[-1.0,-0.800000011920929,-1.0],"max":[1.0,0.800000011920929,1.0]},{"bufferView":1,"componentType":5126,"count":1106,"type":"VEC3"},{"bufferView":2,"componentType":5123,"count":6624,"type":"SCALAR"}]}
