{"asset":{"version":"2.0","generator":"Baltor mesh_algorithms meshkit 1.0.0"},"scene":0,"scenes":[{"name":"scene","nodes":[0]}],"nodes":[{"name":"bezier_path","mesh":0}],"meshes":[{"name":"bezier_path","primitives":[{"attributes":{"POSITION":0,"NORMAL":1},"indices":2,"material":0,"mode":4}]}],"materials":[{"name":"bezier","pbrMetallicRoughness":{"baseColorFactor":[0.36,0.62,0.92,1.0],"metallicFactor":0.0,"roughnessFactor":0.6}}],"buffers":[{"byteLength":41736,"uri":"data:application/octet-stream;base64,"}],"bufferViews":[{"buffer":0,"byteOffset":0,"byteLength":13920,"target":34962},{"buffer":0,"byteOffset":13920,"byteLength":13920,"target":34962},{"buffer":0,"byteOffset":27840,"byteLength":13896,"target":34963}],"accessors":[{"bufferView":0,"componentType":5126,"count":1160,"type":"VEC3","min":[-2.0352089405059814,-0.48987895250320435,-0.09761497378349304],"max":[2.0353522300720215,0.4895167946815491,0.09674397855997086]},{"bufferView":1,"componentType":5126,"count":1160,"type":"VEC3"},{"bufferView":2,"componentType":5123,"count":6948,"type":"SCALAR"}]}
