{
 "asset": {
  "version": "2.0",
  "generator": "schlegel_diagram.py"
 },
 "scene": 0,
 "scenes": [
  {
   "nodes": [
    0,
    1
   ]
  }
 ],
 "nodes": [
  {
   "name": "schlegel",
   "mesh": 0
  },
  {
   "name": "outer_cell",
   "mesh": 1
  }
 ],
 "meshes": [
  {
   "name": "schlegel",
   "primitives": [
    {
     "attributes": {
      "POSITION": 0,
      "NORMAL": 1,
      "COLOR_0": 2
     },
     "mode": 4,
     "material": 0,
     "indices": 3
    }
   ]
  },
  {
   "name": "outer_cell",
   "primitives": [
    {
     "attributes": {
      "POSITION": 4,
      "NORMAL": 5
     },
     "mode": 4,
     "material": 1,
     "indices": 6
    }
   ]
  }
 ],
 "materials": [
  {
   "name": "schlegel_material",
   "pbrMetallicRoughness": {
    "baseColorFactor": [
     0.82,
     0.84,
     0.9,
     1.0
    ],
    "metallicFactor": 0.0,
    "roughnessFactor": 0.55
   },
   "doubleSided": true
  },
  {
   "name": "outer_cell_material",
   "pbrMetallicRoughness": {
    "baseColorFactor": [
     0.75,
     0.8,
     0.95,
     0.18
    ],
    "metallicFactor": 0.0,
    "roughnessFactor": 0.55
   },
   "doubleSided": true,
   "alphaMode": "BLEND"
  }
 ],
 "accessors": [
  {
   "bufferView": 0,
   "componentType": 5126,
   "count": 1440,
   "type": "VEC3",
   "min": [
    -0.7208210229873657,
    -0.7208210229873657,
    -0.7208210229873657
   ],
   "max": [
    0.7208210229873657,
    0.7208210229873657,
    0.7208210229873657
   ]
  },
  {
   "bufferView": 1,
   "componentType": 5126,
   "count": 1440,
   "type": "VEC3"
  },
  {
   "bufferView": 2,
   "componentType": 5121,
   "normalized": true,
   "count": 1440,
   "type": "VEC4"
  },
  {
   "bufferView": 3,
   "componentType": 5123,
   "count": 4896,
   "type": "SCALAR"
  },
  {
   "bufferView": 4,
   "componentType": 5126,
   "count": 24,
   "type": "VEC3",
   "min": [
    -0.7071067690849304,
    -0.7071067690849304,
    -0.7071067690849304
   ],
   "max": [
    0.7071067690849304,
    0.7071067690849304,
    0.7071067690849304
   ]
  },
  {
   "bufferView": 5,
   "componentType": 5126,
   "count": 24,
   "type": "VEC3"
  },
  {
   "bufferView": 6,
   "componentType": 5123,
   "count": 24,
   "type": "SCALAR"
  }
 ],
 "bufferViews": [
  {
   "buffer": 0,
   "byteOffset": 0,
   "byteLength": 17280,
   "target": 34962
  },
  {
   "buffer": 0,
   "byteOffset": 17280,
   "byteLength": 17280,
   "target": 34962
  },
  {
   "buffer": 0,
   "byteOffset": 34560,
   "byteLength": 5760,
   "target": 34962
  },
  {
   "buffer": 0,
   "byteOffset": 40320,
   "byteLength": 9792,
   "target": 34963
  },
  {
   "buffer": 0,
   "byteOffset": 50112,
   "byteLength": 288,
   "target": 34962
  },
  {
   "buffer": 0,
   "byteOffset": 50400,
   "byteLength": 288,
   "target": 34962
  },
  {
   "buffer": 0,
   "byteOffset": 50688,
   "byteLength": 48,
   "target": 34963
  }
 ],
 "buffers": [
  {
   "byteLength": 50736,
   "uri": "data:application/octet-stream;base64,"
  }
 ]
}
