{
 "asset": {
  "version": "2.0",
  "generator": "three_sphere_sampling.py"
 },
 "scene": 0,
 "scenes": [
  {
   "nodes": [
    0
   ]
  }
 ],
 "nodes": [
  {
   "name": "s3_super_fibonacci",
   "mesh": 0
  }
 ],
 "meshes": [
  {
   "name": "s3_super_fibonacci",
   "primitives": [
    {
     "attributes": {
      "POSITION": 0,
      "COLOR_0": 1
     },
     "mode": 0,
     "material": 0
    }
   ]
  }
 ],
 "materials": [
  {
   "name": "s3_super_fibonacci_material",
   "pbrMetallicRoughness": {
    "baseColorFactor": [
     0.82,
     0.84,
     0.9,
     1.0
    ],
    "metallicFactor": 0.0,
    "roughnessFactor": 0.55
   },
   "doubleSided": true,
   "extensions": {
    "KHR_materials_unlit": {}
   }
  }
 ],
 "extensionsUsed": [
  "KHR_materials_unlit"
 ],
 "accessors": [
  {
   "bufferView": 0,
   "componentType": 5126,
   "count": 1896,
   "type": "VEC3",
   "min": [
    -2.8679399490356445,
    -2.8429768085479736,
    -2.754279613494873
   ],
   "max": [
    2.828193187713623,
    2.862729787826538,
    2.875792980194092
   ]
  },
  {
   "bufferView": 1,
   "componentType": 5121,
   "normalized": true,
   "count": 1896,
   "type": "VEC4"
  }
 ],
 "bufferViews": [
  {
   "buffer": 0,
   "byteOffset": 0,
   "byteLength": 22752,
   "target": 34962
  },
  {
   "buffer": 0,
   "byteOffset": 22752,
   "byteLength": 7584,
   "target": 34962
  }
 ],
 "buffers": [
  {
   "byteLength": 30336,
   "uri": "data:application/octet-stream;base64,"
  }
 ]
}
