{"asset":{"version":"2.0","generator":"Baltor mesh_algorithms meshkit 1.0.0"},"scene":0,"scenes":[{"name":"scene","nodes":[0]}],"nodes":[{"name":"torus_knot","mesh":0}],"meshes":[{"name":"torus_knot","primitives":[{"attributes":{"POSITION":0,"NORMAL":1},"indices":2,"material":0,"mode":4}]}],"materials":[{"name":"torus_knot","pbrMetallicRoughness":{"baseColorFactor":[0.88,0.66,0.3,1.0],"metallicFactor":0.3,"roughnessFactor":0.4}}],"buffers":[{"byteLength":77760,"uri":"data:application/octet-stream;base64,"}],"bufferViews":[{"buffer":0,"byteOffset":0,"byteLength":25920,"target":34962},{"buffer":0,"byteOffset":25920,"byteLength":25920,"target":34962},{"buffer":0,"byteOffset":51840,"byteLength":25920,"target":34963}],"accessors":[{"bufferView":0,"componentType":5126,"count":2160,"type":"VEC3","min":[-1.2249691486358643,-0.4966759979724884,-1.4248663187026978],"max":[1.5,0.4966759979724884,1.4248663187026978]},{"bufferView":1,"componentType":5126,"count":2160,"type":"VEC3"},{"bufferView":2,"componentType":5123,"count":12960,"type":"SCALAR"}]}
