{"asset":{"version":"2.0","generator":"Baltor mesh_algorithms meshkit 1.0.0"},"scene":0,"scenes":[{"name":"scene","nodes":[0]}],"nodes":[{"name":"filleted_outline","mesh":0}],"meshes":[{"name":"filleted_outline","primitives":[{"attributes":{"POSITION":0,"NORMAL":1},"indices":2,"material":0,"mode":4}]}],"materials":[{"name":"fillet","pbrMetallicRoughness":{"baseColorFactor":[0.55,0.8,0.7,1.0],"metallicFactor":0.0,"roughnessFactor":0.6},"doubleSided":true}],"buffers":[{"byteLength":1608,"uri":"data:application/octet-stream;base64,"}],"bufferViews":[{"buffer":0,"byteOffset":0,"byteLength":648,"target":34962},{"buffer":0,"byteOffset":648,"byteLength":648,"target":34962},{"buffer":0,"byteOffset":1296,"byteLength":312,"target":34963}],"accessors":[{"bufferView":0,"componentType":5126,"count":54,"type":"VEC3","min":[-1.5,0.0,-1.0],"max":[1.5,0.0,1.0]},{"bufferView":1,"componentType":5126,"count":54,"type":"VEC3"},{"bufferView":2,"componentType":5123,"count":156,"type":"SCALAR"}]}
