{
 "asset": {
  "version": "2.0",
  "generator": "quaternion_pair_rotations.py"
 },
 "scene": 0,
 "scenes": [
  {
   "nodes": [
    0,
    1
   ]
  }
 ],
 "nodes": [
  {
   "name": "left_isoclinic",
   "mesh": 0,
   "translation": [
    -1.2,
    0.0,
    0.0
   ]
  },
  {
   "name": "right_isoclinic",
   "mesh": 1,
   "translation": [
    1.2,
    0.0,
    0.0
   ]
  }
 ],
 "meshes": [
  {
   "name": "left_isoclinic",
   "primitives": [
    {
     "attributes": {
      "POSITION": 0,
      "COLOR_0": 1
     },
     "mode": 4,
     "material": 0,
     "indices": 2,
     "targets": [
      {
       "POSITION": 3
      },
      {
       "POSITION": 4
      },
      {
       "POSITION": 5
      },
      {
       "POSITION": 6
      },
      {
       "POSITION": 7
      },
      {
       "POSITION": 8
      },
      {
       "POSITION": 9
      },
      {
       "POSITION": 10
      },
      {
       "POSITION": 11
      },
      {
       "POSITION": 12
      },
      {
       "POSITION": 13
      },
      {
       "POSITION": 14
      },
      {
       "POSITION": 15
      },
      {
       "POSITION": 16
      },
      {
       "POSITION": 17
      },
      {
       "POSITION": 18
      },
      {
       "POSITION": 19
      },
      {
       "POSITION": 20
      },
      {
       "POSITION": 21
      },
      {
       "POSITION": 22
      },
      {
       "POSITION": 23
      },
      {
       "POSITION": 24
      },
      {
       "POSITION": 25
      },
      {
       "POSITION": 26
      },
      {
       "POSITION": 27
      },
      {
       "POSITION": 28
      },
      {
       "POSITION": 29
      },
      {
       "POSITION": 30
      }
     ]
    }
   ],
   "weights": [
    0.0,
    0.0,
    0.0,
    0.0,
    0.0,
    0.0,
    0.0,
    0.0,
    0.0,
    0.0,
    0.0,
    0.0,
    0.0,
    0.0,
    0.0,
    0.0,
    0.0,
    0.0,
    0.0,
    0.0,
    0.0,
    0.0,
    0.0,
    0.0,
    0.0,
    0.0,
    0.0,
    0.0
   ]
  },
  {
   "name": "right_isoclinic",
   "primitives": [
    {
     "attributes": {
      "POSITION": 31,
      "COLOR_0": 32
     },
     "mode": 4,
     "material": 1,
     "indices": 33,
     "targets": [
      {
       "POSITION": 34
      },
      {
       "POSITION": 35
      },
      {
       "POSITION": 36
      },
      {
       "POSITION": 37
      },
      {
       "POSITION": 38
      },
      {
       "POSITION": 39
      },
      {
       "POSITION": 40
      },
      {
       "POSITION": 41
      },
      {
       "POSITION": 42
      },
      {
       "POSITION": 43
      },
      {
       "POSITION": 44
      },
      {
       "POSITION": 45
      },
      {
       "POSITION": 46
      },
      {
       "POSITION": 47
      },
      {
       "POSITION": 48
      },
      {
       "POSITION": 49
      },
      {
       "POSITION": 50
      },
      {
       "POSITION": 51
      },
      {
       "POSITION": 52
      },
      {
       "POSITION": 53
      },
      {
       "POSITION": 54
      },
      {
       "POSITION": 55
      },
      {
       "POSITION": 56
      },
      {
       "POSITION": 57
      },
      {
       "POSITION": 58
      },
      {
       "POSITION": 59
      },
      {
       "POSITION": 60
      },
      {
       "POSITION": 61
      }
     ]
    }
   ],
   "weights": [
    0.0,
    0.0,
    0.0,
    0.0,
    0.0,
    0.0,
    0.0,
    0.0,
    0.0,
    0.0,
    0.0,
    0.0,
    0.0,
    0.0,
    0.0,
    0.0,
    0.0,
    0.0,
    0.0,
    0.0,
    0.0,
    0.0,
    0.0,
    0.0,
    0.0,
    0.0,
    0.0,
    0.0
   ]
  }
 ],
 "materials": [
  {
   "name": "left_isoclinic_material",
   "pbrMetallicRoughness": {
    "baseColorFactor": [
     0.82,
     0.84,
     0.9,
     1.0
    ],
    "metallicFactor": 0.0,
    "roughnessFactor": 0.55
   },
   "doubleSided": true,
   "extensions": {
    "KHR_materials_unlit": {}
   }
  },
  {
   "name": "right_isoclinic_material",
   "pbrMetallicRoughness": {
    "baseColorFactor": [
     0.82,
     0.84,
     0.9,
     1.0
    ],
    "metallicFactor": 0.0,
    "roughnessFactor": 0.55
   },
   "doubleSided": true,
   "extensions": {
    "KHR_materials_unlit": {}
   }
  }
 ],
 "animations": [
  {
   "name": "isoclinic_loops",
   "samplers": [
    {
     "input": 63,
     "output": 62,
     "interpolation": "LINEAR"
    },
    {
     "input": 65,
     "output": 64,
     "interpolation": "LINEAR"
    }
   ],
   "channels": [
    {
     "sampler": 0,
     "target": {
      "node": 0,
      "path": "weights"
     }
    },
    {
     "sampler": 1,
     "target": {
      "node": 1,
      "path": "weights"
     }
    }
   ]
  }
 ],
 "extensionsUsed": [
  "KHR_materials_unlit"
 ],
 "accessors": [
  {
   "bufferView": 0,
   "componentType": 5126,
   "count": 144,
   "type": "VEC3",
   "min": [
    -1.0183712244033813,
    -1.021213173866272,
    -1.021213173866272
   ],
   "max": [
    1.0183712244033813,
    1.021213173866272,
    1.021213173866272
   ]
  },
  {
   "bufferView": 1,
   "componentType": 5121,
   "normalized": true,
   "count": 144,
   "type": "VEC4"
  },
  {
   "bufferView": 2,
   "componentType": 5123,
   "count": 432,
   "type": "SCALAR"
  },
  {
   "bufferView": 3,
   "componentType": 5126,
   "count": 144,
   "type": "VEC3",
   "min": [
    -0.22706951200962067,
    -0.22706951200962067,
    -0.16297373175621033
   ],
   "max": [
    0.22706951200962067,
    0.22749359905719757,
    0.35879597067832947
   ]
  },
  {
   "bufferView": 4,
   "componentType": 5126,
   "count": 144,
   "type": "VEC3",
   "min": [
    -0.4436739981174469,
    -0.48308873176574707,
    -0.3763091266155243
   ],
   "max": [
    0.4436739981174469,
    0.48669448494911194,
    0.7103762030601501
   ]
  },
  {
   "bufferView": 5,
   "componentType": 5126,
   "count": 144,
   "type": "VEC3",
   "min": [
    -0.6389520764350891,
    -0.6704517006874084,
    -0.5331313014030457
   ],
   "max": [
    0.6389520764350891,
    0.673134446144104,
    0.9387891888618469
   ]
  },
  {
   "bufferView": 6,
   "componentType": 5126,
   "count": 144,
   "type": "VEC3",
   "min": [
    -0.8031115531921387,
    -0.8265874981880188,
    -0.6839599609375
   ],
   "max": [
    0.8031115531921387,
    0.8278944492340088,
    1.076615571975708
   ]
  },
  {
   "bufferView": 7,
   "componentType": 5126,
   "count": 144,
   "type": "VEC3",
   "min": [
    -0.927920937538147,
    -0.943372905254364,
    -0.824898362159729
   ],
   "max": [
    0.927920937538147,
    0.9434854388237,
    1.1306400299072266
   ]
  },
  {
   "bufferView": 8,
   "componentType": 5126,
   "count": 144,
   "type": "VEC3",
   "min": [
    -1.0009379386901855,
    -1.0152976512908936,
    -0.9501320123672485
   ],
   "max": [
    0.9977350831031799,
    1.0152976512908936,
    1.1164212226867676
   ]
  },
  {
   "bufferView": 9,
   "componentType": 5126,
   "count": 144,
   "type": "VEC3",
   "min": [
    -1.0259807109832764,
    -1.0367423295974731,
    -1.0512131452560425
   ],
   "max": [
    1.0259807109832764,
    1.0367423295974731,
    1.0512131452560425
   ]
  },
  {
   "bufferView": 10,
   "componentType": 5126,
   "count": 144,
   "type": "VEC3",
   "min": [
    -1.2481988668441772,
    -1.2628906965255737,
    -1.194070816040039
   ],
   "max": [
    1.2481988668441772,
    1.2628906965255737,
    1.3866106271743774
   ]
  },
  {
   "bufferView": 11,
   "componentType": 5126,
   "count": 144,
   "type": "VEC3",
   "min": [
    -1.4587117433547974,
    -1.4767776727676392,
    -1.3675223588943481
   ],
   "max": [
    1.4587117433547974,
    1.480210304260254,
    1.7015894651412964
   ]
  },
  {
   "bufferView": 12,
   "componentType": 5126,
   "count": 144,
   "type": "VEC3",
   "min": [
    -1.6468881368637085,
    -1.6676783561706543,
    -1.524344563484192
   ],
   "max": [
    1.6468881368637085,
    1.6692880392074585,
    1.9300023317337036
   ]
  },
  {
   "bufferView": 13,
   "componentType": 5126,
   "count": 144,
   "type": "VEC3",
   "min": [
    -1.8031115531921387,
    -1.8260200023651123,
    -1.6751731634140015
   ],
   "max": [
    1.8031115531921387,
    1.8269273042678833,
    2.06782865524292
   ]
  },
  {
   "bufferView": 14,
   "componentType": 5126,
   "count": 144,
   "type": "VEC3",
   "min": [
    -1.927920937538147,
    -1.943862795829773,
    -1.8161115646362305
   ],
   "max": [
    1.927920937538147,
    1.9452310800552368,
    2.1218531131744385
   ]
  },
  {
   "bufferView": 15,
   "componentType": 5126,
   "count": 144,
   "type": "VEC3",
   "min": [
    -1.9851890802383423,
    -2.0164666175842285,
    -1.94134521484375
   ],
   "max": [
    1.9852184057235718,
    2.018280506134033,
    2.1076345443725586
   ]
  },
  {
   "bufferView": 16,
   "componentType": 5126,
   "count": 144,
   "type": "VEC3",
   "min": [
    -2.0,
    -2.042426347732544,
    -2.042426347732544
   ],
   "max": [
    2.0,
    2.042426347732544,
    2.042426347732544
   ]
  },
  {
   "bufferView": 17,
   "componentType": 5126,
   "count": 144,
   "type": "VEC3",
   "min": [
    -1.9852184057235718,
    -2.018280506134033,
    -2.1076345443725586
   ],
   "max": [
    1.9851890802383423,
    2.0164666175842285,
    1.94134521484375
   ]
  },
  {
   "bufferView": 18,
   "componentType": 5126,
   "count": 144,
   "type": "VEC3",
   "min": [
    -1.9181362390518188,
    -1.9452310800552368,
    -2.1218531131744385
   ],
   "max": [
    1.9181362390518188,
    1.9417037963867188,
    1.8161115646362305
   ]
  },
  {
   "bufferView": 19,
   "componentType": 5126,
   "count": 144,
   "type": "VEC3",
   "min": [
    -1.8029296398162842,
    -1.8269273042678833,
    -2.06782865524292
   ],
   "max": [
    1.8029296398162842,
    1.8218790292739868,
    1.6751731634140015
   ]
  },
  {
   "bufferView": 20,
   "componentType": 5126,
   "count": 144,
   "type": "VEC3",
   "min": [
    -1.6468881368637085,
    -1.6692880392074585,
    -1.9300023317337036
   ],
   "max": [
    1.6468881368637085,
    1.6629880666732788,
    1.524344563484192
   ]
  },
  {
   "bufferView": 21,
   "componentType": 5126,
   "count": 144,
   "type": "VEC3",
   "min": [
    -1.4608358144760132,
    -1.480210304260254,
    -1.7015894651412964
   ],
   "max": [
    1.4608358144760132,
    1.472983479499817,
    1.3675223588943481
   ]
  },
  {
   "bufferView": 22,
   "componentType": 5126,
   "count": 144,
   "type": "VEC3",
   "min": [
    -1.2481988668441772,
    -1.2628906965255737,
    -1.4054107666015625
   ],
   "max": [
    1.2481988668441772,
    1.2628906965255737,
    1.2126449346542358
   ]
  },
  {
   "bufferView": 23,
   "componentType": 5126,
   "count": 144,
   "type": "VEC3",
   "min": [
    -1.0259807109832764,
    -1.0367423295974731,
    -1.0512131452560425
   ],
   "max": [
    1.0259807109832764,
    1.0367423295974731,
    1.0512131452560425
   ]
  },
  {
   "bufferView": 24,
   "componentType": 5126,
   "count": 144,
   "type": "VEC3",
   "min": [
    -1.0089950561523438,
    -1.0152976512908936,
    -1.0950745344161987
   ],
   "max": [
    1.0111699104309082,
    1.0152976512908936,
    0.9277514219284058
   ]
  },
  {
   "bufferView": 25,
   "componentType": 5126,
   "count": 144,
   "type": "VEC3",
   "min": [
    -0.9135850667953491,
    -0.9438628554344177,
    -1.1056013107299805
   ],
   "max": [
    0.9135850667953491,
    0.9438628554344177,
    0.7959227561950684
   ]
  },
  {
   "bufferView": 26,
   "componentType": 5126,
   "count": 144,
   "type": "VEC3",
   "min": [
    -0.7972937226295471,
    -0.8260200619697571,
    -1.0477927923202515
   ],
   "max": [
    0.7972937226295471,
    0.8260200619697571,
    0.6472808122634888
   ]
  },
  {
   "bufferView": 27,
   "componentType": 5126,
   "count": 144,
   "type": "VEC3",
   "min": [
    -0.6447699069976807,
    -0.6676783561706543,
    -0.9104256629943848
   ],
   "max": [
    0.6447699069976807,
    0.6676783561706543,
    0.49362027645111084
   ]
  },
  {
   "bufferView": 28,
   "componentType": 5126,
   "count": 144,
   "type": "VEC3",
   "min": [
    -0.4608358144760132,
    -0.47677773237228394,
    -0.6870841979980469
   ],
   "max": [
    0.4608358144760132,
    0.47677773237228394,
    0.33846569061279297
   ]
  },
  {
   "bufferView": 29,
   "componentType": 5126,
   "count": 144,
   "type": "VEC3",
   "min": [
    -0.22706951200962067,
    -0.22749359905719757,
    -0.35879597067832947
   ],
   "max": [
    0.22706951200962067,
    0.22706951200962067,
    0.16297373175621033
   ]
  },
  {
   "bufferView": 30,
   "componentType": 5126,
   "count": 144,
   "type": "VEC3",
   "min": [
    -2.498001805406602e-16,
    -2.498001805406602e-16,
    -3.9898639947466563e-16
   ],
   "max": [
    2.498001805406602e-16,
    2.498001805406602e-16,
    2.220446049250313e-16
   ]
  },
  {
   "bufferView": 31,
   "componentType": 5126,
   "count": 144,
   "type": "VEC3",
   "min": [
    -1.0183712244033813,
    -1.021213173866272,
    -1.021213173866272
   ],
   "max": [
    1.0183712244033813,
    1.021213173866272,
    1.021213173866272
   ]
  },
  {
   "bufferView": 32,
   "componentType": 5121,
   "normalized": true,
   "count": 144,
   "type": "VEC4"
  },
  {
   "bufferView": 33,
   "componentType": 5123,
   "count": 432,
   "type": "SCALAR"
  },
  {
   "bufferView": 34,
   "componentType": 5126,
   "count": 144,
   "type": "VEC3",
   "min": [
    -0.22706951200962067,
    -0.22706951200962067,
    -0.16297373175621033
   ],
   "max": [
    0.22706951200962067,
    0.22749359905719757,
    0.35879597067832947
   ]
  },
  {
   "bufferView": 35,
   "componentType": 5126,
   "count": 144,
   "type": "VEC3",
   "min": [
    -0.4608358144760132,
    -0.47677773237228394,
    -0.33846569061279297
   ],
   "max": [
    0.4608358144760132,
    0.47677773237228394,
    0.6870841979980469
   ]
  },
  {
   "bufferView": 36,
   "componentType": 5126,
   "count": 144,
   "type": "VEC3",
   "min": [
    -0.6447699069976807,
    -0.6676783561706543,
    -0.49362027645111084
   ],
   "max": [
    0.6447699069976807,
    0.6676783561706543,
    0.9104256629943848
   ]
  },
  {
   "bufferView": 37,
   "componentType": 5126,
   "count": 144,
   "type": "VEC3",
   "min": [
    -0.7972937226295471,
    -0.8260200619697571,
    -0.6472808122634888
   ],
   "max": [
    0.7972937226295471,
    0.8260200619697571,
    1.0477927923202515
   ]
  },
  {
   "bufferView": 38,
   "componentType": 5126,
   "count": 144,
   "type": "VEC3",
   "min": [
    -0.9135850667953491,
    -0.9438628554344177,
    -0.7959227561950684
   ],
   "max": [
    0.9135850667953491,
    0.9438628554344177,
    1.1056013107299805
   ]
  },
  {
   "bufferView": 39,
   "componentType": 5126,
   "count": 144,
   "type": "VEC3",
   "min": [
    -1.0111699104309082,
    -1.0152976512908936,
    -0.9277514219284058
   ],
   "max": [
    1.0089950561523438,
    1.0152976512908936,
    1.0950745344161987
   ]
  },
  {
   "bufferView": 40,
   "componentType": 5126,
   "count": 144,
   "type": "VEC3",
   "min": [
    -1.0259807109832764,
    -1.0367423295974731,
    -1.0512131452560425
   ],
   "max": [
    1.0259807109832764,
    1.0367423295974731,
    1.0512131452560425
   ]
  },
  {
   "bufferView": 41,
   "componentType": 5126,
   "count": 144,
   "type": "VEC3",
   "min": [
    -1.2481988668441772,
    -1.2628906965255737,
    -1.2126449346542358
   ],
   "max": [
    1.2481988668441772,
    1.2628906965255737,
    1.4054107666015625
   ]
  },
  {
   "bufferView": 42,
   "componentType": 5126,
   "count": 144,
   "type": "VEC3",
   "min": [
    -1.4608358144760132,
    -1.472983479499817,
    -1.3675223588943481
   ],
   "max": [
    1.4608358144760132,
    1.480210304260254,
    1.7015894651412964
   ]
  },
  {
   "bufferView": 43,
   "componentType": 5126,
   "count": 144,
   "type": "VEC3",
   "min": [
    -1.6468881368637085,
    -1.6629880666732788,
    -1.524344563484192
   ],
   "max": [
    1.6468881368637085,
    1.6692880392074585,
    1.9300023317337036
   ]
  },
  {
   "bufferView": 44,
   "componentType": 5126,
   "count": 144,
   "type": "VEC3",
   "min": [
    -1.8029296398162842,
    -1.8218790292739868,
    -1.6751731634140015
   ],
   "max": [
    1.8029296398162842,
    1.8269273042678833,
    2.06782865524292
   ]
  },
  {
   "bufferView": 45,
   "componentType": 5126,
   "count": 144,
   "type": "VEC3",
   "min": [
    -1.9181362390518188,
    -1.9417037963867188,
    -1.8161115646362305
   ],
   "max": [
    1.9181362390518188,
    1.9452310800552368,
    2.1218531131744385
   ]
  },
  {
   "bufferView": 46,
   "componentType": 5126,
   "count": 144,
   "type": "VEC3",
   "min": [
    -1.9851890802383423,
    -2.0164666175842285,
    -1.94134521484375
   ],
   "max": [
    1.9852184057235718,
    2.018280506134033,
    2.1076345443725586
   ]
  },
  {
   "bufferView": 47,
   "componentType": 5126,
   "count": 144,
   "type": "VEC3",
   "min": [
    -2.0,
    -2.042426347732544,
    -2.042426347732544
   ],
   "max": [
    2.0,
    2.042426347732544,
    2.042426347732544
   ]
  },
  {
   "bufferView": 48,
   "componentType": 5126,
   "count": 144,
   "type": "VEC3",
   "min": [
    -1.9852184057235718,
    -2.018280506134033,
    -2.1076345443725586
   ],
   "max": [
    1.9851890802383423,
    2.0164666175842285,
    1.94134521484375
   ]
  },
  {
   "bufferView": 49,
   "componentType": 5126,
   "count": 144,
   "type": "VEC3",
   "min": [
    -1.927920937538147,
    -1.9452310800552368,
    -2.1218531131744385
   ],
   "max": [
    1.927920937538147,
    1.943862795829773,
    1.8161115646362305
   ]
  },
  {
   "bufferView": 50,
   "componentType": 5126,
   "count": 144,
   "type": "VEC3",
   "min": [
    -1.8031115531921387,
    -1.8269273042678833,
    -2.06782865524292
   ],
   "max": [
    1.8031115531921387,
    1.8260200023651123,
    1.6751731634140015
   ]
  },
  {
   "bufferView": 51,
   "componentType": 5126,
   "count": 144,
   "type": "VEC3",
   "min": [
    -1.6468881368637085,
    -1.6692880392074585,
    -1.9300023317337036
   ],
   "max": [
    1.6468881368637085,
    1.6676783561706543,
    1.524344563484192
   ]
  },
  {
   "bufferView": 52,
   "componentType": 5126,
   "count": 144,
   "type": "VEC3",
   "min": [
    -1.4587117433547974,
    -1.480210304260254,
    -1.7015894651412964
   ],
   "max": [
    1.4587117433547974,
    1.4767776727676392,
    1.3675223588943481
   ]
  },
  {
   "bufferView": 53,
   "componentType": 5126,
   "count": 144,
   "type": "VEC3",
   "min": [
    -1.2481988668441772,
    -1.2628906965255737,
    -1.3866106271743774
   ],
   "max": [
    1.2481988668441772,
    1.2628906965255737,
    1.194070816040039
   ]
  },
  {
   "bufferView": 54,
   "componentType": 5126,
   "count": 144,
   "type": "VEC3",
   "min": [
    -1.0259807109832764,
    -1.0367423295974731,
    -1.0512131452560425
   ],
   "max": [
    1.0259807109832764,
    1.0367423295974731,
    1.0512131452560425
   ]
  },
  {
   "bufferView": 55,
   "componentType": 5126,
   "count": 144,
   "type": "VEC3",
   "min": [
    -0.9977350831031799,
    -1.0152976512908936,
    -1.1164212226867676
   ],
   "max": [
    1.0009379386901855,
    1.0152976512908936,
    0.9501320123672485
   ]
  },
  {
   "bufferView": 56,
   "componentType": 5126,
   "count": 144,
   "type": "VEC3",
   "min": [
    -0.927920937538147,
    -0.9434854388237,
    -1.1306400299072266
   ],
   "max": [
    0.927920937538147,
    0.943372905254364,
    0.824898362159729
   ]
  },
  {
   "bufferView": 57,
   "componentType": 5126,
   "count": 144,
   "type": "VEC3",
   "min": [
    -0.8031115531921387,
    -0.8278944492340088,
    -1.076615571975708
   ],
   "max": [
    0.8031115531921387,
    0.8265874981880188,
    0.6839599609375
   ]
  },
  {
   "bufferView": 58,
   "componentType": 5126,
   "count": 144,
   "type": "VEC3",
   "min": [
    -0.6389520764350891,
    -0.673134446144104,
    -0.9387891888618469
   ],
   "max": [
    0.6389520764350891,
    0.6704517006874084,
    0.5331313014030457
   ]
  },
  {
   "bufferView": 59,
   "componentType": 5126,
   "count": 144,
   "type": "VEC3",
   "min": [
    -0.4436739981174469,
    -0.48669448494911194,
    -0.7103762030601501
   ],
   "max": [
    0.4436739981174469,
    0.48308873176574707,
    0.3763091266155243
   ]
  },
  {
   "bufferView": 60,
   "componentType": 5126,
   "count": 144,
   "type": "VEC3",
   "min": [
    -0.22706951200962067,
    -0.22749359905719757,
    -0.35879597067832947
   ],
   "max": [
    0.22706951200962067,
    0.22706951200962067,
    0.16297373175621033
   ]
  },
  {
   "bufferView": 61,
   "componentType": 5126,
   "count": 144,
   "type": "VEC3",
   "min": [
    -2.498001805406602e-16,
    -2.498001805406602e-16,
    -3.9898639947466563e-16
   ],
   "max": [
    2.498001805406602e-16,
    2.498001805406602e-16,
    3.3306690738754696e-16
   ]
  },
  {
   "bufferView": 62,
   "componentType": 5126,
   "count": 812,
   "type": "SCALAR"
  },
  {
   "bufferView": 63,
   "componentType": 5126,
   "count": 29,
   "type": "SCALAR",
   "min": [
    0.0
   ],
   "max": [
    6.0
   ]
  },
  {
   "bufferView": 64,
   "componentType": 5126,
   "count": 812,
   "type": "SCALAR"
  },
  {
   "bufferView": 65,
   "componentType": 5126,
   "count": 29,
   "type": "SCALAR",
   "min": [
    0.0
   ],
   "max": [
    6.0
   ]
  }
 ],
 "bufferViews": [
  {
   "buffer": 0,
   "byteOffset": 0,
   "byteLength": 1728,
   "target": 34962
  },
  {
   "buffer": 0,
   "byteOffset": 1728,
   "byteLength": 576,
   "target": 34962
  },
  {
   "buffer": 0,
   "byteOffset": 2304,
   "byteLength": 864,
   "target": 34963
  },
  {
   "buffer": 0,
   "byteOffset": 3168,
   "byteLength": 1728,
   "target": 34962
  },
  {
   "buffer": 0,
   "byteOffset": 4896,
   "byteLength": 1728,
   "target": 34962
  },
  {
   "buffer": 0,
   "byteOffset": 6624,
   "byteLength": 1728,
   "target": 34962
  },
  {
   "buffer": 0,
   "byteOffset": 8352,
   "byteLength": 1728,
   "target": 34962
  },
  {
   "buffer": 0,
   "byteOffset": 10080,
   "byteLength": 1728,
   "target": 34962
  },
  {
   "buffer": 0,
   "byteOffset": 11808,
   "byteLength": 1728,
   "target": 34962
  },
  {
   "buffer": 0,
   "byteOffset": 13536,
   "byteLength": 1728,
   "target": 34962
  },
  {
   "buffer": 0,
   "byteOffset": 15264,
   "byteLength": 1728,
   "target": 34962
  },
  {
   "buffer": 0,
   "byteOffset": 16992,
   "byteLength": 1728,
   "target": 34962
  },
  {
   "buffer": 0,
   "byteOffset": 18720,
   "byteLength": 1728,
   "target": 34962
  },
  {
   "buffer": 0,
   "byteOffset": 20448,
   "byteLength": 1728,
   "target": 34962
  },
  {
   "buffer": 0,
   "byteOffset": 22176,
   "byteLength": 1728,
   "target": 34962
  },
  {
   "buffer": 0,
   "byteOffset": 23904,
   "byteLength": 1728,
   "target": 34962
  },
  {
   "buffer": 0,
   "byteOffset": 25632,
   "byteLength": 1728,
   "target": 34962
  },
  {
   "buffer": 0,
   "byteOffset": 27360,
   "byteLength": 1728,
   "target": 34962
  },
  {
   "buffer": 0,
   "byteOffset": 29088,
   "byteLength": 1728,
   "target": 34962
  },
  {
   "buffer": 0,
   "byteOffset": 30816,
   "byteLength": 1728,
   "target": 34962
  },
  {
   "buffer": 0,
   "byteOffset": 32544,
   "byteLength": 1728,
   "target": 34962
  },
  {
   "buffer": 0,
   "byteOffset": 34272,
   "byteLength": 1728,
   "target": 34962
  },
  {
   "buffer": 0,
   "byteOffset": 36000,
   "byteLength": 1728,
   "target": 34962
  },
  {
   "buffer": 0,
   "byteOffset": 37728,
   "byteLength": 1728,
   "target": 34962
  },
  {
   "buffer": 0,
   "byteOffset": 39456,
   "byteLength": 1728,
   "target": 34962
  },
  {
   "buffer": 0,
   "byteOffset": 41184,
   "byteLength": 1728,
   "target": 34962
  },
  {
   "buffer": 0,
   "byteOffset": 42912,
   "byteLength": 1728,
   "target": 34962
  },
  {
   "buffer": 0,
   "byteOffset": 44640,
   "byteLength": 1728,
   "target": 34962
  },
  {
   "buffer": 0,
   "byteOffset": 46368,
   "byteLength": 1728,
   "target": 34962
  },
  {
   "buffer": 0,
   "byteOffset": 48096,
   "byteLength": 1728,
   "target": 34962
  },
  {
   "buffer": 0,
   "byteOffset": 49824,
   "byteLength": 1728,
   "target": 34962
  },
  {
   "buffer": 0,
   "byteOffset": 51552,
   "byteLength": 1728,
   "target": 34962
  },
  {
   "buffer": 0,
   "byteOffset": 53280,
   "byteLength": 576,
   "target": 34962
  },
  {
   "buffer": 0,
   "byteOffset": 53856,
   "byteLength": 864,
   "target": 34963
  },
  {
   "buffer": 0,
   "byteOffset": 54720,
   "byteLength": 1728,
   "target": 34962
  },
  {
   "buffer": 0,
   "byteOffset": 56448,
   "byteLength": 1728,
   "target": 34962
  },
  {
   "buffer": 0,
   "byteOffset": 58176,
   "byteLength": 1728,
   "target": 34962
  },
  {
   "buffer": 0,
   "byteOffset": 59904,
   "byteLength": 1728,
   "target": 34962
  },
  {
   "buffer": 0,
   "byteOffset": 61632,
   "byteLength": 1728,
   "target": 34962
  },
  {
   "buffer": 0,
   "byteOffset": 63360,
   "byteLength": 1728,
   "target": 34962
  },
  {
   "buffer": 0,
   "byteOffset": 65088,
   "byteLength": 1728,
   "target": 34962
  },
  {
   "buffer": 0,
   "byteOffset": 66816,
   "byteLength": 1728,
   "target": 34962
  },
  {
   "buffer": 0,
   "byteOffset": 68544,
   "byteLength": 1728,
   "target": 34962
  },
  {
   "buffer": 0,
   "byteOffset": 70272,
   "byteLength": 1728,
   "target": 34962
  },
  {
   "buffer": 0,
   "byteOffset": 72000,
   "byteLength": 1728,
   "target": 34962
  },
  {
   "buffer": 0,
   "byteOffset": 73728,
   "byteLength": 1728,
   "target": 34962
  },
  {
   "buffer": 0,
   "byteOffset": 75456,
   "byteLength": 1728,
   "target": 34962
  },
  {
   "buffer": 0,
   "byteOffset": 77184,
   "byteLength": 1728,
   "target": 34962
  },
  {
   "buffer": 0,
   "byteOffset": 78912,
   "byteLength": 1728,
   "target": 34962
  },
  {
   "buffer": 0,
   "byteOffset": 80640,
   "byteLength": 1728,
   "target": 34962
  },
  {
   "buffer": 0,
   "byteOffset": 82368,
   "byteLength": 1728,
   "target": 34962
  },
  {
   "buffer": 0,
   "byteOffset": 84096,
   "byteLength": 1728,
   "target": 34962
  },
  {
   "buffer": 0,
   "byteOffset": 85824,
   "byteLength": 1728,
   "target": 34962
  },
  {
   "buffer": 0,
   "byteOffset": 87552,
   "byteLength": 1728,
   "target": 34962
  },
  {
   "buffer": 0,
   "byteOffset": 89280,
   "byteLength": 1728,
   "target": 34962
  },
  {
   "buffer": 0,
   "byteOffset": 91008,
   "byteLength": 1728,
   "target": 34962
  },
  {
   "buffer": 0,
   "byteOffset": 92736,
   "byteLength": 1728,
   "target": 34962
  },
  {
   "buffer": 0,
   "byteOffset": 94464,
   "byteLength": 1728,
   "target": 34962
  },
  {
   "buffer": 0,
   "byteOffset": 96192,
   "byteLength": 1728,
   "target": 34962
  },
  {
   "buffer": 0,
   "byteOffset": 97920,
   "byteLength": 1728,
   "target": 34962
  },
  {
   "buffer": 0,
   "byteOffset": 99648,
   "byteLength": 1728,
   "target": 34962
  },
  {
   "buffer": 0,
   "byteOffset": 101376,
   "byteLength": 1728,
   "target": 34962
  },
  {
   "buffer": 0,
   "byteOffset": 103104,
   "byteLength": 3248
  },
  {
   "buffer": 0,
   "byteOffset": 106352,
   "byteLength": 116
  },
  {
   "buffer": 0,
   "byteOffset": 106468,
   "byteLength": 3248
  },
  {
   "buffer": 0,
   "byteOffset": 109716,
   "byteLength": 116
  }
 ],
 "buffers": [
  {
   "byteLength": 109832,
   "uri": "data:application/octet-stream;base64,"
  }
 ]
}
