{
 "asset": {
  "version": "2.0",
  "generator": "duoprism.py"
 },
 "scene": 0,
 "scenes": [
  {
   "nodes": [
    0
   ]
  }
 ],
 "nodes": [
  {
   "name": "duoprism_5_7",
   "mesh": 0
  }
 ],
 "meshes": [
  {
   "name": "duoprism_5_7",
   "primitives": [
    {
     "attributes": {
      "POSITION": 0,
      "NORMAL": 1,
      "COLOR_0": 2
     },
     "mode": 4,
     "material": 0,
     "indices": 3
    }
   ]
  }
 ],
 "materials": [
  {
   "name": "duoprism_5_7_material",
   "pbrMetallicRoughness": {
    "baseColorFactor": [
     0.82,
     0.84,
     0.9,
     1.0
    ],
    "metallicFactor": 0.0,
    "roughnessFactor": 0.55
   },
   "doubleSided": true
  }
 ],
 "accessors": [
  {
   "bufferView": 0,
   "componentType": 5126,
   "count": 174,
   "type": "VEC3",
   "min": [
    -1.273274302482605,
    -1.1822980642318726,
    -1.3508026599884033
   ],
   "max": [
    1.0226333141326904,
    1.1529078483581543,
    1.3318865299224854
   ]
  },
  {
   "bufferView": 1,
   "componentType": 5126,
   "count": 174,
   "type": "VEC3"
  },
  {
   "bufferView": 2,
   "componentType": 5121,
   "normalized": true,
   "count": 174,
   "type": "VEC4"
  },
  {
   "bufferView": 3,
   "componentType": 5123,
   "count": 288,
   "type": "SCALAR"
  }
 ],
 "bufferViews": [
  {
   "buffer": 0,
   "byteOffset": 0,
   "byteLength": 2088,
   "target": 34962
  },
  {
   "buffer": 0,
   "byteOffset": 2088,
   "byteLength": 2088,
   "target": 34962
  },
  {
   "buffer": 0,
   "byteOffset": 4176,
   "byteLength": 696,
   "target": 34962
  },
  {
   "buffer": 0,
   "byteOffset": 4872,
   "byteLength": 576,
   "target": 34963
  }
 ],
 "buffers": [
  {
   "byteLength": 5448,
   "uri": "data:application/octet-stream;base64,"
  }
 ]
}
