{
 "asset": {
  "version": "2.0",
  "generator": "hexacosichoron_600cell.py"
 },
 "scene": 0,
 "scenes": [
  {
   "nodes": [
    0,
    1
   ]
  }
 ],
 "nodes": [
  {
   "name": "hopf_decagons",
   "mesh": 0
  },
  {
   "name": "edges",
   "mesh": 1
  }
 ],
 "meshes": [
  {
   "name": "hopf_decagons",
   "primitives": [
    {
     "attributes": {
      "POSITION": 0,
      "NORMAL": 1,
      "COLOR_0": 2
     },
     "mode": 4,
     "material": 0,
     "indices": 3
    }
   ]
  },
  {
   "name": "edges",
   "primitives": [
    {
     "attributes": {
      "POSITION": 4,
      "COLOR_0": 5
     },
     "mode": 1,
     "material": 1,
     "indices": 6
    }
   ]
  }
 ],
 "materials": [
  {
   "name": "hopf_decagons_material",
   "pbrMetallicRoughness": {
    "baseColorFactor": [
     0.82,
     0.84,
     0.9,
     1.0
    ],
    "metallicFactor": 0.0,
    "roughnessFactor": 0.55
   },
   "doubleSided": true
  },
  {
   "name": "edges_material",
   "pbrMetallicRoughness": {
    "baseColorFactor": [
     0.82,
     0.84,
     0.9,
     1.0
    ],
    "metallicFactor": 0.0,
    "roughnessFactor": 0.55
   },
   "doubleSided": true,
   "extensions": {
    "KHR_materials_unlit": {}
   }
  }
 ],
 "extensionsUsed": [
  "KHR_materials_unlit"
 ],
 "accessors": [
  {
   "bufferView": 0,
   "componentType": 5126,
   "count": 2880,
   "type": "VEC3",
   "min": [
    -1.028869390487671,
    -1.0784803628921509,
    -1.0594079494476318
   ],
   "max": [
    1.1122889518737793,
    1.0784803628921509,
    1.0594079494476318
   ]
  },
  {
   "bufferView": 1,
   "componentType": 5126,
   "count": 2880,
   "type": "VEC3"
  },
  {
   "bufferView": 2,
   "componentType": 5121,
   "normalized": true,
   "count": 2880,
   "type": "VEC4"
  },
  {
   "bufferView": 3,
   "componentType": 5123,
   "count": 11520,
   "type": "SCALAR"
  },
  {
   "bufferView": 4,
   "componentType": 5126,
   "count": 120,
   "type": "VEC3",
   "min": [
    -1.012536883354187,
    -1.062147855758667,
    -1.043075442314148
   ],
   "max": [
    1.0959564447402954,
    1.062147855758667,
    1.043075442314148
   ]
  },
  {
   "bufferView": 5,
   "componentType": 5121,
   "normalized": true,
   "count": 120,
   "type": "VEC4"
  },
  {
   "bufferView": 6,
   "componentType": 5123,
   "count": 1440,
   "type": "SCALAR"
  }
 ],
 "bufferViews": [
  {
   "buffer": 0,
   "byteOffset": 0,
   "byteLength": 34560,
   "target": 34962
  },
  {
   "buffer": 0,
   "byteOffset": 34560,
   "byteLength": 34560,
   "target": 34962
  },
  {
   "buffer": 0,
   "byteOffset": 69120,
   "byteLength": 11520,
   "target": 34962
  },
  {
   "buffer": 0,
   "byteOffset": 80640,
   "byteLength": 23040,
   "target": 34963
  },
  {
   "buffer": 0,
   "byteOffset": 103680,
   "byteLength": 1440,
   "target": 34962
  },
  {
   "buffer": 0,
   "byteOffset": 105120,
   "byteLength": 480,
   "target": 34962
  },
  {
   "buffer": 0,
   "byteOffset": 105600,
   "byteLength": 2880,
   "target": 34963
  }
 ],
 "buffers": [
  {
   "byteLength": 108480,
   "uri": "data:application/octet-stream;base64,"
  }
 ]
}
