{
 "asset": {
  "version": "2.0",
  "generator": "cross_polytope_16cell.py"
 },
 "scene": 0,
 "scenes": [
  {
   "nodes": [
    0
   ]
  }
 ],
 "nodes": [
  {
   "name": "16cell",
   "mesh": 0
  }
 ],
 "meshes": [
  {
   "name": "16cell",
   "primitives": [
    {
     "attributes": {
      "POSITION": 0,
      "NORMAL": 1,
      "COLOR_0": 2
     },
     "mode": 4,
     "material": 0,
     "indices": 3
    }
   ]
  }
 ],
 "materials": [
  {
   "name": "16cell_material",
   "pbrMetallicRoughness": {
    "baseColorFactor": [
     0.82,
     0.84,
     0.9,
     1.0
    ],
    "metallicFactor": 0.0,
    "roughnessFactor": 0.55
   },
   "doubleSided": true
  }
 ],
 "accessors": [
  {
   "bufferView": 0,
   "componentType": 5126,
   "count": 96,
   "type": "VEC3",
   "min": [
    -0.6478909254074097,
    -0.6534944772720337,
    -0.6390945315361023
   ],
   "max": [
    0.7063854932785034,
    0.6753470301628113,
    0.6784216165542603
   ]
  },
  {
   "bufferView": 1,
   "componentType": 5126,
   "count": 96,
   "type": "VEC3"
  },
  {
   "bufferView": 2,
   "componentType": 5121,
   "normalized": true,
   "count": 96,
   "type": "VEC4"
  },
  {
   "bufferView": 3,
   "componentType": 5123,
   "count": 96,
   "type": "SCALAR"
  }
 ],
 "bufferViews": [
  {
   "buffer": 0,
   "byteOffset": 0,
   "byteLength": 1152,
   "target": 34962
  },
  {
   "buffer": 0,
   "byteOffset": 1152,
   "byteLength": 1152,
   "target": 34962
  },
  {
   "buffer": 0,
   "byteOffset": 2304,
   "byteLength": 384,
   "target": 34962
  },
  {
   "buffer": 0,
   "byteOffset": 2688,
   "byteLength": 192,
   "target": 34963
  }
 ],
 "buffers": [
  {
   "byteLength": 2880,
   "uri": "data:application/octet-stream;base64,"
  }
 ]
}
