{"asset":{"version":"2.0","generator":"Baltor mesh_algorithms meshkit 1.0.0"},"scene":0,"scenes":[{"name":"scene","nodes":[0]}],"nodes":[{"name":"road","mesh":0}],"meshes":[{"name":"road","primitives":[{"attributes":{"POSITION":0,"NORMAL":1,"COLOR_0":2},"indices":3,"material":0,"mode":4}]}],"materials":[{"name":"road","pbrMetallicRoughness":{"baseColorFactor":[1.0,1.0,1.0,1.0],"metallicFactor":0.0,"roughnessFactor":0.9},"doubleSided":true}],"buffers":[{"byteLength":9732,"uri":"data:application/octet-stream;base64,"}],"bufferViews":[{"buffer":0,"byteOffset":0,"byteLength":3168,"target":34962},{"buffer":0,"byteOffset":3168,"byteLength":3168,"target":34962},{"buffer":0,"byteOffset":6336,"byteLength":1056,"target":34962},{"buffer":0,"byteOffset":7392,"byteLength":2340,"target":34963}],"accessors":[{"bufferView":0,"componentType":5126,"count":264,"type":"VEC3","min":[-6.0,0.0,-19.117597579956055],"max":[12.490691184997559,0.0,1.5]},{"bufferView":1,"componentType":5126,"count":264,"type":"VEC3"},{"bufferView":2,"componentType":5121,"count":264,"type":"VEC4","normalized":true},{"bufferView":3,"componentType":5123,"count":1170,"type":"SCALAR"}]}
