{"asset":{"version":"2.0","generator":"Baltor mesh_algorithms meshkit 1.0.0"},"scene":0,"scenes":[{"name":"scene","nodes":[0]}],"nodes":[{"name":"extrusion","mesh":0}],"meshes":[{"name":"extrusion","primitives":[{"attributes":{"POSITION":0,"NORMAL":1},"indices":2,"material":0,"mode":4}]}],"materials":[{"name":"extrusion","pbrMetallicRoughness":{"baseColorFactor":[0.6,0.66,0.84,1.0],"metallicFactor":0.0,"roughnessFactor":0.5},"doubleSided":true}],"buffers":[{"byteLength":8232,"uri":"data:application/octet-stream;base64,"}],"bufferViews":[{"buffer":0,"byteOffset":0,"byteLength":3744,"target":34962},{"buffer":0,"byteOffset":3744,"byteLength":3744,"target":34962},{"buffer":0,"byteOffset":7488,"byteLength":744,"target":34963}],"accessors":[{"bufferView":0,"componentType":5126,"count":312,"type":"VEC3","min":[-1.2000000476837158,0.0,-0.800000011920929],"max":[1.2000000476837158,0.4000000059604645,0.800000011920929]},{"bufferView":1,"componentType":5126,"count":312,"type":"VEC3"},{"bufferView":2,"componentType":5123,"count":372,"type":"SCALAR"}]}
